<?xml version="1.0" standalone="no"?>
<!DOCTYPE svg PUBLIC "-//W3C//DTD SVG 1.1//EN" "http://www.w3.org/Graphics/SVG/1.1/DTD/svg11.dtd" >
<svg xmlns="http://www.w3.org/2000/svg" xmlns:xlink="http://www.w3.org/1999/xlink" version="1.1">
<metadata>
Created by FontForge 20140906 at Tue Oct 14 15:50:06 2014
 By cloudconvert
2012 Jan Maack published by FSI FontShop International GmbH
</metadata>
<defs>
<font id="BloomSpeakOT-Light" horiz-adv-x="694" >
  <font-face 
    font-family="BloomSpeakOT-Light"
    font-weight="300"
    font-stretch="normal"
    units-per-em="2000"
    panose-1="2 0 5 6 2 0 0 2 0 3"
    ascent="1560"
    descent="-440"
    x-height="886"
    cap-height="1278"
    bbox="-390 -496 2495 1748"
    underline-thickness="28"
    underline-position="-172"
    stemh="28"
    stemv="28"
    unicode-range="U+000D-FEFF"
  />
<missing-glyph horiz-adv-x="1004" 
d="M924 0h-844v1278h844v-1278zM896 28v1222h-788v-1222h788z" />
    <glyph glyph-name="f_f" unicode="ff" horiz-adv-x="1122" 
d="M724 14v844h-516v-844c0 -8 -6 -14 -14 -14s-14 6 -14 14v844h-146c-8 0 -14 6 -14 14s6 14 14 14h146v120c0 292 126 360 266 360c50 0 100 -8 146 -22c12 -4 16 -8 16 -16s-8 -12 -12 -12s-6 0 -20 4c-48 12 -82 18 -130 18c-136 0 -238 -72 -238 -332v-120h516v120
c0 292 126 360 266 360c50 0 100 -8 146 -22c12 -4 16 -8 16 -16s-8 -12 -12 -12s-6 0 -20 4c-48 12 -82 18 -130 18c-136 0 -238 -72 -238 -332v-120h310c8 0 14 -6 14 -14s-6 -14 -14 -14h-310v-844c0 -8 -6 -14 -14 -14s-14 6 -14 14z" />
    <glyph glyph-name="f_f_i" unicode="ffi" horiz-adv-x="1418" 
d="M180 14v844h-146c-8 0 -14 6 -14 14s6 14 14 14h146v120c0 292 126 360 266 360c50 0 100 -8 146 -22c12 -4 16 -8 16 -16s-8 -12 -12 -12s-6 0 -20 4c-48 12 -82 18 -130 18c-136 0 -238 -72 -238 -332v-120h516v120c0 326 198 360 306 360c116 0 170 -26 238 -58
c8 -4 10 -10 10 -18v-92c0 -8 -6 -14 -14 -14s-14 6 -14 14v88c-64 30 -120 52 -220 52c-104 0 -278 -36 -278 -332v-120h310c8 0 14 -6 14 -14s-6 -14 -14 -14h-310v-844c0 -8 -6 -14 -14 -14s-14 6 -14 14v844h-516v-844c0 -8 -6 -14 -14 -14s-14 6 -14 14zM1250 14v858
c0 8 6 14 14 14s14 -6 14 -14v-858c0 -8 -6 -14 -14 -14s-14 6 -14 14z" />
    <glyph glyph-name="f_i" unicode="fi" horiz-adv-x="874" 
d="M180 14v844h-146c-8 0 -14 6 -14 14s6 14 14 14h146v120c0 326 198 360 306 360c116 0 170 -26 238 -58c8 -4 10 -10 10 -18v-92c0 -8 -6 -14 -14 -14s-14 6 -14 14v88c-64 30 -120 52 -220 52c-104 0 -278 -36 -278 -332v-120h310c8 0 14 -6 14 -14s-6 -14 -14 -14h-310
v-844c0 -8 -6 -14 -14 -14s-14 6 -14 14zM706 14v858c0 8 6 14 14 14s14 -6 14 -14v-858c0 -8 -6 -14 -14 -14s-14 6 -14 14z" />
    <glyph glyph-name="f_j" unicode="fj" horiz-adv-x="874" 
d="M180 14v844h-146c-8 0 -14 6 -14 14s6 14 14 14h146v120c0 326 198 360 306 360c116 0 170 -26 238 -58c8 -4 10 -10 10 -18v-92c0 -8 -6 -14 -14 -14s-14 6 -14 14v88c-64 30 -120 52 -220 52c-104 0 -278 -36 -278 -332v-120h310c8 0 14 -6 14 -14s-6 -14 -14 -14h-310
v-844c0 -8 -6 -14 -14 -14s-14 6 -14 14zM706 -162v1034c0 8 6 14 14 14s14 -6 14 -14v-1034c0 -210 -142 -276 -258 -276c-56 0 -88 12 -98 16s-16 8 -16 18c0 6 6 12 14 12c12 0 32 -18 100 -18c104 0 230 60 230 248z" />
    <glyph glyph-name="f_l" unicode="fl" horiz-adv-x="936" 
d="M706 310v976c-64 30 -120 52 -220 52c-104 0 -278 -36 -278 -332v-120h310c8 0 14 -6 14 -14s-6 -14 -14 -14h-310v-844c0 -8 -6 -14 -14 -14s-14 6 -14 14v844h-146c-8 0 -14 6 -14 14s6 14 14 14h146v120c0 326 198 360 306 360c116 0 170 -26 238 -58
c8 -4 10 -10 10 -18v-980c0 -222 36 -282 168 -282c8 0 14 -6 14 -14s-6 -14 -16 -14c-144 0 -194 66 -194 310z" />
    <glyph glyph-name=".notdef" horiz-adv-x="1004" 
d="M924 0h-844v1278h844v-1278zM896 28v1222h-788v-1222h788z" />
    <glyph glyph-name=".null" horiz-adv-x="0" 
 />
    <glyph glyph-name=".null" horiz-adv-x="0" 
 />
    <glyph glyph-name="CR" unicode="&#xd;" horiz-adv-x="400" 
 />
    <glyph glyph-name="space" unicode=" " horiz-adv-x="400" 
 />
    <glyph glyph-name="exclam" unicode="!" horiz-adv-x="388" 
d="M180 297v966c0 10 5 15 14 15s14 -5 14 -15v-966c0 -10 -5 -15 -14 -15s-14 5 -14 15zM180 1v72c0 10 5 15 14 15s14 -5 14 -15v-72c0 -10 -5 -15 -14 -15s-14 5 -14 15z" />
    <glyph glyph-name="quotedbl" unicode="&#x22;" horiz-adv-x="520" 
d="M140 905v356c0 10 5 15 14 15s14 -5 14 -15v-356c0 -10 -5 -15 -14 -15s-14 5 -14 15zM352 905v356c0 10 5 15 14 15s14 -5 14 -15v-356c0 -10 -5 -15 -14 -15s-14 5 -14 15z" />
    <glyph glyph-name="numbersign" unicode="#" horiz-adv-x="1116" 
d="M399 648h-157c-10 0 -16 4 -16 14s6 14 16 14h161l45 310c2 12 8 14 14 14s12 -4 12 -14v-4l-45 -306h284l45 310c2 12 8 14 14 14s12 -4 12 -14v-4l-45 -306h181c10 0 16 -4 16 -14s-6 -14 -16 -14h-185l-44 -304h183c10 0 16 -4 16 -14s-6 -14 -16 -14h-187l-43 -302
c-2 -10 -6 -14 -14 -14s-12 6 -12 14c0 2 0 4 2 18l41 284h-284l-43 -302c-2 -10 -6 -14 -14 -14s-12 6 -12 14c0 2 0 4 2 18l41 284h-155c-10 0 -16 4 -16 14s6 14 16 14h159zM425 648l-44 -304h284l44 304h-284z" />
    <glyph glyph-name="dollar" unicode="$" horiz-adv-x="906" 
d="M474 -111v101c-18 -2 -34 -2 -42 -2c-160 0 -260 76 -323 123c-6 4 -11 9 -11 15c0 8 6 14 14 14c6 0 10 -4 24 -14c52 -38 150 -110 296 -110c214 0 346 118 346 306c0 372 -638 276 -638 674c0 176 160 292 334 294v95c0 10 5 15 14 15s14 -5 14 -15v-95
c118 -6 208 -64 265 -105c7 -5 11 -9 11 -17s-6 -14 -13 -14s-11 4 -25 14c-48 36 -140 94 -264 94c-158 0 -308 -106 -308 -266c0 -370 638 -276 638 -674c0 -180 -118 -304 -304 -328v-105c0 -10 -5 -15 -14 -15s-14 5 -14 15z" />
    <glyph glyph-name="percent" unicode="%" horiz-adv-x="1396" 
d="M270 26l862 1248c9 13 12 16 18 16c8 0 14 -5 14 -12c0 -4 -2 -8 -6 -14l-862 -1248c-8 -12 -12 -16 -19 -16s-13 4 -13 12c0 4 2 8 6 14zM100 940c0 208 90 344 228 344c136 0 228 -138 228 -344c0 -212 -84 -338 -228 -338s-228 126 -228 338zM528 940
c0 158 -62 316 -200 316c-122 0 -200 -124 -200 -316s76 -310 200 -310s200 118 200 310zM840 332c0 208 90 344 228 344c136 0 228 -138 228 -344c0 -212 -84 -338 -228 -338s-228 126 -228 338zM1268 332c0 158 -62 316 -200 316c-122 0 -200 -124 -200 -316
s76 -310 200 -310s200 118 200 310z" />
    <glyph glyph-name="ampersand" unicode="&#x26;" horiz-adv-x="1434" 
d="M522 674l394 -456c82 100 118 202 118 274c0 10 5 15 14 15s14 -5 14 -15c0 -72 -36 -186 -124 -294c156 -158 256 -170 302 -170c10 0 16 -4 16 -14s-6 -14 -16 -14c-40 0 -160 10 -324 176c-88 -100 -220 -188 -380 -188c-204 0 -358 150 -358 348
c0 200 148 278 302 348c-56 56 -190 190 -190 314c0 160 116 280 274 280c148 0 268 -124 268 -272c0 -190 -148 -268 -310 -332zM804 1006c0 132 -108 244 -240 244c-144 0 -246 -110 -246 -252c0 -104 116 -230 188 -302c154 70 298 130 298 310zM898 198l-400 462
c-154 -70 -292 -138 -292 -324c0 -208 170 -320 330 -320c150 0 276 86 362 182z" />
    <glyph glyph-name="quotesingle" unicode="'" horiz-adv-x="308" 
d="M140 905v356c0 10 5 15 14 15s14 -5 14 -15v-356c0 -10 -5 -15 -14 -15s-14 5 -14 15z" />
    <glyph glyph-name="parenleft" unicode="(" horiz-adv-x="724" 
d="M180 556c0 588 302 786 326 802c12 8 18 12 24 12c8 0 13 -6 13 -13c0 -8 -6 -11 -19 -21c-18 -13 -316 -202 -316 -780c0 -570 298 -759 316 -772c13 -10 19 -13 19 -21c0 -7 -5 -13 -13 -13c-6 0 -12 4 -24 12c-24 16 -326 214 -326 794z" />
    <glyph glyph-name="parenright" unicode=")" horiz-adv-x="724" 
d="M546 564c0 -588 -302 -786 -326 -802c-12 -8 -18 -12 -24 -12c-8 0 -13 6 -13 13c0 8 6 11 19 21c18 13 316 202 316 780c0 570 -298 759 -316 772c-13 10 -19 13 -19 21c0 7 5 13 13 13c6 0 12 -4 24 -12c24 -16 326 -214 326 -794z" />
    <glyph glyph-name="asterisk" unicode="*" horiz-adv-x="782" 
d="M390 944l-170 -232c-3 -4 -7 -6 -12 -6c-8 0 -15 7 -15 15c0 5 3 9 7 14l168 225l-257 93c-9 3 -13 8 -13 15c0 9 6 15 14 15c3 0 6 -1 11 -3l253 -94v269c0 10 5 15 14 15s14 -5 14 -15v-269l253 94c5 2 8 3 11 3c8 0 14 -6 14 -15c0 -7 -4 -12 -13 -15l-257 -93
l168 -225c4 -5 7 -9 7 -14c0 -8 -7 -15 -15 -15c-5 0 -9 2 -12 6z" />
    <glyph glyph-name="plus" unicode="+" horiz-adv-x="1140" 
d="M556 466v393c0 10 5 15 14 15s14 -5 14 -15v-393h393c10 0 15 -5 15 -14s-5 -14 -15 -14h-393v-393c0 -10 -5 -15 -14 -15s-14 5 -14 15v393h-393c-10 0 -15 5 -15 14s5 14 15 14h393z" />
    <glyph glyph-name="comma" unicode="," horiz-adv-x="308" 
d="M168 74v-8c0 -46 -6 -202 -88 -284c-4 -4 -8 -6 -12 -6c-8 0 -14 6 -14 12c0 5 2 8 6 12c76 74 80 232 80 274c0 8 5 14 14 14s14 -6 14 -14z" />
    <glyph glyph-name="hyphen" unicode="-" horiz-adv-x="872" 
d="M676 438h-480c-10 0 -16 4 -16 14s6 14 16 14h480c10 0 16 -4 16 -14s-6 -14 -16 -14z" />
    <glyph glyph-name="period" unicode="." horiz-adv-x="308" 
d="M140 3v70c0 10 5 15 14 15s14 -5 14 -15v-70c0 -10 -5 -15 -14 -15s-14 5 -14 15z" />
    <glyph glyph-name="slash" unicode="/" horiz-adv-x="728" 
d="M86 -88l535 1420c3 8 7 12 14 12c8 0 13 -5 13 -12c0 -4 -2 -10 -6 -20l-535 -1420c-3 -8 -7 -12 -14 -12c-8 0 -13 5 -13 12c0 4 2 10 6 20z" />
    <glyph glyph-name="zero" unicode="0" horiz-adv-x="1108" 
d="M120 632c0 400 170 658 434 658c260 0 434 -264 434 -658c0 -404 -162 -644 -434 -644s-434 240 -434 644zM960 632c0 314 -124 630 -406 630c-248 0 -406 -246 -406 -630c0 -386 152 -616 406 -616s406 230 406 616z" />
    <glyph glyph-name="one" unicode="1" horiz-adv-x="568" 
d="M320 15v1225l-252 -166c-6 -4 -10 -4 -12 -4c-6 0 -12 6 -12 14c0 6 4 10 12 16l248 164c12 8 20 14 28 14c10 0 16 -6 16 -18v-1245c0 -10 -5 -15 -14 -15s-14 5 -14 15z" />
    <glyph glyph-name="two" unicode="2" horiz-adv-x="932" 
d="M148 28h648c10 0 16 -4 16 -14s-6 -14 -16 -14h-652c-16 0 -24 6 -24 22c0 272 654 624 654 952c0 176 -116 288 -310 288c-142 0 -248 -68 -280 -88c-6 -4 -10 -6 -16 -6s-12 4 -12 12c0 6 2 10 11 16c27 18 143 94 297 94c212 0 338 -122 338 -314
c0 -194 -192 -378 -368 -552c-144 -144 -278 -276 -286 -396z" />
    <glyph glyph-name="three" unicode="3" horiz-adv-x="958" 
d="M426 630h-52c-10 0 -16 4 -16 14s6 14 16 14h52c160 0 362 86 362 306c0 272 -230 298 -330 298c-136 0 -237 -66 -268 -88c-6 -4 -9 -5 -13 -5c-7 0 -13 6 -13 15c0 8 8 13 16 19c34 25 140 87 278 87c116 0 358 -38 358 -326c0 -170 -115 -285 -282 -319
c170 -18 304 -138 304 -320c0 -216 -183 -337 -374 -337c-214 0 -316 80 -328 88c-8 6 -16 11 -16 20c0 8 6 14 13 14c5 0 8 -2 14 -6c17 -13 114 -89 317 -88c196 1 346 128 346 304c0 240 -214 310 -384 310z" />
    <glyph glyph-name="four" unicode="4" horiz-adv-x="1016" 
d="M710 374h160c10 0 16 -4 16 -14s-6 -14 -16 -14h-160v-331c0 -10 -5 -15 -14 -15s-14 5 -14 15v331h-606c-14 0 -24 6 -24 20c0 8 6 20 12 34c136 300 358 608 614 870c4 4 8 8 15 8s13 -5 13 -12c0 -5 -2 -8 -8 -14c-4 -4 -404 -402 -616 -878h600v639c0 10 5 15 14 15
s14 -5 14 -15v-639z" />
    <glyph glyph-name="five" unicode="5" horiz-adv-x="940" 
d="M182 1250v-530c38 20 124 62 244 62c228 0 394 -160 394 -376c0 -308 -212 -418 -394 -418c-168 0 -274 78 -290 90c-8 6 -16 11 -16 20c0 8 6 14 13 14c5 0 8 -2 14 -6c14 -10 121 -90 279 -90c178 0 366 102 366 390c0 200 -154 348 -366 348c-90 0 -176 -28 -228 -56
c-10 -6 -18 -10 -24 -10c-12 0 -20 8 -20 20v546c0 16 8 24 24 24h558c10 0 16 -4 16 -14s-6 -14 -16 -14h-554z" />
    <glyph glyph-name="six" unicode="6" horiz-adv-x="1012" 
d="M148 574v-66c18 116 110 288 354 288c294 0 372 -244 372 -388c0 -156 -78 -420 -372 -420c-126 0 -274 46 -344 250c-28 84 -38 190 -38 336c0 616 212 716 420 716c146 0 230 -54 270 -82c12 -8 18 -13 18 -20c0 -8 -6 -14 -13 -14c-5 0 -9 2 -23 12
c-28 20 -112 76 -252 76c-180 0 -392 -76 -392 -688zM158 408c0 -146 74 -392 344 -392s344 246 344 392c0 132 -74 360 -344 360s-344 -228 -344 -360z" />
    <glyph glyph-name="seven" unicode="7" horiz-adv-x="904" 
d="M65 1278h745c16 0 24 -6 24 -22c0 -102 -102 -280 -218 -484c-144 -254 -308 -543 -308 -757c0 -10 -5 -15 -14 -15s-14 5 -14 15c0 222 166 511 312 769c106 186 206 362 214 466h-741c-10 0 -15 5 -15 14s5 14 15 14z" />
    <glyph glyph-name="eight" unicode="8" horiz-adv-x="988" 
d="M888 330c0 -266 -192 -342 -396 -342c-198 0 -392 96 -392 342c0 192 112 316 236 344c-132 52 -200 148 -200 292c0 256 224 324 356 324c148 0 362 -76 362 -324c0 -162 -108 -294 -216 -330c116 -34 250 -108 250 -306zM826 966c0 234 -210 296 -334 296
c-122 0 -328 -62 -328 -296c0 -260 222 -286 416 -314c112 0 246 144 246 314zM128 330c0 -234 188 -314 364 -314c168 0 368 52 368 314c0 278 -284 290 -418 316c-22 4 -44 8 -50 8c-130 0 -264 -122 -264 -324z" />
    <glyph glyph-name="nine" unicode="9" horiz-adv-x="1010" 
d="M842 704v72c-10 -84 -96 -282 -354 -282c-294 0 -372 244 -372 382c0 150 78 414 372 414c126 0 274 -46 344 -250c28 -84 38 -190 38 -336c0 -616 -212 -716 -420 -716c-146 0 -230 54 -270 82c-12 8 -18 13 -18 20c0 8 6 14 13 14c5 0 9 -2 23 -12
c28 -20 112 -76 252 -76c180 0 392 76 392 688zM488 1262c-270 0 -344 -246 -344 -386c0 -126 74 -354 344 -354s344 228 344 354c0 140 -74 386 -344 386z" />
    <glyph glyph-name="colon" unicode=":" horiz-adv-x="308" 
d="M140 808v72c0 8 6 14 14 14s14 -6 14 -14v-72c0 -8 -6 -14 -14 -14s-14 6 -14 14zM140 0v74c0 8 6 14 14 14s14 -6 14 -14v-74c0 -8 -6 -14 -14 -14s-14 6 -14 14z" />
    <glyph glyph-name="semicolon" unicode=";" horiz-adv-x="382" 
d="M214 808v72c0 8 6 14 14 14s14 -6 14 -14v-72c0 -8 -6 -14 -14 -14s-14 6 -14 14zM244 74v-8c0 -46 -6 -202 -88 -284c-4 -4 -8 -6 -12 -6c-8 0 -14 6 -14 12s2 8 6 12c76 74 80 232 80 274c0 8 6 14 14 14s14 -6 14 -14z" />
    <glyph glyph-name="less" unicode="&#x3c;" horiz-adv-x="1140" 
d="M189 468l753 384c4 2 7 3 10 3c7 0 13 -6 13 -14c0 -6 -2 -9 -9 -13l-743 -378l743 -378c7 -4 9 -7 9 -13c0 -8 -6 -14 -13 -14c-3 0 -6 1 -10 3l-753 384c-10 5 -14 10 -14 18s4 13 14 18z" />
    <glyph glyph-name="equal" unicode="=" horiz-adv-x="1140" 
d="M950 554h-760c-10 0 -16 4 -16 14s6 14 16 14h760c10 0 16 -4 16 -14s-6 -14 -16 -14zM950 338h-760c-10 0 -16 4 -16 14s6 14 16 14h760c10 0 16 -4 16 -14s-6 -14 -16 -14z" />
    <glyph glyph-name="greater" unicode="&#x3e;" horiz-adv-x="1140" 
d="M927 450l-743 378c-7 4 -9 7 -9 13c0 8 6 14 13 14c3 0 6 -1 10 -3l753 -384c10 -5 14 -10 14 -18s-4 -13 -14 -18l-753 -384c-4 -2 -7 -3 -10 -3c-7 0 -13 6 -13 14c0 6 2 9 9 13z" />
    <glyph glyph-name="question" unicode="?" horiz-adv-x="948" 
d="M548 630l50 40c86 70 162 128 162 258c0 190 -126 322 -306 322c-138 0 -232 -64 -258 -82c-12 -8 -16 -12 -22 -12c-8 0 -14 6 -14 14c0 6 3 9 10 14c24 18 126 94 284 94c198 0 334 -144 334 -350c0 -298 -372 -259 -372 -643c0 -10 -5 -15 -14 -15s-14 5 -14 15
c2 176 76 277 160 345zM388 3v70c0 10 5 15 14 15s14 -5 14 -15v-70c0 -10 -5 -15 -14 -15s-14 5 -14 15z" />
    <glyph glyph-name="at" unicode="@" horiz-adv-x="1456" 
d="M664 362c-126 0 -194 72 -194 198c0 166 118 400 334 400c70 0 160 -36 188 -60c4 -4 6 -8 6 -14s-4 -28 -6 -40c-22 -132 -60 -330 -60 -370c0 -20 2 -44 16 -62s40 -28 74 -28c146 0 306 142 306 344c0 316 -224 520 -586 520c-338 0 -614 -282 -614 -620
s276 -614 614 -614c128 0 246 40 334 98c8 5 14 10 20 10c8 0 14 -6 14 -14c0 -6 -4 -11 -16 -18c-94 -60 -212 -104 -352 -104c-354 0 -642 288 -642 642s288 648 642 648c378 0 614 -214 614 -548c0 -218 -176 -372 -334 -372c-42 0 -76 12 -96 38s-22 56 -22 82
c-84 -84 -178 -116 -240 -116zM908 518l62 364c-44 26 -104 50 -166 50c-198 0 -306 -222 -306 -374c0 -106 54 -168 166 -168c62 0 158 34 244 128z" />
    <glyph glyph-name="A" unicode="A" horiz-adv-x="1076" 
d="M881 410h-686c-53 -162 -98 -306 -123 -395c-3 -11 -7 -15 -16 -15c-10 0 -15 9 -11 22c57 194 315 1007 433 1222c13 24 32 34 60 34s47 -10 60 -34c118 -215 376 -1028 433 -1222c4 -13 -1 -22 -11 -22c-9 0 -13 4 -16 15c-26 89 -70 234 -123 395zM203 437h669
c-12 37 -24 75 -37 113c-91 274 -196 555 -261 680c-6 12 -16 20 -36 20s-30 -8 -36 -20c-65 -125 -170 -406 -261 -680z" />
    <glyph glyph-name="B" unicode="B" horiz-adv-x="1002" 
d="M454 0h-250c-16 0 -24 8 -24 24v1230c0 16 8 24 24 24h252c112 0 386 -4 386 -320c0 -190 -136 -284 -220 -308c232 -36 280 -192 280 -320c0 -322 -328 -330 -448 -330zM208 658h304c172 0 302 128 302 300c0 292 -258 292 -362 292h-244v-592zM208 28h248
c112 0 418 6 418 302c0 200 -122 300 -362 300h-304v-602z" />
    <glyph glyph-name="C" unicode="C" horiz-adv-x="1144" 
d="M668 1290c210 0 324 -74 364 -102c8 -6 12 -11 12 -18s-5 -12 -12 -12c-6 0 -10 2 -18 8c-38 28 -144 96 -346 96c-308 0 -540 -270 -540 -624c0 -360 218 -622 518 -622c134 0 240 28 352 90c8 4 11 6 18 6c6 0 12 -4 12 -12s-6 -12 -16 -18c-116 -64 -228 -94 -366 -94
c-316 0 -546 274 -546 650c0 370 244 652 568 652z" />
    <glyph glyph-name="D" unicode="D" horiz-adv-x="1228" 
d="M556 0h-352c-16 0 -24 8 -24 24v1230c0 16 8 24 24 24h352c360 0 572 -272 572 -644s-208 -634 -572 -634zM208 28h348c348 0 544 248 544 606s-200 616 -544 616h-348v-1222z" />
    <glyph glyph-name="E" unicode="E" horiz-adv-x="924" 
d="M799 0h-595c-16 0 -24 8 -24 24v1230c0 16 8 24 24 24h557c10 0 15 -5 15 -14s-5 -14 -15 -14h-553v-562h515c10 0 15 -5 15 -14s-5 -14 -15 -14h-515v-632h591c10 0 15 -5 15 -14s-5 -14 -15 -14z" />
    <glyph glyph-name="F" unicode="F" horiz-adv-x="866" 
d="M180 15v1239c0 16 8 24 24 24h557c10 0 15 -5 15 -14s-5 -14 -15 -14h-553v-562h515c10 0 15 -5 15 -14s-5 -14 -15 -14h-515v-645c0 -10 -5 -15 -14 -15s-14 5 -14 15z" />
    <glyph glyph-name="G" unicode="G" horiz-adv-x="1190" 
d="M1022 106v328c0 114 -16 130 -136 130h-163c-10 0 -15 5 -15 14s5 14 15 14h163c136 0 164 -28 164 -158v-322c0 -16 -4 -26 -16 -32c-112 -60 -242 -92 -388 -92c-316 0 -546 272 -546 648c0 370 244 654 568 654c168 0 266 -52 332 -88c10 -6 14 -9 14 -17
s-6 -13 -13 -13c-5 0 -9 2 -13 4c-72 40 -164 86 -320 86c-308 0 -540 -272 -540 -626c0 -360 218 -620 518 -620c140 0 266 30 376 90z" />
    <glyph glyph-name="H" unicode="H" horiz-adv-x="1174" 
d="M966 15v645h-758v-645c0 -10 -5 -15 -14 -15s-14 5 -14 15v1248c0 10 5 15 14 15s14 -5 14 -15v-575h758v575c0 10 5 15 14 15s14 -5 14 -15v-1248c0 -10 -5 -15 -14 -15s-14 5 -14 15z" />
    <glyph glyph-name="I" unicode="I" horiz-adv-x="388" 
d="M180 15v1248c0 10 5 15 14 15s14 -5 14 -15v-1248c0 -10 -5 -15 -14 -15s-14 5 -14 15z" />
    <glyph glyph-name="J" unicode="J" horiz-adv-x="428" 
d="M220 -22v1285c0 10 5 15 14 15s14 -5 14 -15v-1285c0 -210 -142 -276 -258 -276c-56 0 -88 12 -98 16s-16 8 -16 17c0 8 6 13 12 13c5 0 8 -1 15 -4c15 -5 42 -14 87 -14c104 0 230 60 230 248z" />
    <glyph glyph-name="K" unicode="K" horiz-adv-x="995" 
d="M208 686l584 582c6 6 10 10 16 10c8 0 14 -6 14 -14c0 -6 -4 -10 -8 -14l-578 -574c65 -43 347 -264 653 -649c4 -5 6 -10 6 -14c0 -7 -5 -13 -14 -13c-6 0 -10 4 -15 10c-320 402 -626 632 -658 652v-647c0 -10 -5 -15 -14 -15s-14 5 -14 15v1248c0 10 5 15 14 15
s14 -5 14 -15v-577z" />
    <glyph glyph-name="L" unicode="L" horiz-adv-x="856" 
d="M801 0h-597c-16 0 -24 8 -24 24v1239c0 10 5 15 14 15s14 -5 14 -15v-1235h593c10 0 15 -5 15 -14s-5 -14 -15 -14z" />
    <glyph glyph-name="M" unicode="M" horiz-adv-x="1584" 
d="M1415 16l-139 1234c-24 0 -36 -14 -52 -42c-108 -196 -366 -1010 -402 -1146c-4 -16 -14 -24 -30 -24s-26 8 -30 24c-36 136 -294 950 -402 1146c-16 28 -28 42 -52 42l-139 -1234c-1 -11 -6 -16 -15 -16c-11 0 -14 8 -14 14s1 13 2 25l138 1211c2 20 8 28 28 28
c38 0 60 -22 78 -58c132 -260 364 -1006 404 -1154h4c40 148 272 894 404 1154c18 36 36 58 78 58c20 0 26 -8 28 -28l138 -1211c1 -12 2 -19 2 -25s-3 -14 -14 -14c-9 0 -14 5 -15 16z" />
    <glyph glyph-name="N" unicode="N" horiz-adv-x="1166" 
d="M986 1263v-1235c0 -20 -8 -28 -28 -28c-34 0 -54 14 -82 56c-76 114 -194 338 -308 586c-78 168 -226 452 -302 564c-18 26 -30 44 -58 44v-1235c0 -10 -5 -15 -14 -15s-14 5 -14 15v1235c0 20 8 28 28 28c34 0 54 -14 82 -56c76 -114 222 -394 304 -568
c112 -240 222 -462 306 -582c18 -26 30 -44 58 -44v1235c0 10 5 15 14 15s14 -5 14 -15z" />
    <glyph glyph-name="O" unicode="O" horiz-adv-x="1262" 
d="M100 636c0 378 222 654 532 654c308 0 530 -276 530 -654c0 -372 -222 -648 -530 -648c-310 0 -532 276 -532 648zM1134 636c0 360 -210 626 -502 626c-294 0 -504 -266 -504 -626c0 -354 210 -620 504 -620c292 0 502 266 502 620z" />
    <glyph glyph-name="P" unicode="P" horiz-adv-x="900" 
d="M180 15v1239c0 16 8 24 24 24h312c196 0 344 -136 344 -318c0 -260 -184 -352 -344 -352h-308v-593c0 -10 -5 -15 -14 -15s-14 5 -14 15zM208 1250v-614h308c146 0 316 84 316 324c0 166 -134 290 -316 290h-308z" />
    <glyph glyph-name="Q" unicode="Q" horiz-adv-x="1258" 
d="M100 636c0 378 222 654 530 654c310 0 532 -276 532 -654c0 -352 -194 -600 -452 -642c-36 -6 -70 -6 -104 -6c98 -184 298 -216 430 -216c52 0 95 5 117 8c9 1 13 2 19 2s12 -4 12 -12c0 -10 -6 -12 -14 -14c-26 -6 -98 -10 -132 -10c-158 0 -364 40 -464 244
c-274 32 -474 292 -474 646zM1134 636c0 360 -210 626 -504 626c-292 0 -502 -266 -502 -626c0 -354 210 -620 502 -620s504 260 504 620z" />
    <glyph glyph-name="R" unicode="R" horiz-adv-x="1028" 
d="M180 15v1239c0 16 8 24 24 24h332c200 0 344 -130 344 -308c0 -236 -158 -332 -324 -338c178 -50 284 -334 384 -592c6 -16 8 -22 8 -27c0 -8 -5 -13 -14 -13s-12 6 -16 16c-158 414 -258 614 -478 614h-232v-615c0 -10 -5 -15 -14 -15s-14 5 -14 15zM208 1250v-592h328
c74 0 316 20 316 312c0 164 -132 280 -316 280h-328z" />
    <glyph glyph-name="S" unicode="S" horiz-adv-x="908" 
d="M478 1290c132 0 232 -62 294 -108c7 -6 8 -10 8 -14c0 -8 -6 -14 -13 -14c-6 0 -11 4 -19 10c-48 36 -146 98 -270 98c-158 0 -308 -106 -308 -266c0 -370 638 -278 638 -674c0 -202 -142 -334 -374 -334c-158 0 -266 79 -326 125c-7 6 -8 10 -8 14c0 8 6 14 13 14
c6 0 11 -4 19 -10c52 -38 156 -115 302 -115c214 0 346 118 346 306c0 372 -638 278 -638 674c0 178 162 294 336 294z" />
    <glyph glyph-name="T" unicode="T" horiz-adv-x="904" 
d="M434 15v1235h-399c-10 0 -15 5 -15 14s5 14 15 14h806c10 0 15 -5 15 -14s-5 -14 -15 -14h-379v-1235c0 -10 -5 -15 -14 -15s-14 5 -14 15z" />
    <glyph glyph-name="U" unicode="U" horiz-adv-x="1132" 
d="M944 402v861c0 10 5 15 14 15s14 -5 14 -15v-865c0 -220 -136 -410 -406 -410s-406 190 -406 410v865c0 10 5 15 14 15s14 -5 14 -15v-861c0 -216 130 -386 378 -386s378 170 378 386z" />
    <glyph glyph-name="V" unicode="V" horiz-adv-x="1076" 
d="M1020 1278c10 0 15 -9 11 -22c-57 -194 -315 -1007 -433 -1222c-13 -24 -32 -34 -60 -34s-47 10 -60 34c-118 215 -376 1028 -433 1222c-4 13 1 22 11 22c9 0 13 -4 16 -15c33 -114 97 -320 169 -535c91 -274 196 -555 261 -680c6 -12 16 -20 36 -20s30 8 36 20
c65 125 170 406 261 680c72 215 136 421 169 535c3 11 7 15 16 15z" />
    <glyph glyph-name="W" unicode="W" horiz-adv-x="1536" 
d="M336 34c-64 126 -246 976 -295 1218c-1 5 -2 9 -2 13c0 6 4 13 15 13c10 0 13 -5 16 -20c4 -20 222 -1074 290 -1210c6 -12 16 -20 36 -20s30 8 36 20c60 122 272 1034 300 1162c4 20 16 32 36 32s32 -12 36 -32c28 -128 240 -1040 300 -1162c6 -12 16 -20 35 -20
c20 0 30 8 36 20c68 136 286 1190 290 1210c3 15 7 20 17 20s14 -7 14 -13c0 -4 -1 -8 -2 -13c-49 -242 -231 -1092 -295 -1218c-12 -24 -31 -34 -59 -34s-48 10 -60 34c-64 128 -272 1032 -302 1168c-2 8 -4 12 -10 12s-8 -4 -10 -12c-30 -136 -238 -1040 -302 -1168
c-12 -24 -32 -34 -60 -34s-48 10 -60 34z" />
    <glyph glyph-name="X" unicode="X" horiz-adv-x="922" 
d="M52 36l412 658c-210 328 -384 556 -386 560c-4 6 -4 8 -4 11c0 9 8 13 13 13c6 0 10 -1 15 -8c4 -6 170 -228 378 -552l340 546c6 10 10 14 17 14c9 0 13 -6 13 -12c0 -4 -2 -8 -8 -18l-346 -554c126 -198 254 -412 381 -666c4 -8 5 -12 5 -16c0 -6 -4 -12 -12 -12
c-9 0 -12 4 -16 12c-122 244 -250 460 -374 656l-410 -656c-4 -6 -8 -12 -16 -12s-14 6 -14 13c0 5 4 11 12 23z" />
    <glyph glyph-name="Y" unicode="Y" horiz-adv-x="912" 
d="M442 15v513c-16 2 -28 10 -44 32c-66 86 -282 532 -352 686c-4 9 -7 15 -7 19c0 8 7 13 14 13c8 0 11 -3 15 -12c6 -14 244 -530 354 -694c8 -12 18 -18 34 -18s26 6 34 18c110 164 348 680 354 694c4 9 7 12 15 12c7 0 14 -5 14 -13c0 -4 -3 -10 -7 -19
c-70 -154 -286 -600 -352 -686c-16 -22 -28 -30 -44 -32v-513c0 -10 -5 -15 -14 -15s-14 5 -14 15z" />
    <glyph glyph-name="Z" unicode="Z" horiz-adv-x="870" 
d="M815 0h-751c-16 0 -24 8 -24 28c0 16 4 34 12 50c74 146 394 654 588 954c34 54 122 170 130 218h-715c-10 0 -15 5 -15 14s5 14 15 14h719c16 0 24 -8 24 -24c0 -52 -96 -180 -136 -240c-210 -318 -522 -822 -584 -948c-6 -12 -10 -26 -10 -38h747c10 0 15 -5 15 -14
s-5 -14 -15 -14z" />
    <glyph glyph-name="bracketleft" unicode="[" horiz-adv-x="644" 
d="M450 -148h-246c-16 0 -24 8 -24 24v1378c0 16 8 24 24 24h245c10 0 15 -5 15 -14s-5 -14 -14 -14h-242v-1370h242c10 0 15 -5 15 -14s-5 -14 -15 -14z" />
    <glyph glyph-name="backslash" unicode="\" horiz-adv-x="748" 
d="M117 1332l535 -1420c4 -10 6 -16 6 -20c0 -7 -5 -12 -13 -12c-7 0 -11 4 -14 12l-535 1420c-4 10 -6 16 -6 20c0 7 5 12 13 12c7 0 11 -4 14 -12z" />
    <glyph glyph-name="bracketright" unicode="]" horiz-adv-x="644" 
d="M195 1278h246c16 0 24 -8 24 -24v-1378c0 -16 -8 -24 -24 -24h-245c-10 0 -15 5 -15 14s5 14 14 14h242v1370h-242c-10 0 -15 5 -15 14s5 14 15 14z" />
    <glyph glyph-name="asciicircum" unicode="^" horiz-adv-x="966" 
d="M503 1264l345 -719c5 -10 6 -14 6 -18c0 -8 -6 -13 -15 -13c-5 0 -10 2 -14 11l-342 718l-342 -718c-4 -9 -9 -11 -14 -11c-9 0 -15 5 -15 13c0 4 1 8 6 18l345 719c5 11 11 14 20 14s15 -3 20 -14z" />
    <glyph glyph-name="underscore" unicode="_" horiz-adv-x="962" 
d="M888 -140h-814c-8 0 -14 6 -14 14s6 14 14 14h814c8 0 14 -6 14 -14s-6 -14 -14 -14z" />
    <glyph glyph-name="grave" unicode="`" horiz-adv-x="572" 
d="M444 1092l-326 138c-12 5 -18 8 -18 18s8 14 14 14c5 0 9 -2 14 -4l326 -138c12 -5 18 -8 18 -18s-8 -14 -14 -14c-5 0 -9 2 -14 4z" />
    <glyph glyph-name="a" unicode="a" horiz-adv-x="838" 
d="M666 530v94c0 112 -66 246 -256 246c-126 0 -216 -40 -250 -58c-8 -4 -14 -8 -20 -8s-12 6 -12 14s4 11 14 17c40 22 136 63 268 63c208 0 284 -146 284 -274v-490c0 -104 58 -106 70 -106c10 0 14 -6 14 -14s-4 -14 -18 -14c-12 0 -82 8 -92 98
c-72 -74 -170 -110 -294 -110c-146 0 -294 76 -294 248c0 166 100 294 458 294h128zM666 134v368h-128c-340 0 -430 -116 -430 -266c0 -154 136 -220 266 -220c126 0 226 36 292 118z" />
    <glyph glyph-name="b" unicode="b" horiz-adv-x="920" 
d="M140 92v1269c0 10 5 15 14 15s14 -5 14 -15v-539c74 42 160 76 282 76c238 0 390 -178 390 -452c0 -266 -150 -458 -396 -458c-102 0 -206 28 -288 74c-12 6 -16 14 -16 30zM168 790v-702c84 -46 180 -72 276 -72c230 0 368 182 368 430c0 262 -142 424 -362 424
c-120 0 -216 -38 -282 -80z" />
    <glyph glyph-name="c" unicode="c" horiz-adv-x="860" 
d="M518 898c82 0 163 -26 238 -76c9 -6 11 -10 11 -15c0 -7 -6 -13 -13 -13c-4 0 -7 1 -12 4c-58 38 -130 72 -224 72c-232 0 -410 -182 -410 -424c0 -244 136 -430 368 -430c76 0 154 8 262 64c16 8 23 14 30 14c8 0 14 -6 14 -14c0 -5 -1 -9 -10 -14
c-78 -43 -165 -78 -296 -78c-246 0 -396 192 -396 458c0 256 192 452 438 452z" />
    <glyph glyph-name="d" unicode="d" horiz-adv-x="926" 
d="M754 822v539c0 10 5 15 14 15s14 -5 14 -15v-1225c0 -104 62 -108 70 -108c10 0 14 -6 14 -14s-4 -14 -18 -14c-12 0 -74 10 -90 96c-84 -56 -182 -108 -280 -108c-246 0 -398 190 -398 456c0 256 190 454 440 454c92 0 156 -28 234 -76zM754 126v664
c-76 50 -142 80 -234 80c-236 0 -412 -184 -412 -426c0 -244 138 -428 370 -428c94 0 194 54 276 110z" />
    <glyph glyph-name="e" unicode="e" horiz-adv-x="860" 
d="M470 898c196 0 302 -128 302 -234c0 -208 -248 -252 -662 -254c0 -212 134 -394 348 -394c114 0 234 43 274 62c22 11 29 16 36 16c8 0 14 -6 14 -14c0 -5 -1 -9 -10 -14c-33 -20 -178 -78 -314 -78c-226 0 -378 182 -378 452c0 292 156 458 390 458zM470 870
c-210 0 -362 -146 -362 -432c464 2 636 64 636 226c0 90 -94 206 -274 206z" />
    <glyph glyph-name="f" unicode="f" horiz-adv-x="578" 
d="M180 886v120c0 292 126 360 266 360c50 0 113 -10 153 -25c5 -2 9 -7 9 -13c0 -8 -5 -14 -13 -14c-3 0 -5 1 -12 3c-43 13 -90 21 -137 21c-136 0 -238 -72 -238 -332v-120h309c10 0 15 -5 15 -14s-5 -14 -15 -14h-309v-843c0 -10 -5 -15 -14 -15s-14 5 -14 15v843h-145
c-10 0 -15 5 -15 14s5 14 15 14h145z" />
    <glyph glyph-name="g" unicode="g" horiz-adv-x="910" 
d="M742 6v98c-78 -72 -182 -116 -284 -116c-234 0 -386 180 -386 458c0 266 178 452 424 452c110 0 210 -50 262 -86c8 -6 12 -10 12 -24v-782c0 -368 -244 -442 -420 -442c-142 0 -220 45 -244 59c-10 6 -14 9 -14 17s6 14 13 14c5 0 7 -1 15 -6c22 -14 106 -56 230 -56
c160 0 392 62 392 414zM742 142v648c-76 44 -146 80 -246 80c-230 0 -396 -174 -396 -424c0 -262 140 -430 358 -430c104 0 210 48 284 126z" />
    <glyph glyph-name="h" unicode="h" horiz-adv-x="918" 
d="M750 15v545c0 240 -64 310 -298 310c-102 0 -218 -42 -284 -84v-771c0 -10 -5 -15 -14 -15s-14 5 -14 15v1346c0 10 5 15 14 15s14 -5 14 -15v-543c74 42 182 80 284 80c248 0 326 -84 326 -338v-545c0 -10 -5 -15 -14 -15s-14 5 -14 15z" />
    <glyph glyph-name="i" unicode="i" horiz-adv-x="308" 
d="M140 1199v72c0 10 5 15 14 15s14 -5 14 -15v-72c0 -10 -5 -15 -14 -15s-14 5 -14 15zM140 15v856c0 10 5 15 14 15s14 -5 14 -15v-856c0 -10 -5 -15 -14 -15s-14 5 -14 15z" />
    <glyph glyph-name="j" unicode="j" horiz-adv-x="318" 
d="M150 1199v72c0 10 5 15 14 15s14 -5 14 -15v-72c0 -10 -5 -15 -14 -15s-14 5 -14 15zM150 -162v1033c0 10 5 15 14 15s14 -5 14 -15v-1033c0 -210 -142 -276 -258 -276c-56 0 -94 13 -107 20c-4 2 -7 7 -7 12c0 9 6 14 13 14c4 0 7 -1 12 -3c8 -3 36 -15 89 -15
c104 0 230 60 230 248z" />
    <glyph glyph-name="k" unicode="k" horiz-adv-x="713" 
d="M140 15v1346c0 10 5 15 14 15s14 -5 14 -15v-855l406 374c4 4 7 6 12 6c10 0 15 -8 15 -14s-3 -8 -7 -12l-398 -364c55 -34 272 -208 491 -469c4 -5 6 -8 6 -14c0 -9 -7 -13 -14 -13c-5 0 -8 2 -14 9c-259 308 -461 450 -497 473v-467c0 -10 -5 -15 -14 -15s-14 5 -14 15
z" />
    <glyph glyph-name="l" unicode="l" horiz-adv-x="370" 
d="M168 1361v-1051c0 -102 7 -222 69 -261c24 -15 57 -21 99 -21c9 0 14 -5 14 -14s-5 -14 -14 -14c-148 0 -196 69 -196 310v1051c0 10 5 15 14 15s14 -5 14 -15z" />
    <glyph glyph-name="m" unicode="m" horiz-adv-x="1476" 
d="M1308 15v547c0 240 -86 308 -298 308c-102 0 -230 -36 -302 -78c32 -54 46 -122 46 -230v-547c0 -10 -5 -15 -14 -15s-14 5 -14 15v547c0 238 -72 308 -286 308c-100 0 -208 -40 -272 -82v-773c0 -10 -5 -15 -14 -15s-14 5 -14 15v856c0 10 5 15 14 15s14 -5 14 -15v-53
c72 42 172 80 272 80c124 0 204 -22 252 -82c74 46 214 82 318 82c230 0 326 -80 326 -336v-547c0 -10 -5 -15 -14 -15s-14 5 -14 15z" />
    <glyph glyph-name="n" unicode="n" horiz-adv-x="916" 
d="M748 15v547c0 240 -72 308 -296 308c-102 0 -218 -42 -284 -84v-771c0 -10 -5 -15 -14 -15s-14 5 -14 15v856c0 10 5 15 14 15s14 -5 14 -15v-53c74 42 182 80 284 80c246 0 324 -82 324 -336v-547c0 -10 -5 -15 -14 -15s-14 5 -14 15z" />
    <glyph glyph-name="o" unicode="o" horiz-adv-x="916" 
d="M80 440c0 282 152 458 378 458s378 -176 378 -458s-146 -452 -378 -452c-226 0 -378 178 -378 452zM808 440c0 266 -136 430 -350 430c-210 0 -350 -168 -350 -430c0 -258 136 -424 350 -424c220 0 350 158 350 424z" />
    <glyph glyph-name="p" unicode="p" horiz-adv-x="920" 
d="M168 871v-49c82 50 178 76 276 76c238 0 396 -176 396 -448c0 -262 -192 -462 -438 -462c-92 0 -184 48 -234 80v-535c0 -10 -5 -15 -14 -15s-14 5 -14 15v1338c0 10 5 15 14 15s14 -5 14 -15zM168 790v-688c42 -28 138 -86 234 -86c232 0 410 190 410 434
c0 256 -146 420 -368 420c-98 0 -194 -28 -276 -80z" />
    <glyph glyph-name="q" unicode="q" horiz-adv-x="920" 
d="M752 -467v537c-50 -32 -152 -82 -266 -82c-250 0 -406 200 -406 458c0 272 158 452 396 452c98 0 194 -26 276 -76v49c0 10 5 15 14 15s14 -5 14 -15v-1338c0 -10 -5 -15 -14 -15s-14 5 -14 15zM752 102v688c-82 52 -178 80 -276 80c-222 0 -368 -168 -368 -424
c0 -244 146 -430 378 -430c116 0 225 58 266 86z" />
    <glyph glyph-name="r" unicode="r" horiz-adv-x="614" 
d="M168 871v-243c54 208 202 270 318 270c36 0 74 -6 96 -16c7 -3 12 -8 12 -14c0 -8 -5 -14 -14 -14c-4 0 -10 2 -16 4c-26 8 -48 12 -78 12c-96 0 -318 -46 -318 -464v-391c0 -10 -5 -15 -14 -15s-14 5 -14 15v856c0 10 5 15 14 15s14 -5 14 -15z" />
    <glyph glyph-name="s" unicode="s" horiz-adv-x="738" 
d="M402 898c106 0 190 -40 216 -54c4 -2 10 -6 10 -14s-6 -14 -13 -14c-6 0 -9 2 -17 6c-42 22 -114 48 -196 48c-118 0 -248 -58 -248 -186c0 -220 504 -208 504 -452c0 -140 -120 -244 -284 -244c-158 0 -281 79 -288 84c-4 3 -6 6 -6 12c0 7 5 14 14 14c7 0 11 -4 18 -8
c9 -5 118 -74 262 -74c148 0 256 90 256 216c0 220 -504 208 -504 452c0 146 142 214 276 214z" />
    <glyph glyph-name="t" unicode="t" horiz-adv-x="610" 
d="M154 886v281c0 10 5 15 14 15s14 -5 14 -15v-281h311c10 0 15 -5 15 -14s-5 -14 -15 -14h-311v-544c0 -268 130 -298 260 -298c48 0 91 16 112 24c13 5 17 8 23 8c7 0 13 -6 13 -14c0 -7 -5 -11 -11 -14c-19 -8 -79 -32 -137 -32c-146 0 -288 40 -288 326v544h-141
c-10 0 -15 5 -15 14s5 14 15 14h141z" />
    <glyph glyph-name="u" unicode="u" horiz-adv-x="916" 
d="M168 871v-547c0 -220 40 -310 280 -310c124 0 226 56 300 130v727c0 10 5 15 14 15s14 -5 14 -15v-856c0 -10 -5 -15 -14 -15s-14 5 -14 15v93c-68 -64 -176 -120 -304 -120c-234 0 -304 76 -304 336v547c0 10 5 15 14 15s14 -5 14 -15z" />
    <glyph glyph-name="v" unicode="v" horiz-adv-x="796" 
d="M763 886c11 0 15 -11 11 -22c-2 -6 -5 -15 -10 -28c-50 -144 -230 -650 -320 -810c-10 -18 -22 -26 -46 -26s-36 8 -46 26c-90 160 -270 666 -320 810c-5 13 -8 22 -10 28c-4 11 0 22 11 22c8 0 12 -4 15 -13c7 -20 228 -655 328 -835c4 -6 8 -10 22 -10s18 4 22 10
c100 180 321 815 328 835c3 9 7 13 15 13z" />
    <glyph glyph-name="w" unicode="w" horiz-adv-x="1256" 
d="M1223 886c9 0 13 -6 13 -13c0 -5 -1 -10 -4 -21c-29 -107 -198 -742 -246 -830c-10 -18 -28 -22 -44 -22c-24 0 -36 10 -42 20c-50 90 -246 756 -264 822c-2 8 -4 16 -8 16s-6 -8 -8 -16c-18 -66 -214 -732 -264 -822c-6 -10 -18 -20 -42 -20c-16 0 -34 4 -44 22
c-48 88 -217 723 -246 830c-3 11 -4 16 -4 20c0 8 5 14 14 14c8 0 12 -6 14 -14s196 -746 246 -836c2 -4 8 -8 20 -8s16 4 20 10c42 80 234 718 258 810c6 24 16 38 36 38s30 -14 36 -38c24 -92 216 -730 258 -810c4 -6 8 -10 20 -10s18 4 20 8c50 90 244 828 246 836
s6 14 15 14z" />
    <glyph glyph-name="x" unicode="x" horiz-adv-x="716" 
d="M370 504l266 370c5 7 8 12 17 12c8 0 13 -6 13 -13c0 -5 -2 -9 -6 -14l-272 -377c106 -136 206 -286 302 -454c2 -4 6 -10 6 -16s-5 -12 -14 -12c-5 0 -10 2 -17 15c-91 159 -191 311 -295 443l-320 -446c-5 -7 -8 -12 -17 -12c-8 0 -13 6 -13 13c0 5 2 9 6 14l326 455
c-148 194 -266 330 -312 378c-5 5 -8 8 -8 14s4 12 13 12c5 0 9 -2 15 -8c24 -22 154 -168 310 -374z" />
    <glyph glyph-name="y" unicode="y" horiz-adv-x="764" 
d="M738 852l-286 -790c-156 -432 -268 -504 -390 -504c-50 0 -97 20 -112 30c-4 3 -6 7 -6 12c0 7 5 14 14 14c6 0 12 -4 20 -8c20 -10 48 -20 84 -20c98 0 204 66 338 416c-10 2 -16 6 -22 14c-118 180 -336 792 -352 836c-2 6 -6 15 -6 21c0 7 5 13 14 13
c8 0 12 -6 14 -12c6 -18 238 -666 348 -836c4 -6 8 -10 14 -10l306 844c2 6 5 14 15 14c8 0 13 -5 13 -13c0 -6 -4 -15 -6 -21z" />
    <glyph glyph-name="z" unicode="z" horiz-adv-x="834" 
d="M97 886h599c12 0 20 -8 20 -20c0 -66 -116 -178 -178 -258c0 0 -390 -490 -424 -560c-4 -8 -6 -16 -6 -20h631c10 0 15 -5 15 -14s-5 -14 -15 -14h-639c-12 0 -20 8 -20 20c0 16 4 30 10 42c38 72 258 352 426 564c30 38 168 190 172 232h-591c-10 0 -15 5 -15 14
s5 14 15 14z" />
    <glyph glyph-name="braceleft" unicode="{" horiz-adv-x="648" 
d="M254 410v-394c0 -120 116 -142 192 -142c28 0 40 2 48 2c10 0 14 -6 14 -13c0 -8 -5 -13 -21 -15c-9 -1 -23 -2 -41 -2c-80 0 -220 22 -220 170v394c0 90 -32 120 -54 134c-12 8 -24 8 -24 22s12 14 24 22c22 14 54 44 54 130v398c0 148 140 168 220 168
c18 0 32 -1 41 -2c16 -2 21 -7 21 -15c0 -7 -4 -13 -14 -13c-8 0 -20 2 -48 2c-74 0 -192 -22 -192 -140v-398c0 -96 -36 -134 -64 -152c28 -18 64 -60 64 -156z" />
    <glyph glyph-name="bar" unicode="|" horiz-adv-x="388" 
d="M180 -125v1444c0 10 5 15 14 15s14 -5 14 -15v-1444c0 -10 -5 -15 -14 -15s-14 5 -14 15z" />
    <glyph glyph-name="braceright" unicode="}" horiz-adv-x="648" 
d="M422 410v-394c0 -148 -140 -170 -220 -170c-50 0 -62 6 -62 18c0 8 4 14 14 14c4 0 20 -4 48 -4c76 0 192 22 192 142v394c0 96 36 138 64 156c-28 18 -64 56 -64 152v398c0 118 -118 140 -192 140c-28 0 -40 -2 -48 -2c-10 0 -14 6 -14 14c0 12 12 16 62 16
c80 0 220 -20 220 -168v-398c0 -86 32 -116 54 -130c12 -8 24 -8 24 -22s-12 -14 -24 -22c-22 -14 -54 -44 -54 -134z" />
    <glyph glyph-name="asciitilde" unicode="~" horiz-adv-x="692" 
d="M232 945c40 0 81 -11 122 -27c39 -14 73 -22 105 -22c34 0 66 9 99 30c9 6 15 10 22 10c8 0 12 -6 12 -12c0 -9 -10 -15 -20 -22c-36 -24 -75 -34 -115 -34c-36 0 -73 8 -117 25c-36 13 -73 24 -108 24c-33 0 -65 -10 -98 -31c-9 -6 -15 -10 -22 -10c-8 0 -12 6 -12 12
c0 9 10 15 20 22c37 25 74 35 112 35z" />
    <glyph glyph-name="uni00A0" unicode="&#xa0;" horiz-adv-x="400" 
 />
    <glyph glyph-name="exclamdown" unicode="&#xa1;" horiz-adv-x="388" 
d="M180 830v72c0 8 6 14 14 14s14 -6 14 -14v-72c0 -8 -6 -14 -14 -14s-14 6 -14 14zM180 -354v962c0 8 6 14 14 14s14 -6 14 -14v-962c0 -8 -6 -14 -14 -14s-14 6 -14 14z" />
    <glyph glyph-name="cent" unicode="&#xa2;" horiz-adv-x="1180" 
d="M636 -112v100c-238 0 -396 184 -396 458c0 240 168 428 396 450v106c0 8 6 14 14 14s14 -6 14 -14v-104h14c84 0 166 -28 232 -72c8 -6 16 -12 16 -20c0 -6 -6 -12 -12 -12c-8 0 -16 8 -34 18c-38 22 -108 58 -202 58c-232 0 -410 -182 -410 -424
c0 -214 112 -430 368 -430c86 0 174 22 250 58c20 10 34 20 42 20c6 0 12 -4 12 -12c0 -12 -20 -22 -36 -30c-74 -38 -158 -60 -240 -64v-100c0 -8 -6 -14 -14 -14s-14 6 -14 14z" />
    <glyph glyph-name="sterling" unicode="&#xa3;" horiz-adv-x="1268" 
d="M262 612h138c-6 89 -12 168 -12 194c0 344 136 450 348 450c50 0 115 -10 155 -25c5 -2 9 -7 9 -13c0 -8 -5 -14 -13 -14c-3 0 -5 1 -12 3c-43 13 -92 21 -139 21c-200 0 -320 -98 -320 -422c0 -25 5 -105 12 -194h314c10 0 16 -4 16 -14s-6 -14 -16 -14h-312
c8 -111 16 -227 16 -258c0 -128 -30 -208 -80 -298h646c10 0 16 -4 16 -14s-6 -14 -16 -14h-668c-10 0 -16 8 -16 16c0 6 10 20 22 42c46 82 68 160 68 268c0 44 -8 154 -16 258h-140c-10 0 -16 4 -16 14s6 14 16 14z" />
    <glyph glyph-name="currency" unicode="&#xa4;" horiz-adv-x="1074" 
d="M800 306l66 -68c6 -6 10 -10 10 -16c0 -8 -6 -14 -14 -14c-6 0 -10 4 -14 8l-68 70c-64 -60 -148 -96 -242 -96s-180 36 -244 96l-68 -70c-4 -4 -8 -8 -14 -8c-8 0 -14 6 -14 14c0 6 4 10 10 16l66 68c-58 62 -94 148 -94 242s36 176 94 240l-66 68c-6 6 -10 10 -10 16
c0 8 6 14 14 14c6 0 10 -4 14 -8l68 -70c64 60 150 96 244 96s178 -36 242 -96l68 70c4 4 8 8 14 8c8 0 14 -6 14 -14c0 -6 -4 -10 -10 -16l-66 -68c58 -64 94 -146 94 -240s-36 -180 -94 -242zM866 548c0 182 -146 330 -328 330s-330 -148 -330 -330s148 -330 330 -330
s328 148 328 330z" />
    <glyph glyph-name="yen" unicode="&#xa5;" horiz-adv-x="1262" 
d="M253 554h327c-66 86 -287 537 -356 692c-4 9 -6 14 -6 19c0 7 6 13 14 13c6 0 10 -3 14 -12c6 -14 244 -530 354 -694c8 -12 18 -18 34 -18s26 6 34 18c110 164 348 680 354 694c4 9 8 12 14 12c8 0 14 -6 14 -13c0 -5 -2 -10 -6 -19c-69 -155 -290 -606 -356 -692h327
c10 0 15 -5 15 -14s-5 -14 -15 -14h-367v-156h367c10 0 15 -5 15 -14s-5 -14 -15 -14h-367v-327c0 -10 -5 -15 -14 -15s-14 5 -14 15v327h-367c-10 0 -15 5 -15 14s5 14 15 14h367v156h-367c-10 0 -15 5 -15 14s5 14 15 14z" />
    <glyph glyph-name="brokenbar" unicode="&#xa6;" horiz-adv-x="388" 
d="M180 806v514c0 8 6 14 14 14s14 -6 14 -14v-514c0 -8 -6 -14 -14 -14s-14 6 -14 14zM180 -126v512c0 8 6 14 14 14s14 -6 14 -14v-512c0 -8 -6 -14 -14 -14s-14 6 -14 14z" />
    <glyph glyph-name="section" unicode="&#xa7;" horiz-adv-x="1178" 
d="M638 304l-150 74c-96 48 -208 104 -208 216c0 132 92 231 268 288c-102 50 -222 86 -222 252c0 146 144 214 280 214c128 0 216 -54 232 -64c6 -4 12 -8 12 -16s-5 -14 -13 -14c-7 0 -11 4 -23 10c-36 18 -110 56 -208 56c-120 0 -252 -58 -252 -186
c0 -132 82 -168 174 -212l126 -62c108 -54 244 -118 244 -286c0 -146 -156 -228 -224 -256c94 -46 188 -106 188 -268c0 -140 -120 -244 -284 -244c-158 0 -266 70 -282 80c-6 4 -12 8 -12 16s5 14 13 14c7 0 13 -5 25 -12c34 -20 124 -70 256 -70c148 0 256 90 256 216
c0 162 -98 206 -196 254zM612 850l-28 14c-173 -41 -276 -141 -276 -270c0 -100 114 -154 266 -228l66 -32c145 54 230 143 230 240c0 148 -120 208 -258 276z" />
    <glyph glyph-name="dieresis" unicode="&#xa8;" horiz-adv-x="488" 
d="M100 1103v70c0 10 5 15 14 15s14 -5 14 -15v-70c0 -10 -5 -15 -14 -15s-14 5 -14 15zM360 1103v70c0 10 5 15 14 15s14 -5 14 -15v-70c0 -10 -5 -15 -14 -15s-14 5 -14 15z" />
    <glyph glyph-name="copyright" unicode="&#xa9;" horiz-adv-x="1660" 
d="M830 176c-358 0 -650 292 -650 650s292 650 650 650s650 -292 650 -650s-292 -650 -650 -650zM830 1448c-344 0 -622 -278 -622 -622s278 -622 622 -622s622 278 622 622s-278 622 -622 622zM838 1158c-158 0 -276 -136 -276 -318c0 -184 110 -320 264 -320
c70 0 130 18 178 46c7 4 11 6 16 6s12 -3 12 -13c0 -9 -5 -11 -18 -19c-48 -30 -114 -48 -188 -48c-170 0 -292 148 -292 348c0 198 130 346 304 346c74 0 135 -21 184 -48c13 -7 18 -12 18 -19c0 -9 -6 -13 -12 -13c-5 0 -9 2 -16 6c-48 28 -106 46 -174 46z" />
    <glyph glyph-name="ordfeminine" unicode="&#xaa;" horiz-adv-x="940" 
d="M640 992v94c0 116 -76 184 -184 184c-89 0 -149 -28 -179 -41c-10 -4 -15 -7 -21 -7s-12 4 -12 12c0 6 2 10 10 15c29 18 108 47 202 47c132 0 212 -86 212 -210v-356c0 -68 32 -74 48 -74c10 0 14 -6 14 -14s-5 -14 -14 -14c-12 0 -60 2 -72 68
c-52 -52 -122 -80 -212 -80c-106 0 -222 60 -222 188c0 124 90 188 266 188h164zM640 732v234h-164c-162 0 -238 -54 -238 -162c0 -110 100 -160 194 -160c92 0 160 30 208 88z" />
    <glyph glyph-name="guillemotleft" unicode="&#xab;" horiz-adv-x="756" 
d="M330 112l-200 300c-4 6 -8 12 -8 18s4 12 8 18l200 300c4 6 8 12 18 12c6 0 12 -6 12 -14c0 -4 -4 -10 -8 -16l-204 -300l204 -300c4 -6 8 -12 8 -16c0 -8 -6 -14 -12 -14c-10 0 -14 6 -18 12zM606 112l-200 300c-4 6 -8 12 -8 18s4 12 8 18l200 300c4 6 8 12 18 12
c6 0 12 -6 12 -14c0 -4 -4 -10 -8 -16l-204 -300l204 -300c4 -6 8 -12 8 -16c0 -8 -6 -14 -12 -14c-10 0 -14 6 -18 12z" />
    <glyph glyph-name="logicalnot" unicode="&#xac;" horiz-adv-x="1140" 
d="M964 183v255h-801c-10 0 -15 5 -15 14s5 14 15 14h809c13 0 20 -7 20 -20v-263c0 -10 -5 -15 -14 -15s-14 5 -14 15z" />
    <glyph glyph-name="uni00AD" unicode="&#xad;" horiz-adv-x="872" 
d="M676 438h-480c-10 0 -16 4 -16 14s6 14 16 14h480c10 0 16 -4 16 -14s-6 -14 -16 -14z" />
    <glyph glyph-name="registered" unicode="&#xae;" horiz-adv-x="1660" 
d="M830 176c-358 0 -650 292 -650 650s292 650 650 650s650 -292 650 -650s-292 -650 -650 -650zM830 1448c-344 0 -622 -278 -622 -622s278 -622 622 -622s622 278 622 622s-278 622 -622 622zM644 517v649c0 10 8 18 18 18h166c108 0 188 -72 188 -168
c0 -118 -74 -170 -152 -182c72 -46 132 -150 182 -298c4 -12 6 -18 6 -22c0 -7 -6 -12 -14 -12s-12 4 -14 10c-62 200 -150 318 -236 318h-116v-313c0 -10 -5 -15 -14 -15s-14 5 -14 15zM672 858h156c38 0 160 12 160 158c0 82 -68 140 -160 140h-156v-298z" />
    <glyph glyph-name="macron" unicode="&#xaf;" horiz-adv-x="712" 
d="M597 1088h-482c-10 0 -15 5 -15 15c0 8 5 13 15 13h482c10 0 15 -5 15 -15c0 -8 -5 -13 -15 -13z" />
    <glyph glyph-name="degree" unicode="&#xb0;" horiz-adv-x="818" 
d="M140 876c0 200 104 330 268 330c162 0 270 -132 270 -330c0 -202 -102 -322 -270 -322s-268 120 -268 322zM652 876c0 150 -76 304 -244 304c-180 0 -242 -164 -242 -304c0 -186 90 -296 242 -296s244 110 244 296z" />
    <glyph glyph-name="plusminus" unicode="&#xb1;" horiz-adv-x="1140" 
d="M556 596v393c0 10 5 15 14 15s14 -5 14 -15v-393h393c10 0 15 -5 15 -14s-5 -14 -15 -14h-393v-393c0 -10 -5 -15 -14 -15s-14 5 -14 15v393h-393c-10 0 -15 5 -15 14s5 14 15 14h393zM977 0h-814c-10 0 -15 5 -15 14s5 14 15 14h814c10 0 15 -5 15 -14s-5 -14 -15 -14z
" />
    <glyph glyph-name="twosuperior" unicode="&#xb2;" 
d="M183 640h323c10 0 15 -5 15 -14s-5 -14 -15 -14h-333c-10 0 -18 8 -18 16c0 148 334 326 334 484c0 88 -52 144 -150 144c-71 0 -116 -34 -133 -43c-7 -4 -10 -5 -13 -5c-8 0 -14 6 -14 14c0 4 2 9 10 14c11 7 74 48 150 48c52 0 178 -18 178 -172
c0 -170 -312 -334 -334 -472z" />
    <glyph glyph-name="threesuperior" unicode="&#xb3;" 
d="M323 1284c104 0 186 -54 186 -172c0 -86 -52 -142 -126 -162c76 -24 138 -64 138 -170c0 -104 -96 -174 -198 -174c-100 0 -160 39 -174 48c-6 4 -8 8 -8 13c0 8 6 14 14 14c3 0 5 -1 10 -4c7 -4 70 -43 158 -43c78 0 170 54 170 146c0 134 -128 154 -216 154
c-9 0 -14 5 -14 14s5 14 14 14c86 0 204 23 204 150c0 98 -68 144 -158 144c-65 0 -116 -32 -134 -42c-6 -3 -9 -4 -12 -4c-8 0 -14 6 -14 14c0 5 3 10 13 16c15 8 82 44 147 44z" />
    <glyph glyph-name="acute" unicode="&#xb4;" horiz-adv-x="574" 
d="M118 1120l326 138c5 2 9 4 14 4c6 0 14 -4 14 -14s-6 -13 -18 -18l-326 -138c-5 -2 -9 -4 -14 -4c-6 0 -14 4 -14 14s6 13 18 18z" />
    <glyph glyph-name="mu" unicode="&#xb5;" horiz-adv-x="918" 
d="M750 126v746c0 8 6 14 14 14s14 -6 14 -14v-858c0 -8 -6 -14 -14 -14s-14 6 -14 14v80c-50 -48 -164 -106 -284 -106c-170 0 -276 50 -298 152v-360c0 -8 -6 -14 -14 -14s-14 6 -14 14v1092c0 8 6 14 14 14s14 -6 14 -14v-596c0 -200 102 -260 298 -260
c120 0 226 52 284 110z" />
    <glyph glyph-name="paragraph" unicode="&#xb6;" horiz-adv-x="1104" 
d="M826 -166v1416h-146v-1416c0 -8 -6 -14 -14 -14s-14 6 -14 14v774h-168c-160 0 -344 92 -344 352c0 182 148 318 344 318h466c8 0 14 -6 14 -14s-6 -14 -14 -14h-96v-1416c0 -8 -6 -14 -14 -14s-14 6 -14 14z" />
    <glyph glyph-name="periodcentered" unicode="&#xb7;" horiz-adv-x="348" 
d="M174 554c18 0 34 -16 34 -34s-16 -34 -34 -34s-34 16 -34 34s16 34 34 34z" />
    <glyph glyph-name="cedilla" unicode="&#xb8;" horiz-adv-x="456" 
d="M109 -128l27 124c3 12 7 18 16 18c10 0 14 -6 14 -14c0 -4 -2 -11 -4 -20l-28 -126c22 10 52 20 84 20c70 0 138 -50 138 -144c0 -100 -90 -154 -160 -154c-29 0 -63 7 -75 12c-8 3 -11 8 -11 14c0 8 6 14 14 14c10 0 28 -13 72 -13c52 0 132 41 132 127
c0 80 -58 116 -110 116c-50 0 -86 -26 -100 -26c-10 0 -16 6 -16 16c0 4 2 14 7 36z" />
    <glyph glyph-name="onesuperior" unicode="&#xb9;" horiz-adv-x="448" 
d="M210 629v613l-96 -66c-6 -4 -12 -8 -18 -8s-12 6 -12 14c0 6 4 10 10 14l112 76c6 4 10 6 16 6c10 0 16 -8 16 -18v-631c0 -10 -5 -15 -14 -15s-14 5 -14 15z" />
    <glyph glyph-name="ordmasculine" unicode="&#xba;" horiz-adv-x="984" 
d="M210 952c0 206 114 344 282 344s282 -138 282 -344s-108 -336 -282 -336c-168 0 -282 136 -282 336zM746 952c0 192 -100 316 -254 316c-152 0 -254 -126 -254 -316c0 -188 100 -308 254 -308c160 0 254 114 254 308z" />
    <glyph glyph-name="guillemotright" unicode="&#xbb;" horiz-adv-x="756" 
d="M350 412l-200 -300c-4 -6 -8 -12 -18 -12c-6 0 -12 6 -12 14c0 4 4 10 8 16l204 300l-204 300c-4 6 -8 12 -8 16c0 8 6 14 12 14c10 0 14 -6 18 -12l200 -300c4 -6 8 -12 8 -18s-4 -12 -8 -18zM626 412l-200 -300c-4 -6 -8 -12 -18 -12c-6 0 -12 6 -12 14c0 4 4 10 8 16
l204 300l-204 300c-4 6 -8 12 -8 16c0 8 6 14 12 14c10 0 14 -6 18 -12l200 -300c4 -6 8 -12 8 -18s-4 -12 -8 -18z" />
    <glyph glyph-name="questiondown" unicode="&#xbf;" horiz-adv-x="948" 
d="M533 837v70c0 10 5 15 14 15s14 -5 14 -15v-70c0 -10 -5 -15 -14 -15s-14 5 -14 15zM401 280l-50 -40c-86 -70 -162 -128 -162 -258c0 -190 126 -322 306 -322c138 0 232 64 258 82c12 8 16 12 22 12c8 0 14 -6 14 -14c0 -6 -3 -9 -10 -14c-24 -18 -126 -94 -284 -94
c-198 0 -334 144 -334 350c0 298 372 259 372 643c0 10 5 15 14 15s14 -5 14 -15c-2 -176 -76 -277 -160 -345z" />
    <glyph glyph-name="Agrave" unicode="&#xc0;" horiz-adv-x="1076" 
d="M881 410h-686c-53 -162 -98 -306 -123 -395c-3 -11 -7 -15 -16 -15c-10 0 -15 9 -11 22c57 194 315 1007 433 1222c13 24 32 34 60 34s47 -10 60 -34c118 -215 376 -1028 433 -1222c4 -13 -1 -22 -11 -22c-9 0 -13 4 -16 15c-26 89 -70 234 -123 395zM203 437h669
c-12 37 -24 75 -37 113c-91 274 -196 555 -261 680c-6 12 -16 20 -36 20s-30 -8 -36 -20c-65 -125 -170 -406 -261 -680zM350 1648c0 10 8 14 14 14c5 0 9 -2 14 -4l326 -138c12 -5 18 -8 18 -18s-8 -14 -14 -14c-5 0 -9 2 -14 4l-326 138c-12 5 -18 8 -18 18z" />
    <glyph glyph-name="Aacute" unicode="&#xc1;" horiz-adv-x="1076" 
d="M881 410h-686c-53 -162 -98 -306 -123 -395c-3 -11 -7 -15 -16 -15c-10 0 -15 9 -11 22c57 194 315 1007 433 1222c13 24 32 34 60 34s47 -10 60 -34c118 -215 376 -1028 433 -1222c4 -13 -1 -22 -11 -22c-9 0 -13 4 -16 15c-26 89 -70 234 -123 395zM203 437h669
c-12 37 -24 75 -37 113c-91 274 -196 555 -261 680c-6 12 -16 20 -36 20s-30 -8 -36 -20c-65 -125 -170 -406 -261 -680zM695 1658c5 2 9 4 14 4c6 0 14 -4 14 -14s-6 -13 -18 -18l-326 -138c-5 -2 -9 -4 -14 -4c-6 0 -14 4 -14 14s6 13 18 18z" />
    <glyph glyph-name="Acircumflex" unicode="&#xc2;" horiz-adv-x="1076" 
d="M881 410h-686c-53 -162 -98 -306 -123 -395c-3 -11 -7 -15 -16 -15c-10 0 -15 9 -11 22c57 194 315 1007 433 1222c13 24 32 34 60 34s47 -10 60 -34c118 -215 376 -1028 433 -1222c4 -13 -1 -22 -11 -22c-9 0 -13 4 -16 15c-26 89 -70 234 -123 395zM203 437h669
c-12 37 -24 75 -37 113c-91 274 -196 555 -261 680c-6 12 -16 20 -36 20s-30 -8 -36 -20c-65 -125 -170 -406 -261 -680zM518 1637c8 4 12 5 17 5s9 -1 17 -5l241 -123c13 -7 18 -9 18 -18s-6 -15 -15 -15c-6 0 -8 2 -20 8l-241 125l-241 -125c-12 -6 -14 -8 -20 -8
c-9 0 -15 6 -15 15s5 11 18 18z" />
    <glyph glyph-name="Atilde" unicode="&#xc3;" horiz-adv-x="1076" 
d="M881 410h-686c-53 -162 -98 -306 -123 -395c-3 -11 -7 -15 -16 -15c-10 0 -15 9 -11 22c57 194 315 1007 433 1222c13 24 32 34 60 34s47 -10 60 -34c118 -215 376 -1028 433 -1222c4 -13 -1 -22 -11 -22c-9 0 -13 4 -16 15c-26 89 -70 234 -123 395zM203 437h669
c-12 37 -24 75 -37 113c-91 274 -196 555 -261 680c-6 12 -16 20 -36 20s-30 -8 -36 -20c-65 -125 -170 -406 -261 -680zM310 1530c37 25 74 35 112 35c40 0 81 -11 122 -27c39 -14 73 -22 105 -22c34 0 66 9 99 30c9 6 15 10 22 10c8 0 12 -6 12 -12c0 -9 -10 -15 -20 -22
c-36 -24 -75 -34 -115 -34c-36 0 -73 8 -117 25c-36 13 -73 24 -108 24c-33 0 -65 -10 -98 -31c-9 -6 -15 -10 -22 -10c-8 0 -12 6 -12 12c0 9 10 15 20 22z" />
    <glyph glyph-name="Adieresis" unicode="&#xc4;" horiz-adv-x="1076" 
d="M881 410h-686c-53 -162 -98 -306 -123 -395c-3 -11 -7 -15 -16 -15c-10 0 -15 9 -11 22c57 194 315 1007 433 1222c13 24 32 34 60 34s47 -10 60 -34c118 -215 376 -1028 433 -1222c4 -13 -1 -22 -11 -22c-9 0 -13 4 -16 15c-26 89 -70 234 -123 395zM203 437h669
c-12 37 -24 75 -37 113c-91 274 -196 555 -261 680c-6 12 -16 20 -36 20s-30 -8 -36 -20c-65 -125 -170 -406 -261 -680zM392 1503v70c0 10 5 15 14 15s14 -5 14 -15v-70c0 -10 -5 -15 -14 -15s-14 5 -14 15zM652 1503v70c0 10 5 15 14 15s14 -5 14 -15v-70
c0 -10 -5 -15 -14 -15s-14 5 -14 15z" />
    <glyph glyph-name="Aring" unicode="&#xc5;" horiz-adv-x="1076" 
d="M881 410h-686c-53 -162 -98 -306 -123 -395c-3 -11 -7 -15 -16 -15c-10 0 -15 9 -11 22c57 194 315 1007 433 1222c13 24 32 34 60 34s47 -10 60 -34c118 -215 376 -1028 433 -1222c4 -13 -1 -22 -11 -22c-9 0 -13 4 -16 15c-26 89 -70 234 -123 395zM203 437h669
c-12 37 -24 75 -37 113c-91 274 -196 555 -261 680c-6 12 -16 20 -36 20s-30 -8 -36 -20c-65 -125 -170 -406 -261 -680zM405 1618c0 72 58 130 130 130s130 -58 130 -130s-58 -130 -130 -130s-130 58 -130 130zM637 1618c0 56 -46 102 -102 102s-102 -46 -102 -102
s46 -102 102 -102s102 46 102 102z" />
    <glyph glyph-name="AE" unicode="&#xc6;" horiz-adv-x="1546" 
d="M236 358l-170 -350c-3 -6 -8 -8 -13 -8c-9 0 -12 6 -12 12s2 9 8 22c72 155 462 972 605 1210c14 24 38 34 70 34h659c10 0 15 -5 15 -14s-5 -14 -15 -14h-587c40 -170 66 -370 86 -562h463c10 0 15 -5 15 -14s-5 -14 -15 -14h-459c28 -292 38 -552 40 -624v-8h495
c10 0 15 -5 15 -14s-5 -14 -15 -14h-499c-16 0 -24 8 -24 24c0 102 -18 414 -40 636c-250 -4 -512 -76 -622 -302zM768 1250h-44c-24 0 -40 -8 -50 -24c-66 -112 -206 -394 -372 -730c132 128 318 186 554 192c-20 192 -48 392 -88 562z" />
    <glyph glyph-name="Ccedilla" unicode="&#xc7;" horiz-adv-x="1144" 
d="M534 -126l26 121c-271 45 -460 302 -460 643c0 370 244 652 568 652c210 0 324 -74 364 -102c8 -6 12 -11 12 -18s-5 -12 -12 -12c-6 0 -10 2 -18 8c-38 28 -144 96 -346 96c-308 0 -540 -270 -540 -624c0 -360 218 -622 518 -622c134 0 240 28 352 90c8 4 11 6 18 6
c6 0 12 -4 12 -12s-6 -12 -16 -18c-116 -64 -228 -94 -366 -94c-19 0 -38 1 -57 3l-31 -137c22 10 52 20 84 20c70 0 138 -50 138 -144c0 -100 -90 -154 -160 -154c-36 0 -62 6 -76 13c-8 4 -9 9 -9 13c0 7 5 14 13 14c10 0 28 -12 72 -12c52 0 132 40 132 126
c0 80 -58 116 -110 116c-50 0 -86 -26 -100 -26c-10 0 -16 6 -16 16c0 4 4 20 8 38z" />
    <glyph glyph-name="Egrave" unicode="&#xc8;" horiz-adv-x="924" 
d="M799 0h-595c-16 0 -24 8 -24 24v1230c0 16 8 24 24 24h557c10 0 15 -5 15 -14s-5 -14 -15 -14h-553v-562h515c10 0 15 -5 15 -14s-5 -14 -15 -14h-515v-632h591c10 0 15 -5 15 -14s-5 -14 -15 -14zM276 1648c0 10 8 14 14 14c5 0 9 -2 14 -4l326 -138c12 -5 18 -8 18 -18
s-8 -14 -14 -14c-5 0 -9 2 -14 4l-326 138c-12 5 -18 8 -18 18z" />
    <glyph glyph-name="Eacute" unicode="&#xc9;" horiz-adv-x="924" 
d="M799 0h-595c-16 0 -24 8 -24 24v1230c0 16 8 24 24 24h557c10 0 15 -5 15 -14s-5 -14 -15 -14h-553v-562h515c10 0 15 -5 15 -14s-5 -14 -15 -14h-515v-632h591c10 0 15 -5 15 -14s-5 -14 -15 -14zM621 1658c5 2 9 4 14 4c6 0 14 -4 14 -14s-6 -13 -18 -18l-326 -138
c-5 -2 -9 -4 -14 -4c-6 0 -14 4 -14 14s6 13 18 18z" />
    <glyph glyph-name="Ecircumflex" unicode="&#xca;" horiz-adv-x="924" 
d="M799 0h-595c-16 0 -24 8 -24 24v1230c0 16 8 24 24 24h557c10 0 15 -5 15 -14s-5 -14 -15 -14h-553v-562h515c10 0 15 -5 15 -14s-5 -14 -15 -14h-515v-632h591c10 0 15 -5 15 -14s-5 -14 -15 -14zM444 1637c8 4 12 5 17 5s9 -1 17 -5l241 -123c13 -7 18 -9 18 -18
s-6 -15 -15 -15c-6 0 -8 2 -20 8l-241 125l-241 -125c-12 -6 -14 -8 -20 -8c-9 0 -15 6 -15 15s5 11 18 18z" />
    <glyph glyph-name="Edieresis" unicode="&#xcb;" horiz-adv-x="924" 
d="M799 0h-595c-16 0 -24 8 -24 24v1230c0 16 8 24 24 24h557c10 0 15 -5 15 -14s-5 -14 -15 -14h-553v-562h515c10 0 15 -5 15 -14s-5 -14 -15 -14h-515v-632h591c10 0 15 -5 15 -14s-5 -14 -15 -14zM318 1503v70c0 10 5 15 14 15s14 -5 14 -15v-70c0 -10 -5 -15 -14 -15
s-14 5 -14 15zM578 1503v70c0 10 5 15 14 15s14 -5 14 -15v-70c0 -10 -5 -15 -14 -15s-14 5 -14 15z" />
    <glyph glyph-name="Igrave" unicode="&#xcc;" horiz-adv-x="388" 
d="M180 15v1248c0 10 5 15 14 15s14 -5 14 -15v-1248c0 -10 -5 -15 -14 -15s-14 5 -14 15zM8 1648c0 10 8 14 14 14c5 0 9 -2 14 -4l326 -138c12 -5 18 -8 18 -18s-8 -14 -14 -14c-5 0 -9 2 -14 4l-326 138c-12 5 -18 8 -18 18z" />
    <glyph glyph-name="Iacute" unicode="&#xcd;" horiz-adv-x="388" 
d="M180 15v1248c0 10 5 15 14 15s14 -5 14 -15v-1248c0 -10 -5 -15 -14 -15s-14 5 -14 15zM353 1658c5 2 9 4 14 4c6 0 14 -4 14 -14s-6 -13 -18 -18l-326 -138c-5 -2 -9 -4 -14 -4c-6 0 -14 4 -14 14s6 13 18 18z" />
    <glyph glyph-name="Icircumflex" unicode="&#xce;" horiz-adv-x="388" 
d="M180 15v1248c0 10 5 15 14 15s14 -5 14 -15v-1248c0 -10 -5 -15 -14 -15s-14 5 -14 15zM176 1637c8 4 12 5 17 5s9 -1 17 -5l241 -123c13 -7 18 -9 18 -18s-6 -15 -15 -15c-6 0 -8 2 -20 8l-241 125l-241 -125c-12 -6 -14 -8 -20 -8c-9 0 -15 6 -15 15s5 11 18 18z" />
    <glyph glyph-name="Idieresis" unicode="&#xcf;" horiz-adv-x="388" 
d="M180 15v1248c0 10 5 15 14 15s14 -5 14 -15v-1248c0 -10 -5 -15 -14 -15s-14 5 -14 15zM50 1503v70c0 10 5 15 14 15s14 -5 14 -15v-70c0 -10 -5 -15 -14 -15s-14 5 -14 15zM310 1503v70c0 10 5 15 14 15s14 -5 14 -15v-70c0 -10 -5 -15 -14 -15s-14 5 -14 15z" />
    <glyph glyph-name="Eth" unicode="&#xd0;" horiz-adv-x="1268" 
d="M596 0h-352c-16 0 -24 8 -24 24v624h-170c-8 0 -14 6 -14 14s6 14 14 14h170v578c0 16 8 24 24 24h352c360 0 572 -272 572 -644s-208 -634 -572 -634zM248 28h348c348 0 544 248 544 606s-200 616 -544 616h-348v-574h396c8 0 14 -6 14 -14s-6 -14 -14 -14h-396v-620z
" />
    <glyph glyph-name="Ntilde" unicode="&#xd1;" horiz-adv-x="1166" 
d="M986 1263v-1235c0 -20 -8 -28 -28 -28c-34 0 -54 14 -82 56c-76 114 -194 338 -308 586c-78 168 -226 452 -302 564c-18 26 -30 44 -58 44v-1235c0 -10 -5 -15 -14 -15s-14 5 -14 15v1235c0 20 8 28 28 28c34 0 54 -14 82 -56c76 -114 222 -394 304 -568
c112 -240 222 -462 306 -582c18 -26 30 -44 58 -44v1235c0 10 5 15 14 15s14 -5 14 -15zM357 1530c37 25 74 35 112 35c40 0 81 -11 122 -27c39 -14 73 -22 105 -22c34 0 66 9 99 30c9 6 15 10 22 10c8 0 12 -6 12 -12c0 -9 -10 -15 -20 -22c-36 -24 -75 -34 -115 -34
c-36 0 -73 8 -117 25c-36 13 -73 24 -108 24c-33 0 -65 -10 -98 -31c-9 -6 -15 -10 -22 -10c-8 0 -12 6 -12 12c0 9 10 15 20 22z" />
    <glyph glyph-name="Ograve" unicode="&#xd2;" horiz-adv-x="1262" 
d="M100 636c0 378 222 654 532 654c308 0 530 -276 530 -654c0 -372 -222 -648 -530 -648c-310 0 -532 276 -532 648zM1134 636c0 360 -210 626 -502 626c-294 0 -504 -266 -504 -626c0 -354 210 -620 504 -620c292 0 502 266 502 620zM445 1648c0 10 8 14 14 14
c5 0 9 -2 14 -4l326 -138c12 -5 18 -8 18 -18s-8 -14 -14 -14c-5 0 -9 2 -14 4l-326 138c-12 5 -18 8 -18 18z" />
    <glyph glyph-name="Oacute" unicode="&#xd3;" horiz-adv-x="1262" 
d="M100 636c0 378 222 654 532 654c308 0 530 -276 530 -654c0 -372 -222 -648 -530 -648c-310 0 -532 276 -532 648zM1134 636c0 360 -210 626 -502 626c-294 0 -504 -266 -504 -626c0 -354 210 -620 504 -620c292 0 502 266 502 620zM790 1658c5 2 9 4 14 4
c6 0 14 -4 14 -14s-6 -13 -18 -18l-326 -138c-5 -2 -9 -4 -14 -4c-6 0 -14 4 -14 14s6 13 18 18z" />
    <glyph glyph-name="Ocircumflex" unicode="&#xd4;" horiz-adv-x="1262" 
d="M100 636c0 378 222 654 532 654c308 0 530 -276 530 -654c0 -372 -222 -648 -530 -648c-310 0 -532 276 -532 648zM1134 636c0 360 -210 626 -502 626c-294 0 -504 -266 -504 -626c0 -354 210 -620 504 -620c292 0 502 266 502 620zM613 1637c8 4 12 5 17 5s9 -1 17 -5
l241 -123c13 -7 18 -9 18 -18s-6 -15 -15 -15c-6 0 -8 2 -20 8l-241 125l-241 -125c-12 -6 -14 -8 -20 -8c-9 0 -15 6 -15 15s5 11 18 18z" />
    <glyph glyph-name="Otilde" unicode="&#xd5;" horiz-adv-x="1262" 
d="M100 636c0 378 222 654 532 654c308 0 530 -276 530 -654c0 -372 -222 -648 -530 -648c-310 0 -532 276 -532 648zM1134 636c0 360 -210 626 -502 626c-294 0 -504 -266 -504 -626c0 -354 210 -620 504 -620c292 0 502 266 502 620zM405 1530c37 25 74 35 112 35
c40 0 81 -11 122 -27c39 -14 73 -22 105 -22c34 0 66 9 99 30c9 6 15 10 22 10c8 0 12 -6 12 -12c0 -9 -10 -15 -20 -22c-36 -24 -75 -34 -115 -34c-36 0 -73 8 -117 25c-36 13 -73 24 -108 24c-33 0 -65 -10 -98 -31c-9 -6 -15 -10 -22 -10c-8 0 -12 6 -12 12
c0 9 10 15 20 22z" />
    <glyph glyph-name="Odieresis" unicode="&#xd6;" horiz-adv-x="1262" 
d="M100 636c0 378 222 654 532 654c308 0 530 -276 530 -654c0 -372 -222 -648 -530 -648c-310 0 -532 276 -532 648zM1134 636c0 360 -210 626 -502 626c-294 0 -504 -266 -504 -626c0 -354 210 -620 504 -620c292 0 502 266 502 620zM487 1503v70c0 10 5 15 14 15
s14 -5 14 -15v-70c0 -10 -5 -15 -14 -15s-14 5 -14 15zM747 1503v70c0 10 5 15 14 15s14 -5 14 -15v-70c0 -10 -5 -15 -14 -15s-14 5 -14 15z" />
    <glyph glyph-name="multiply" unicode="&#xd7;" horiz-adv-x="1140" 
d="M569 480l338 339c8 8 12 10 18 10c8 0 14 -6 14 -14c0 -7 -6 -12 -13 -19l-336 -337l336 -338c7 -7 13 -12 13 -19c0 -8 -6 -14 -14 -14c-6 0 -10 2 -18 10l-338 339l-337 -339c-8 -8 -12 -10 -18 -10c-8 0 -14 6 -14 14c0 7 6 12 13 19l336 338l-336 337
c-7 7 -13 12 -13 19c0 8 6 14 14 14c6 0 10 -2 18 -10z" />
    <glyph glyph-name="Oslash" unicode="&#xd8;" horiz-adv-x="1264" 
d="M316 110l-60 -98c-6 -9 -8 -12 -14 -12c-9 0 -16 7 -16 13c0 4 3 8 6 13l63 102c-119 116 -195 300 -195 510c0 370 230 652 532 652c120 0 228 -46 314 -120l60 96c6 9 8 12 14 12c9 0 16 -7 16 -13c0 -4 -3 -8 -6 -13l-64 -100c122 -116 196 -298 196 -514
c0 -376 -222 -650 -530 -650c-120 0 -228 46 -316 122zM310 152l622 994c-82 72 -184 116 -300 116c-288 0 -504 -270 -504 -624c0 -200 70 -374 182 -486zM952 1128l-622 -994c82 -74 186 -118 302 -118c292 0 502 262 502 622c0 206 -68 380 -182 490z" />
    <glyph glyph-name="Ugrave" unicode="&#xd9;" horiz-adv-x="1132" 
d="M944 402v861c0 10 5 15 14 15s14 -5 14 -15v-865c0 -220 -136 -410 -406 -410s-406 190 -406 410v865c0 10 5 15 14 15s14 -5 14 -15v-861c0 -216 130 -386 378 -386s378 170 378 386zM380 1648c0 10 8 14 14 14c5 0 9 -2 14 -4l326 -138c12 -5 18 -8 18 -18
s-8 -14 -14 -14c-5 0 -9 2 -14 4l-326 138c-12 5 -18 8 -18 18z" />
    <glyph glyph-name="Uacute" unicode="&#xda;" horiz-adv-x="1132" 
d="M944 402v861c0 10 5 15 14 15s14 -5 14 -15v-865c0 -220 -136 -410 -406 -410s-406 190 -406 410v865c0 10 5 15 14 15s14 -5 14 -15v-861c0 -216 130 -386 378 -386s378 170 378 386zM725 1658c5 2 9 4 14 4c6 0 14 -4 14 -14s-6 -13 -18 -18l-326 -138
c-5 -2 -9 -4 -14 -4c-6 0 -14 4 -14 14s6 13 18 18z" />
    <glyph glyph-name="Ucircumflex" unicode="&#xdb;" horiz-adv-x="1132" 
d="M944 402v861c0 10 5 15 14 15s14 -5 14 -15v-865c0 -220 -136 -410 -406 -410s-406 190 -406 410v865c0 10 5 15 14 15s14 -5 14 -15v-861c0 -216 130 -386 378 -386s378 170 378 386zM548 1637c8 4 12 5 17 5s9 -1 17 -5l241 -123c13 -7 18 -9 18 -18s-6 -15 -15 -15
c-6 0 -8 2 -20 8l-241 125l-241 -125c-12 -6 -14 -8 -20 -8c-9 0 -15 6 -15 15s5 11 18 18z" />
    <glyph glyph-name="Udieresis" unicode="&#xdc;" horiz-adv-x="1132" 
d="M944 402v861c0 10 5 15 14 15s14 -5 14 -15v-865c0 -220 -136 -410 -406 -410s-406 190 -406 410v865c0 10 5 15 14 15s14 -5 14 -15v-861c0 -216 130 -386 378 -386s378 170 378 386zM422 1503v70c0 10 5 15 14 15s14 -5 14 -15v-70c0 -10 -5 -15 -14 -15s-14 5 -14 15z
M682 1503v70c0 10 5 15 14 15s14 -5 14 -15v-70c0 -10 -5 -15 -14 -15s-14 5 -14 15z" />
    <glyph glyph-name="Yacute" unicode="&#xdd;" horiz-adv-x="912" 
d="M442 15v513c-16 2 -28 10 -44 32c-66 86 -282 532 -352 686c-4 9 -7 15 -7 19c0 8 7 13 14 13c8 0 11 -3 15 -12c6 -14 244 -530 354 -694c8 -12 18 -18 34 -18s26 6 34 18c110 164 348 680 354 694c4 9 7 12 15 12c7 0 14 -5 14 -13c0 -4 -3 -10 -7 -19
c-70 -154 -286 -600 -352 -686c-16 -22 -28 -30 -44 -32v-513c0 -10 -5 -15 -14 -15s-14 5 -14 15zM615 1658c5 2 9 4 14 4c6 0 14 -4 14 -14s-6 -13 -18 -18l-326 -138c-5 -2 -9 -4 -14 -4c-6 0 -14 4 -14 14s6 13 18 18z" />
    <glyph glyph-name="Thorn" unicode="&#xde;" horiz-adv-x="948" 
d="M484 278h-276v-263c0 -10 -5 -15 -14 -15s-14 5 -14 15v1200c0 10 5 15 14 15s14 -5 14 -15v-219h276c224 0 386 -152 386 -362s-160 -356 -386 -356zM208 306h276c210 0 358 134 358 328s-150 334 -358 334h-276v-662z" />
    <glyph glyph-name="germandbls" unicode="&#xdf;" horiz-adv-x="930" 
d="M140 15v983c0 258 158 348 292 348c152 0 306 -86 306 -290c0 -212 -216 -272 -216 -382c0 -108 328 -162 328 -438c0 -172 -128 -272 -328 -272c-100 0 -172 39 -200 58c-10 8 -14 10 -14 18s6 14 13 14c5 0 7 -1 15 -6c26 -18 94 -56 186 -56c186 0 300 90 300 244
c0 262 -328 304 -328 438c0 132 216 180 216 382c0 194 -148 262 -278 262c-122 0 -264 -82 -264 -320v-983c0 -10 -5 -15 -14 -15s-14 5 -14 15z" />
    <glyph glyph-name="agrave" unicode="&#xe0;" horiz-adv-x="838" 
d="M666 530v94c0 112 -66 246 -256 246c-126 0 -216 -40 -250 -58c-8 -4 -14 -8 -20 -8s-12 6 -12 14s4 11 14 17c40 22 136 63 268 63c208 0 284 -146 284 -274v-490c0 -104 58 -106 70 -106c10 0 14 -6 14 -14s-4 -14 -18 -14c-12 0 -82 8 -92 98
c-72 -74 -170 -110 -294 -110c-146 0 -294 76 -294 248c0 166 100 294 458 294h128zM666 134v368h-128c-340 0 -430 -116 -430 -266c0 -154 136 -220 266 -220c126 0 226 36 292 118zM577 1092l-326 138c-12 5 -18 8 -18 18s8 14 14 14c5 0 9 -2 14 -4l326 -138
c12 -5 18 -8 18 -18s-8 -14 -14 -14c-5 0 -9 2 -14 4z" />
    <glyph glyph-name="aacute" unicode="&#xe1;" horiz-adv-x="838" 
d="M666 530v94c0 112 -66 246 -256 246c-126 0 -216 -40 -250 -58c-8 -4 -14 -8 -20 -8s-12 6 -12 14s4 11 14 17c40 22 136 63 268 63c208 0 284 -146 284 -274v-490c0 -104 58 -106 70 -106c10 0 14 -6 14 -14s-4 -14 -18 -14c-12 0 -82 8 -92 98
c-72 -74 -170 -110 -294 -110c-146 0 -294 76 -294 248c0 166 100 294 458 294h128zM666 134v368h-128c-340 0 -430 -116 -430 -266c0 -154 136 -220 266 -220c126 0 226 36 292 118zM251 1120l326 138c5 2 9 4 14 4c6 0 14 -4 14 -14s-6 -13 -18 -18l-326 -138
c-5 -2 -9 -4 -14 -4c-6 0 -14 4 -14 14s6 13 18 18z" />
    <glyph glyph-name="acircumflex" unicode="&#xe2;" horiz-adv-x="838" 
d="M666 530v94c0 112 -66 246 -256 246c-126 0 -216 -40 -250 -58c-8 -4 -14 -8 -20 -8s-12 6 -12 14s4 11 14 17c40 22 136 63 268 63c208 0 284 -146 284 -274v-490c0 -104 58 -106 70 -106c10 0 14 -6 14 -14s-4 -14 -18 -14c-12 0 -82 8 -92 98
c-72 -74 -170 -110 -294 -110c-146 0 -294 76 -294 248c0 166 100 294 458 294h128zM666 134v368h-128c-340 0 -430 -116 -430 -266c0 -154 136 -220 266 -220c126 0 226 36 292 118zM160 1122l241 123c8 4 12 5 17 5s9 -1 17 -5l241 -123c12 -7 17 -9 17 -18
s-6 -15 -14 -15c-6 0 -9 2 -20 8l-241 125l-241 -125c-11 -6 -14 -8 -20 -8c-8 0 -14 6 -14 15s5 11 17 18z" />
    <glyph glyph-name="atilde" unicode="&#xe3;" horiz-adv-x="838" 
d="M666 530v94c0 112 -66 246 -256 246c-126 0 -216 -40 -250 -58c-8 -4 -14 -8 -20 -8s-12 6 -12 14s4 11 14 17c40 22 136 63 268 63c208 0 284 -146 284 -274v-490c0 -104 58 -106 70 -106c10 0 14 -6 14 -14s-4 -14 -18 -14c-12 0 -82 8 -92 98
c-72 -74 -170 -110 -294 -110c-146 0 -294 76 -294 248c0 166 100 294 458 294h128zM666 134v368h-128c-340 0 -430 -116 -430 -266c0 -154 136 -220 266 -220c126 0 226 36 292 118zM305 1165c40 0 81 -11 122 -27c39 -14 73 -22 105 -22c34 0 66 9 99 30c9 6 15 10 22 10
c8 0 12 -6 12 -12c0 -9 -10 -15 -20 -22c-36 -24 -75 -34 -115 -34c-36 0 -73 8 -117 25c-36 13 -73 24 -108 24c-33 0 -65 -10 -98 -31c-9 -6 -15 -10 -22 -10c-8 0 -12 6 -12 12c0 9 10 15 20 22c37 25 74 35 112 35z" />
    <glyph glyph-name="adieresis" unicode="&#xe4;" horiz-adv-x="838" 
d="M666 530v94c0 112 -66 246 -256 246c-126 0 -216 -40 -250 -58c-8 -4 -14 -8 -20 -8s-12 6 -12 14s4 11 14 17c40 22 136 63 268 63c208 0 284 -146 284 -274v-490c0 -104 58 -106 70 -106c10 0 14 -6 14 -14s-4 -14 -18 -14c-12 0 -82 8 -92 98
c-72 -74 -170 -110 -294 -110c-146 0 -294 76 -294 248c0 166 100 294 458 294h128zM666 134v368h-128c-340 0 -430 -116 -430 -266c0 -154 136 -220 266 -220c126 0 226 36 292 118zM275 1103v70c0 10 5 15 14 15s14 -5 14 -15v-70c0 -10 -5 -15 -14 -15s-14 5 -14 15z
M535 1103v70c0 10 5 15 14 15s14 -5 14 -15v-70c0 -10 -5 -15 -14 -15s-14 5 -14 15z" />
    <glyph glyph-name="aring" unicode="&#xe5;" horiz-adv-x="838" 
d="M666 530v94c0 112 -66 246 -256 246c-126 0 -216 -40 -250 -58c-8 -4 -14 -8 -20 -8s-12 6 -12 14s4 11 14 17c40 22 136 63 268 63c208 0 284 -146 284 -274v-490c0 -104 58 -106 70 -106c10 0 14 -6 14 -14s-4 -14 -18 -14c-12 0 -82 8 -92 98
c-72 -74 -170 -110 -294 -110c-146 0 -294 76 -294 248c0 166 100 294 458 294h128zM666 134v368h-128c-340 0 -430 -116 -430 -266c0 -154 136 -220 266 -220c126 0 226 36 292 118zM288 1218c0 72 58 130 130 130s130 -58 130 -130s-58 -130 -130 -130s-130 58 -130 130z
M418 1320c-56 0 -102 -46 -102 -102s46 -102 102 -102s102 46 102 102s-46 102 -102 102z" />
    <glyph glyph-name="ae" unicode="&#xe6;" horiz-adv-x="1396" 
d="M666 490v134c0 110 -68 246 -256 246c-126 0 -216 -40 -250 -58c-8 -4 -14 -8 -20 -8s-12 6 -12 12c0 8 4 12 14 18c38 22 136 64 268 64c162 0 244 -90 272 -190c42 100 156 190 326 190c196 0 302 -128 302 -234c0 -188 -206 -202 -616 -202v-328
c66 -82 166 -118 302 -118c122 0 234 46 280 66c14 6 24 12 30 12s12 -4 12 -12c0 -10 -10 -16 -28 -24c-48 -22 -168 -70 -294 -70c-134 0 -248 38 -316 120c-70 -80 -174 -120 -306 -120c-142 0 -294 76 -294 248c0 166 102 254 458 254h128zM694 624v-134
c464 2 588 32 588 174c0 90 -94 206 -274 206c-202 0 -314 -136 -314 -246zM666 134v328h-128c-340 0 -430 -76 -430 -226c0 -154 136 -220 266 -220c126 0 226 36 292 118z" />
    <glyph glyph-name="ccedilla" unicode="&#xe7;" horiz-adv-x="860" 
d="M400 -126l24 118c-216 24 -344 206 -344 454c0 256 192 452 438 452c84 0 166 -28 232 -72c8 -6 16 -12 16 -20c0 -6 -6 -12 -12 -12c-8 0 -16 8 -34 18c-38 22 -108 58 -202 58c-232 0 -410 -182 -410 -424c0 -244 136 -430 368 -430c86 0 174 22 250 58
c20 10 34 20 42 20c6 0 12 -4 12 -12c0 -12 -20 -22 -36 -30c-82 -42 -176 -64 -268 -64h-22l-30 -134c22 10 52 20 84 20c70 0 138 -50 138 -144c0 -100 -90 -154 -160 -154c-54 0 -86 14 -86 26c0 8 6 14 14 14c10 0 28 -12 72 -12c52 0 132 40 132 126
c0 80 -58 116 -110 116c-50 0 -86 -26 -100 -26c-10 0 -16 6 -16 16c0 4 2 14 8 38z" />
    <glyph glyph-name="egrave" unicode="&#xe8;" horiz-adv-x="860" 
d="M470 898c196 0 302 -128 302 -234c0 -208 -248 -252 -662 -254c0 -212 134 -394 348 -394c114 0 234 43 274 62c22 11 29 16 36 16c8 0 14 -6 14 -14c0 -5 -1 -9 -10 -14c-33 -20 -178 -78 -314 -78c-226 0 -378 182 -378 452c0 292 156 458 390 458zM470 870
c-210 0 -362 -146 -362 -432c464 2 636 64 636 226c0 90 -94 206 -274 206zM627 1092l-326 138c-12 5 -18 8 -18 18s8 14 14 14c5 0 9 -2 14 -4l326 -138c12 -5 18 -8 18 -18s-8 -14 -14 -14c-5 0 -9 2 -14 4z" />
    <glyph glyph-name="eacute" unicode="&#xe9;" horiz-adv-x="860" 
d="M470 898c196 0 302 -128 302 -234c0 -208 -248 -252 -662 -254c0 -212 134 -394 348 -394c114 0 234 43 274 62c22 11 29 16 36 16c8 0 14 -6 14 -14c0 -5 -1 -9 -10 -14c-33 -20 -178 -78 -314 -78c-226 0 -378 182 -378 452c0 292 156 458 390 458zM470 870
c-210 0 -362 -146 -362 -432c464 2 636 64 636 226c0 90 -94 206 -274 206zM301 1120l326 138c5 2 9 4 14 4c6 0 14 -4 14 -14s-6 -13 -18 -18l-326 -138c-5 -2 -9 -4 -14 -4c-6 0 -14 4 -14 14s6 13 18 18z" />
    <glyph glyph-name="ecircumflex" unicode="&#xea;" horiz-adv-x="860" 
d="M470 898c196 0 302 -128 302 -234c0 -208 -248 -252 -662 -254c0 -212 134 -394 348 -394c114 0 234 43 274 62c22 11 29 16 36 16c8 0 14 -6 14 -14c0 -5 -1 -9 -10 -14c-33 -20 -178 -78 -314 -78c-226 0 -378 182 -378 452c0 292 156 458 390 458zM470 870
c-210 0 -362 -146 -362 -432c464 2 636 64 636 226c0 90 -94 206 -274 206zM210 1122l241 123c8 4 12 5 17 5s9 -1 17 -5l241 -123c12 -7 17 -9 17 -18s-6 -15 -14 -15c-6 0 -9 2 -20 8l-241 125l-241 -125c-11 -6 -14 -8 -20 -8c-8 0 -14 6 -14 15s5 11 17 18z" />
    <glyph glyph-name="edieresis" unicode="&#xeb;" horiz-adv-x="860" 
d="M470 898c196 0 302 -128 302 -234c0 -208 -248 -252 -662 -254c0 -212 134 -394 348 -394c114 0 234 43 274 62c22 11 29 16 36 16c8 0 14 -6 14 -14c0 -5 -1 -9 -10 -14c-33 -20 -178 -78 -314 -78c-226 0 -378 182 -378 452c0 292 156 458 390 458zM470 870
c-210 0 -362 -146 -362 -432c464 2 636 64 636 226c0 90 -94 206 -274 206zM325 1103v70c0 10 5 15 14 15s14 -5 14 -15v-70c0 -10 -5 -15 -14 -15s-14 5 -14 15zM585 1103v70c0 10 5 15 14 15s14 -5 14 -15v-70c0 -10 -5 -15 -14 -15s-14 5 -14 15z" />
    <glyph glyph-name="igrave" unicode="&#xec;" horiz-adv-x="308" 
d="M140 14v858c0 8 6 14 14 14s14 -6 14 -14v-858c0 -8 -6 -14 -14 -14s-14 6 -14 14zM312 1092l-326 138c-12 5 -18 8 -18 18s8 14 14 14c5 0 9 -2 14 -4l326 -138c12 -5 18 -8 18 -18s-8 -14 -14 -14c-5 0 -9 2 -14 4z" />
    <glyph glyph-name="iacute" unicode="&#xed;" horiz-adv-x="308" 
d="M140 14v858c0 8 6 14 14 14s14 -6 14 -14v-858c0 -8 -6 -14 -14 -14s-14 6 -14 14zM-14 1120l326 138c5 2 9 4 14 4c6 0 14 -4 14 -14s-6 -13 -18 -18l-326 -138c-5 -2 -9 -4 -14 -4c-6 0 -14 4 -14 14s6 13 18 18z" />
    <glyph glyph-name="icircumflex" unicode="&#xee;" horiz-adv-x="308" 
d="M140 14v858c0 8 6 14 14 14s14 -6 14 -14v-858c0 -8 -6 -14 -14 -14s-14 6 -14 14zM-105 1122l241 123c8 4 12 5 17 5s9 -1 17 -5l241 -123c12 -7 17 -9 17 -18s-6 -15 -14 -15c-6 0 -9 2 -20 8l-241 125l-241 -125c-11 -6 -14 -8 -20 -8c-8 0 -14 6 -14 15s5 11 17 18z
" />
    <glyph glyph-name="idieresis" unicode="&#xef;" horiz-adv-x="308" 
d="M140 14v858c0 8 6 14 14 14s14 -6 14 -14v-858c0 -8 -6 -14 -14 -14s-14 6 -14 14zM10 1103v70c0 10 5 15 14 15s14 -5 14 -15v-70c0 -10 -5 -15 -14 -15s-14 5 -14 15zM270 1103v70c0 10 5 15 14 15s14 -5 14 -15v-70c0 -10 -5 -15 -14 -15s-14 5 -14 15z" />
    <glyph glyph-name="eth" unicode="&#xf0;" horiz-adv-x="894" 
d="M816 700v-14c0 -450 -134 -698 -376 -698c-314 0 -362 312 -362 496c0 190 98 414 370 414c138 0 254 -84 338 -162c-10 248 -102 414 -214 510l-218 -108c-4 -2 -8 -4 -12 -4c-8 0 -14 6 -14 14c0 6 2 10 10 14l210 102c-108 84 -258 104 -408 104h-10
c-8 0 -14 8 -14 14c0 8 6 14 14 14h38c120 0 282 -14 412 -116l132 66c8 4 22 12 28 12c8 0 14 -6 14 -14s-6 -12 -22 -20l-130 -66c118 -104 210 -284 214 -558zM448 870c-252 0 -342 -206 -342 -386c0 -214 58 -468 334 -468c228 0 348 244 348 678
c-80 80 -204 176 -340 176z" />
    <glyph glyph-name="ntilde" unicode="&#xf1;" horiz-adv-x="916" 
d="M748 15v547c0 240 -72 308 -296 308c-102 0 -218 -42 -284 -84v-771c0 -10 -5 -15 -14 -15s-14 5 -14 15v856c0 10 5 15 14 15s14 -5 14 -15v-53c74 42 182 80 284 80c246 0 324 -82 324 -336v-547c0 -10 -5 -15 -14 -15s-14 5 -14 15zM344 1165c40 0 81 -11 122 -27
c39 -14 73 -22 105 -22c34 0 66 9 99 30c9 6 15 10 22 10c8 0 12 -6 12 -12c0 -9 -10 -15 -20 -22c-36 -24 -75 -34 -115 -34c-36 0 -73 8 -117 25c-36 13 -73 24 -108 24c-33 0 -65 -10 -98 -31c-9 -6 -15 -10 -22 -10c-8 0 -12 6 -12 12c0 9 10 15 20 22
c37 25 74 35 112 35z" />
    <glyph glyph-name="ograve" unicode="&#xf2;" horiz-adv-x="916" 
d="M80 440c0 282 152 458 378 458s378 -176 378 -458s-146 -452 -378 -452c-226 0 -378 178 -378 452zM808 440c0 266 -136 430 -350 430c-210 0 -350 -168 -350 -430c0 -258 136 -424 350 -424c220 0 350 158 350 424zM616 1092l-326 138c-12 5 -18 8 -18 18s8 14 14 14
c5 0 9 -2 14 -4l326 -138c12 -5 18 -8 18 -18s-8 -14 -14 -14c-5 0 -9 2 -14 4z" />
    <glyph glyph-name="oacute" unicode="&#xf3;" horiz-adv-x="916" 
d="M80 440c0 282 152 458 378 458s378 -176 378 -458s-146 -452 -378 -452c-226 0 -378 178 -378 452zM808 440c0 266 -136 430 -350 430c-210 0 -350 -168 -350 -430c0 -258 136 -424 350 -424c220 0 350 158 350 424zM290 1120l326 138c5 2 9 4 14 4c6 0 14 -4 14 -14
s-6 -13 -18 -18l-326 -138c-5 -2 -9 -4 -14 -4c-6 0 -14 4 -14 14s6 13 18 18z" />
    <glyph glyph-name="ocircumflex" unicode="&#xf4;" horiz-adv-x="916" 
d="M80 440c0 282 152 458 378 458s378 -176 378 -458s-146 -452 -378 -452c-226 0 -378 178 -378 452zM808 440c0 266 -136 430 -350 430c-210 0 -350 -168 -350 -430c0 -258 136 -424 350 -424c220 0 350 158 350 424zM199 1122l241 123c8 4 12 5 17 5s9 -1 17 -5l241 -123
c12 -7 17 -9 17 -18s-6 -15 -14 -15c-6 0 -9 2 -20 8l-241 125l-241 -125c-11 -6 -14 -8 -20 -8c-8 0 -14 6 -14 15s5 11 17 18z" />
    <glyph glyph-name="otilde" unicode="&#xf5;" horiz-adv-x="916" 
d="M80 440c0 282 152 458 378 458s378 -176 378 -458s-146 -452 -378 -452c-226 0 -378 178 -378 452zM808 440c0 266 -136 430 -350 430c-210 0 -350 -168 -350 -430c0 -258 136 -424 350 -424c220 0 350 158 350 424zM344 1165c40 0 81 -11 122 -27c39 -14 73 -22 105 -22
c34 0 66 9 99 30c9 6 15 10 22 10c8 0 12 -6 12 -12c0 -9 -10 -15 -20 -22c-36 -24 -75 -34 -115 -34c-36 0 -73 8 -117 25c-36 13 -73 24 -108 24c-33 0 -65 -10 -98 -31c-9 -6 -15 -10 -22 -10c-8 0 -12 6 -12 12c0 9 10 15 20 22c37 25 74 35 112 35z" />
    <glyph glyph-name="odieresis" unicode="&#xf6;" horiz-adv-x="916" 
d="M80 440c0 282 152 458 378 458s378 -176 378 -458s-146 -452 -378 -452c-226 0 -378 178 -378 452zM808 440c0 266 -136 430 -350 430c-210 0 -350 -168 -350 -430c0 -258 136 -424 350 -424c220 0 350 158 350 424zM314 1103v70c0 10 5 15 14 15s14 -5 14 -15v-70
c0 -10 -5 -15 -14 -15s-14 5 -14 15zM574 1103v70c0 10 5 15 14 15s14 -5 14 -15v-70c0 -10 -5 -15 -14 -15s-14 5 -14 15z" />
    <glyph glyph-name="divide" unicode="&#xf7;" horiz-adv-x="1140" 
d="M556 825v70c0 10 5 15 14 15s14 -5 14 -15v-70c0 -10 -5 -15 -14 -15s-14 5 -14 15zM164 466h812c10 0 16 -4 16 -14s-6 -14 -16 -14h-812c-10 0 -16 4 -16 14s6 14 16 14zM556 19v70c0 10 5 15 14 15s14 -5 14 -15v-70c0 -10 -5 -15 -14 -15s-14 5 -14 15z" />
    <glyph glyph-name="oslash" unicode="&#xf8;" horiz-adv-x="918" 
d="M187 27l31 49c-87 79 -138 205 -138 364c0 282 152 458 378 458c89 0 167 -28 229 -78l37 59c3 5 7 7 12 7c8 0 15 -5 15 -13c0 -3 0 -5 -6 -14l-37 -59c81 -79 128 -203 128 -360c0 -282 -146 -452 -378 -452c-84 0 -158 25 -218 70l-32 -51c-3 -5 -7 -7 -12 -7
c-8 0 -15 5 -15 13c0 3 1 6 6 14zM233 100l439 697c-57 47 -129 73 -214 73c-210 0 -350 -168 -350 -430c0 -149 45 -267 125 -340zM693 777l-438 -696c55 -42 123 -65 203 -65c220 0 350 158 350 424c0 147 -41 263 -115 337z" />
    <glyph glyph-name="ugrave" unicode="&#xf9;" horiz-adv-x="916" 
d="M168 871v-547c0 -220 40 -310 280 -310c124 0 226 56 300 130v727c0 10 5 15 14 15s14 -5 14 -15v-856c0 -10 -5 -15 -14 -15s-14 5 -14 15v93c-68 -64 -176 -120 -304 -120c-234 0 -304 76 -304 336v547c0 10 5 15 14 15s14 -5 14 -15zM616 1092l-326 138
c-12 5 -18 8 -18 18s8 14 14 14c5 0 9 -2 14 -4l326 -138c12 -5 18 -8 18 -18s-8 -14 -14 -14c-5 0 -9 2 -14 4z" />
    <glyph glyph-name="uacute" unicode="&#xfa;" horiz-adv-x="916" 
d="M168 871v-547c0 -220 40 -310 280 -310c124 0 226 56 300 130v727c0 10 5 15 14 15s14 -5 14 -15v-856c0 -10 -5 -15 -14 -15s-14 5 -14 15v93c-68 -64 -176 -120 -304 -120c-234 0 -304 76 -304 336v547c0 10 5 15 14 15s14 -5 14 -15zM290 1120l326 138c5 2 9 4 14 4
c6 0 14 -4 14 -14s-6 -13 -18 -18l-326 -138c-5 -2 -9 -4 -14 -4c-6 0 -14 4 -14 14s6 13 18 18z" />
    <glyph glyph-name="ucircumflex" unicode="&#xfb;" horiz-adv-x="916" 
d="M168 871v-547c0 -220 40 -310 280 -310c124 0 226 56 300 130v727c0 10 5 15 14 15s14 -5 14 -15v-856c0 -10 -5 -15 -14 -15s-14 5 -14 15v93c-68 -64 -176 -120 -304 -120c-234 0 -304 76 -304 336v547c0 10 5 15 14 15s14 -5 14 -15zM199 1122l241 123c8 4 12 5 17 5
s9 -1 17 -5l241 -123c12 -7 17 -9 17 -18s-6 -15 -14 -15c-6 0 -9 2 -20 8l-241 125l-241 -125c-11 -6 -14 -8 -20 -8c-8 0 -14 6 -14 15s5 11 17 18z" />
    <glyph glyph-name="udieresis" unicode="&#xfc;" horiz-adv-x="916" 
d="M168 871v-547c0 -220 40 -310 280 -310c124 0 226 56 300 130v727c0 10 5 15 14 15s14 -5 14 -15v-856c0 -10 -5 -15 -14 -15s-14 5 -14 15v93c-68 -64 -176 -120 -304 -120c-234 0 -304 76 -304 336v547c0 10 5 15 14 15s14 -5 14 -15zM314 1103v70c0 10 5 15 14 15
s14 -5 14 -15v-70c0 -10 -5 -15 -14 -15s-14 5 -14 15zM574 1103v70c0 10 5 15 14 15s14 -5 14 -15v-70c0 -10 -5 -15 -14 -15s-14 5 -14 15z" />
    <glyph glyph-name="yacute" unicode="&#xfd;" horiz-adv-x="764" 
d="M738 852l-286 -790c-156 -432 -268 -504 -390 -504c-50 0 -97 20 -112 30c-4 3 -6 7 -6 12c0 7 5 14 14 14c6 0 12 -4 20 -8c20 -10 48 -20 84 -20c98 0 204 66 338 416c-10 2 -16 6 -22 14c-118 180 -336 792 -352 836c-2 6 -6 15 -6 21c0 7 5 13 14 13
c8 0 12 -6 14 -12c6 -18 238 -666 348 -836c4 -6 8 -10 14 -10l306 844c2 6 5 14 15 14c8 0 13 -5 13 -13c0 -6 -4 -15 -6 -21zM207 1120l326 138c5 2 9 4 14 4c6 0 14 -4 14 -14s-6 -13 -18 -18l-326 -138c-5 -2 -9 -4 -14 -4c-6 0 -14 4 -14 14s6 13 18 18z" />
    <glyph glyph-name="thorn" unicode="&#xfe;" horiz-adv-x="924" 
d="M140 -387v1712c0 10 5 15 14 15s14 -5 14 -15v-499c82 50 180 72 278 72c238 0 398 -176 398 -448c0 -260 -194 -462 -440 -462c-92 0 -186 48 -236 80v-455c0 -10 -5 -15 -14 -15s-14 5 -14 15zM168 796v-696c42 -28 140 -84 236 -84c232 0 412 190 412 434
c0 256 -148 420 -370 420c-100 0 -198 -22 -278 -74z" />
    <glyph glyph-name="ydieresis" unicode="&#xff;" horiz-adv-x="764" 
d="M738 852l-286 -790c-156 -432 -268 -504 -390 -504c-50 0 -97 20 -112 30c-4 3 -6 7 -6 12c0 7 5 14 14 14c6 0 12 -4 20 -8c20 -10 48 -20 84 -20c98 0 204 66 338 416c-10 2 -16 6 -22 14c-118 180 -336 792 -352 836c-2 6 -6 15 -6 21c0 7 5 13 14 13
c8 0 12 -6 14 -12c6 -18 238 -666 348 -836c4 -6 8 -10 14 -10l306 844c2 6 5 14 15 14c8 0 13 -5 13 -13c0 -6 -4 -15 -6 -21zM231 1103v70c0 10 5 15 14 15s14 -5 14 -15v-70c0 -10 -5 -15 -14 -15s-14 5 -14 15zM491 1103v70c0 10 5 15 14 15s14 -5 14 -15v-70
c0 -10 -5 -15 -14 -15s-14 5 -14 15z" />
    <glyph glyph-name="Abreve" unicode="&#x102;" horiz-adv-x="1076" 
d="M881 410h-686c-53 -162 -98 -306 -123 -395c-3 -11 -7 -15 -16 -15c-10 0 -15 9 -11 22c57 194 315 1007 433 1222c13 24 32 34 60 34s47 -10 60 -34c118 -215 376 -1028 433 -1222c4 -13 -1 -22 -11 -22c-9 0 -13 4 -16 15c-26 89 -70 234 -123 395zM203 437h669
c-12 37 -24 75 -37 113c-91 274 -196 555 -261 680c-6 12 -16 20 -36 20s-30 -8 -36 -20c-65 -125 -170 -406 -261 -680zM722 1644c1 10 6 14 14 14s14 -5 14 -14c0 -8 -2 -25 -9 -45c-29 -77 -108 -111 -204 -111c-100 0 -176 36 -204 111c-7 20 -9 37 -9 45
c0 9 6 14 14 14s13 -4 14 -14c10 -89 88 -128 185 -128c101 0 175 41 185 128z" />
    <glyph glyph-name="abreve" unicode="&#x103;" horiz-adv-x="838" 
d="M666 530v94c0 112 -66 246 -256 246c-126 0 -216 -40 -250 -58c-8 -4 -14 -8 -20 -8s-12 6 -12 14s4 11 14 17c40 22 136 63 268 63c208 0 284 -146 284 -274v-490c0 -104 58 -106 70 -106c10 0 14 -6 14 -14s-4 -14 -18 -14c-12 0 -82 8 -92 98
c-72 -74 -170 -110 -294 -110c-146 0 -294 76 -294 248c0 166 100 294 458 294h128zM666 134v368h-128c-340 0 -430 -116 -430 -266c0 -154 136 -220 266 -220c126 0 226 36 292 118zM619 1258c8 0 14 -5 14 -14c0 -8 -2 -25 -9 -45c-29 -77 -108 -111 -204 -111
c-100 0 -176 36 -204 111c-7 20 -9 37 -9 45c0 9 6 14 14 14s13 -4 14 -14c10 -89 88 -128 185 -128c101 0 175 41 185 128c1 10 6 14 14 14z" />
    <glyph glyph-name="Aogonek" unicode="&#x104;" horiz-adv-x="1076" 
d="M881 410h-686c-53 -162 -98 -306 -123 -395c-3 -11 -7 -15 -16 -15c-10 0 -15 9 -11 22c57 194 315 1007 433 1222c13 24 32 34 60 34s47 -10 60 -34c116 -212 368 -1002 430 -1212c3 -11 4 -15 4 -19c0 -6 -3 -11 -9 -13c-24 -7 -46 -13 -66 -21
c-107 -44 -162 -105 -162 -177c0 -71 45 -118 112 -118c46 0 83 14 119 31c11 5 16 8 21 8c8 0 13 -7 13 -14c0 -4 -1 -8 -9 -13c-30 -19 -88 -40 -144 -40c-84 0 -140 58 -140 146c0 94 94 181 235 218c-26 89 -69 232 -121 390zM203 437h669c-12 37 -24 75 -37 113
c-91 274 -196 555 -261 680c-6 12 -16 20 -36 20s-30 -8 -36 -20c-65 -125 -170 -406 -261 -680z" />
    <glyph glyph-name="aogonek" unicode="&#x105;" horiz-adv-x="838" 
d="M142 835c40 22 136 63 268 63c208 0 284 -146 284 -274v-490c0 -104 58 -106 70 -106c10 0 14 -6 14 -14c0 -6 -2 -11 -9 -13c-154 -50 -234 -118 -234 -199c0 -56 28 -118 112 -118c53 0 97 20 125 34c6 3 11 6 16 6c8 0 14 -6 14 -14c0 -5 -2 -9 -11 -14
c-19 -10 -79 -40 -144 -40c-104 0 -140 78 -140 146c0 83 73 155 214 209c-22 11 -47 36 -53 87c-72 -74 -170 -110 -294 -110c-146 0 -294 76 -294 248c0 166 100 294 458 294h128v94c0 112 -66 246 -256 246c-126 0 -216 -40 -250 -58c-8 -4 -14 -8 -20 -8s-12 6 -12 14
s4 11 14 17zM666 134v368h-128c-340 0 -430 -116 -430 -266c0 -154 136 -220 266 -220c126 0 226 36 292 118z" />
    <glyph glyph-name="Cacute" unicode="&#x106;" horiz-adv-x="1144" 
d="M668 1290c210 0 324 -74 364 -102c8 -6 12 -11 12 -18s-5 -12 -12 -12c-6 0 -10 2 -18 8c-38 28 -144 96 -346 96c-308 0 -540 -270 -540 -624c0 -360 218 -622 518 -622c134 0 240 28 352 90c8 4 11 6 18 6c6 0 12 -4 12 -12s-6 -12 -16 -18c-116 -64 -228 -94 -366 -94
c-316 0 -546 274 -546 650c0 370 244 652 568 652zM825 1658c5 2 9 4 14 4c6 0 14 -4 14 -14s-6 -13 -18 -18l-326 -138c-5 -2 -9 -4 -14 -4c-6 0 -14 4 -14 14s6 13 18 18z" />
    <glyph glyph-name="cacute" unicode="&#x107;" horiz-adv-x="860" 
d="M518 898c82 0 163 -26 238 -76c9 -6 11 -10 11 -15c0 -7 -6 -13 -13 -13c-4 0 -7 1 -12 4c-58 38 -130 72 -224 72c-232 0 -410 -182 -410 -424c0 -244 136 -430 368 -430c76 0 154 8 262 64c16 8 23 14 30 14c8 0 14 -6 14 -14c0 -5 -1 -9 -10 -14
c-78 -43 -165 -78 -296 -78c-246 0 -396 192 -396 458c0 256 192 452 438 452zM332 1120l326 138c5 2 9 4 14 4c6 0 14 -4 14 -14s-6 -13 -18 -18l-326 -138c-5 -2 -9 -4 -14 -4c-6 0 -14 4 -14 14s6 13 18 18z" />
    <glyph glyph-name="Ccaron" unicode="&#x10c;" horiz-adv-x="1144" 
d="M668 1290c210 0 324 -74 364 -102c8 -6 12 -11 12 -18s-5 -12 -12 -12c-6 0 -10 2 -18 8c-38 28 -144 96 -346 96c-308 0 -540 -270 -540 -624c0 -360 218 -622 518 -622c134 0 240 28 352 90c8 4 11 6 18 6c6 0 12 -4 12 -12s-6 -12 -16 -18c-116 -64 -228 -94 -366 -94
c-316 0 -546 274 -546 650c0 370 244 652 568 652zM906 1642c12 6 14 8 20 8c9 0 15 -6 15 -15s-5 -11 -18 -18l-241 -123c-8 -4 -12 -5 -17 -5s-9 1 -17 5l-241 123c-13 7 -18 9 -18 18s6 15 15 15c6 0 8 -2 20 -8l241 -125z" />
    <glyph glyph-name="ccaron" unicode="&#x10d;" horiz-adv-x="860" 
d="M518 898c82 0 163 -26 238 -76c9 -6 11 -10 11 -15c0 -7 -6 -13 -13 -13c-4 0 -7 1 -12 4c-58 38 -130 72 -224 72c-232 0 -410 -182 -410 -424c0 -244 136 -430 368 -430c76 0 154 8 262 64c16 8 23 14 30 14c8 0 14 -6 14 -14c0 -5 -1 -9 -10 -14
c-78 -43 -165 -78 -296 -78c-246 0 -396 192 -396 458c0 256 192 452 438 452zM500 1117l241 125c11 6 14 8 20 8c8 0 14 -6 14 -15s-5 -11 -17 -18l-241 -123c-8 -4 -12 -5 -17 -5s-9 1 -17 5l-241 123c-12 7 -17 9 -17 18s6 15 14 15c6 0 9 -2 20 -8z" />
    <glyph glyph-name="Dcaron" unicode="&#x10e;" horiz-adv-x="1228" 
d="M556 0h-352c-16 0 -24 8 -24 24v1230c0 16 8 24 24 24h352c360 0 572 -272 572 -644s-208 -634 -572 -634zM208 28h348c348 0 544 248 544 606s-200 616 -544 616h-348v-1222zM784 1642c12 6 14 8 20 8c9 0 15 -6 15 -15s-5 -11 -18 -18l-241 -123c-8 -4 -12 -5 -17 -5
s-9 1 -17 5l-241 123c-13 7 -18 9 -18 18s6 15 15 15c6 0 8 -2 20 -8l241 -125z" />
    <glyph glyph-name="dcaron" unicode="&#x10f;" horiz-adv-x="1046" 
d="M754 822v539c0 10 5 15 14 15s14 -5 14 -15v-1225c0 -104 62 -108 70 -108c10 0 14 -6 14 -14s-4 -14 -18 -14c-12 0 -74 10 -90 96c-84 -56 -182 -108 -280 -108c-246 0 -398 190 -398 456c0 256 190 454 440 454c92 0 156 -28 234 -76zM754 126v664
c-76 50 -142 80 -234 80c-236 0 -412 -184 -412 -426c0 -244 138 -428 370 -428c94 0 194 54 276 110zM1065 1364v-8c0 -46 -6 -202 -88 -284c-4 -4 -8 -6 -12 -6c-8 0 -14 6 -14 12s2 8 6 12c76 74 80 232 80 274c0 8 6 14 14 14s14 -6 14 -14z" />
    <glyph glyph-name="Dcroat" unicode="&#x110;" horiz-adv-x="1268" 
d="M596 0h-352c-16 0 -24 8 -24 24v624h-170c-8 0 -14 6 -14 14s6 14 14 14h170v578c0 16 8 24 24 24h352c360 0 572 -272 572 -644s-208 -634 -572 -634zM248 28h348c348 0 544 248 544 606s-200 616 -544 616h-348v-574h396c8 0 14 -6 14 -14s-6 -14 -14 -14h-396v-620z
" />
    <glyph glyph-name="dcroat" unicode="&#x111;" horiz-adv-x="926" 
d="M754 822v316h-324c-8 0 -14 6 -14 14s6 14 14 14h324v196c0 8 6 14 14 14s14 -6 14 -14v-196h132c8 0 14 -6 14 -14s-6 -14 -14 -14h-132v-1002c0 -104 62 -108 70 -108s14 -6 14 -14s-8 -14 -18 -14c-12 0 -74 10 -90 96c-84 -56 -182 -108 -280 -108
c-238 0 -398 182 -398 456c0 256 190 454 440 454c92 0 156 -28 234 -76zM754 126v664c-76 50 -142 80 -234 80c-236 0 -412 -184 -412 -426c0 -214 114 -428 370 -428c94 0 194 54 276 110z" />
    <glyph glyph-name="Eogonek" unicode="&#x118;" horiz-adv-x="924" 
d="M799 0h-21c-25 -1 -44 -9 -62 -17c-107 -49 -166 -109 -166 -181c0 -71 45 -118 112 -118c46 0 83 14 119 31c11 5 16 8 21 8c8 0 13 -7 13 -14c0 -4 -1 -8 -9 -13c-30 -19 -88 -40 -144 -40c-84 0 -140 58 -140 146c0 80 66 155 174 198h-492c-16 0 -24 8 -24 24v1230
c0 16 8 24 24 24h557c10 0 15 -5 15 -14s-5 -14 -15 -14h-553v-562h515c10 0 15 -5 15 -14s-5 -14 -15 -14h-515v-632h591c10 0 15 -5 15 -14s-5 -14 -15 -14z" />
    <glyph glyph-name="eogonek" unicode="&#x119;" horiz-adv-x="860" 
d="M586 -344c-104 0 -140 78 -140 146c0 76 64 150 134 198c-38 -6 -80 -12 -122 -12c-226 0 -378 182 -378 452c0 292 156 458 390 458c196 0 302 -128 302 -234c0 -208 -248 -252 -662 -254c0 -212 134 -394 348 -394c122 0 234 46 280 66c14 6 24 12 30 12s12 -4 12 -12
c0 -10 -10 -16 -28 -24c-16 -8 -40 -18 -68 -28c-86 -34 -210 -128 -210 -228c0 -56 28 -118 112 -118c48 0 98 22 116 30c10 4 20 10 24 10c8 0 14 -6 14 -12c0 -8 -2 -12 -14 -18c-24 -12 -78 -38 -140 -38zM744 664c0 90 -94 206 -274 206c-210 0 -362 -146 -362 -432
c464 2 636 64 636 226z" />
    <glyph glyph-name="Ecaron" unicode="&#x11a;" horiz-adv-x="924" 
d="M799 0h-595c-16 0 -24 8 -24 24v1230c0 16 8 24 24 24h557c10 0 15 -5 15 -14s-5 -14 -15 -14h-553v-562h515c10 0 15 -5 15 -14s-5 -14 -15 -14h-515v-632h591c10 0 15 -5 15 -14s-5 -14 -15 -14zM702 1642c12 6 14 8 20 8c9 0 15 -6 15 -15s-5 -11 -18 -18l-241 -123
c-8 -4 -12 -5 -17 -5s-9 1 -17 5l-241 123c-13 7 -18 9 -18 18s6 15 15 15c6 0 8 -2 20 -8l241 -125z" />
    <glyph glyph-name="ecaron" unicode="&#x11b;" horiz-adv-x="860" 
d="M470 898c196 0 302 -128 302 -234c0 -208 -248 -252 -662 -254c0 -212 134 -394 348 -394c114 0 234 43 274 62c22 11 29 16 36 16c8 0 14 -6 14 -14c0 -5 -1 -9 -10 -14c-33 -20 -178 -78 -314 -78c-226 0 -378 182 -378 452c0 292 156 458 390 458zM470 870
c-210 0 -362 -146 -362 -432c464 2 636 64 636 226c0 90 -94 206 -274 206zM469 1117l241 125c11 6 14 8 20 8c8 0 14 -6 14 -15s-5 -11 -17 -18l-241 -123c-8 -4 -12 -5 -17 -5s-9 1 -17 5l-241 123c-12 7 -17 9 -17 18s6 15 14 15c6 0 9 -2 20 -8z" />
    <glyph glyph-name="dotlessi" unicode="&#x131;" horiz-adv-x="308" 
d="M140 14v858c0 8 6 14 14 14s14 -6 14 -14v-858c0 -8 -6 -14 -14 -14s-14 6 -14 14z" />
    <glyph glyph-name="Lacute" unicode="&#x139;" horiz-adv-x="856" 
d="M801 0h-597c-16 0 -24 8 -24 24v1239c0 10 5 15 14 15s14 -5 14 -15v-1235h593c10 0 15 -5 15 -14s-5 -14 -15 -14zM522 1658c5 2 9 4 14 4c6 0 14 -4 14 -14s-6 -13 -18 -18l-326 -138c-5 -2 -9 -4 -14 -4c-6 0 -14 4 -14 14s6 13 18 18z" />
    <glyph glyph-name="lacute" unicode="&#x13a;" horiz-adv-x="370" 
d="M168 1361v-1051c0 -102 7 -222 69 -261c24 -15 57 -21 99 -21c9 0 14 -5 14 -14s-5 -14 -14 -14c-148 0 -196 69 -196 310v1051c0 10 5 15 14 15s14 -5 14 -15zM484 1658c5 2 9 4 14 4c6 0 14 -4 14 -14s-6 -13 -18 -18l-326 -138c-5 -2 -9 -4 -14 -4c-6 0 -14 4 -14 14
s6 13 18 18z" />
    <glyph glyph-name="Lcaron" unicode="&#x13d;" horiz-adv-x="856" 
d="M801 0h-597c-16 0 -24 8 -24 24v1239c0 10 5 15 14 15s14 -5 14 -15v-1235h593c10 0 15 -5 15 -14s-5 -14 -15 -14zM551 1304v-8c0 -46 -6 -202 -88 -284c-4 -4 -8 -6 -12 -6c-8 0 -14 6 -14 12s2 8 6 12c76 74 80 232 80 274c0 8 6 14 14 14s14 -6 14 -14z" />
    <glyph glyph-name="lcaron" unicode="&#x13e;" horiz-adv-x="470" 
d="M168 1361v-1051c0 -102 7 -222 69 -261c24 -15 57 -21 99 -21c9 0 14 -5 14 -14s-5 -14 -14 -14c-148 0 -196 69 -196 310v1051c0 10 5 15 14 15s14 -5 14 -15zM451 1364v-8c0 -46 -6 -202 -88 -284c-4 -4 -8 -6 -12 -6c-8 0 -14 6 -14 12s2 8 6 12c76 74 80 232 80 274
c0 8 6 14 14 14s14 -6 14 -14z" />
    <glyph glyph-name="Lslash" unicode="&#x141;" horiz-adv-x="896" 
d="M220 622v641c0 10 5 15 14 15s14 -5 14 -15v-622l230 159c6 4 9 6 15 6c7 0 13 -7 13 -14c0 -6 -4 -10 -12 -16l-246 -170v-578h593c10 0 15 -5 15 -14s-5 -14 -15 -14h-597c-16 0 -24 8 -24 24v563l-170 -117c-6 -4 -9 -6 -15 -6c-7 0 -13 7 -13 14c0 6 4 10 12 16z" />
    <glyph glyph-name="lslash" unicode="&#x142;" horiz-adv-x="370" 
d="M386 898l-218 -152v-436c0 -222 36 -282 168 -282c8 0 14 -6 14 -14s-6 -14 -14 -14c-150 0 -196 72 -196 310v418l-154 -106c-6 -4 -10 -6 -16 -6s-12 6 -12 14c0 6 4 10 12 16l170 116v600c0 8 6 14 14 14s14 -6 14 -14v-580l202 140c6 4 10 6 16 6s12 -6 12 -14
c0 -6 -4 -10 -12 -16z" />
    <glyph glyph-name="Nacute" unicode="&#x143;" horiz-adv-x="1166" 
d="M986 1263v-1235c0 -20 -8 -28 -28 -28c-34 0 -54 14 -82 56c-76 114 -194 338 -308 586c-78 168 -226 452 -302 564c-18 26 -30 44 -58 44v-1235c0 -10 -5 -15 -14 -15s-14 5 -14 15v1235c0 20 8 28 28 28c34 0 54 -14 82 -56c76 -114 222 -394 304 -568
c112 -240 222 -462 306 -582c18 -26 30 -44 58 -44v1235c0 10 5 15 14 15s14 -5 14 -15zM742 1658c5 2 9 4 14 4c6 0 14 -4 14 -14s-6 -13 -18 -18l-326 -138c-5 -2 -9 -4 -14 -4c-6 0 -14 4 -14 14s6 13 18 18z" />
    <glyph glyph-name="nacute" unicode="&#x144;" horiz-adv-x="916" 
d="M748 15v547c0 240 -72 308 -296 308c-102 0 -218 -42 -284 -84v-771c0 -10 -5 -15 -14 -15s-14 5 -14 15v856c0 10 5 15 14 15s14 -5 14 -15v-53c74 42 182 80 284 80c246 0 324 -82 324 -336v-547c0 -10 -5 -15 -14 -15s-14 5 -14 15zM290 1120l326 138c5 2 9 4 14 4
c6 0 14 -4 14 -14s-6 -13 -18 -18l-326 -138c-5 -2 -9 -4 -14 -4c-6 0 -14 4 -14 14s6 13 18 18z" />
    <glyph glyph-name="Ncaron" unicode="&#x147;" horiz-adv-x="1166" 
d="M986 1263v-1235c0 -20 -8 -28 -28 -28c-34 0 -54 14 -82 56c-76 114 -194 338 -308 586c-78 168 -226 452 -302 564c-18 26 -30 44 -58 44v-1235c0 -10 -5 -15 -14 -15s-14 5 -14 15v1235c0 20 8 28 28 28c34 0 54 -14 82 -56c76 -114 222 -394 304 -568
c112 -240 222 -462 306 -582c18 -26 30 -44 58 -44v1235c0 10 5 15 14 15s14 -5 14 -15zM823 1642c12 6 14 8 20 8c9 0 15 -6 15 -15s-5 -11 -18 -18l-241 -123c-8 -4 -12 -5 -17 -5s-9 1 -17 5l-241 123c-13 7 -18 9 -18 18s6 15 15 15c6 0 8 -2 20 -8l241 -125z" />
    <glyph glyph-name="ncaron" unicode="&#x148;" horiz-adv-x="916" 
d="M748 15v547c0 240 -72 308 -296 308c-102 0 -218 -42 -284 -84v-771c0 -10 -5 -15 -14 -15s-14 5 -14 15v856c0 10 5 15 14 15s14 -5 14 -15v-53c74 42 182 80 284 80c246 0 324 -82 324 -336v-547c0 -10 -5 -15 -14 -15s-14 5 -14 15zM458 1117l241 125c11 6 14 8 20 8
c8 0 14 -6 14 -15s-5 -11 -17 -18l-241 -123c-8 -4 -12 -5 -17 -5s-9 1 -17 5l-241 123c-12 7 -17 9 -17 18s6 15 14 15c6 0 9 -2 20 -8z" />
    <glyph glyph-name="Ohungarumlaut" unicode="&#x150;" horiz-adv-x="1262" 
d="M100 636c0 378 222 654 532 654c308 0 530 -276 530 -654c0 -372 -222 -648 -530 -648c-310 0 -532 276 -532 648zM1134 636c0 360 -210 626 -502 626c-294 0 -504 -266 -504 -626c0 -354 210 -620 504 -620c292 0 502 266 502 620zM513 1516l70 180c5 13 8 18 17 18
c10 0 15 -5 15 -13c0 -4 -1 -7 -4 -14l-70 -181c-5 -13 -8 -18 -17 -18c-10 0 -15 5 -15 13c0 4 1 7 4 15zM730 1516l70 180c5 13 8 18 17 18c10 0 15 -5 15 -13c0 -4 -1 -7 -4 -14l-70 -181c-5 -13 -8 -18 -17 -18c-10 0 -15 5 -15 13c0 4 1 7 4 15z" />
    <glyph glyph-name="ohungarumlaut" unicode="&#x151;" horiz-adv-x="916" 
d="M80 440c0 282 152 458 378 458s378 -176 378 -458s-146 -452 -378 -452c-226 0 -378 178 -378 452zM808 440c0 266 -136 430 -350 430c-210 0 -350 -168 -350 -430c0 -258 136 -424 350 -424c220 0 350 158 350 424zM350 1116l70 180c5 13 8 18 17 18c10 0 15 -5 15 -13
c0 -4 -1 -7 -4 -14l-70 -181c-5 -13 -8 -18 -17 -18c-10 0 -15 5 -15 13c0 4 1 7 4 15zM567 1116l70 180c5 13 8 18 17 18c10 0 15 -5 15 -13c0 -4 -1 -7 -4 -14l-70 -181c-5 -13 -8 -18 -17 -18c-10 0 -15 5 -15 13c0 4 1 7 4 15z" />
    <glyph glyph-name="OE" unicode="&#x152;" horiz-adv-x="1632" 
d="M1507 0h-875c-328 0 -532 262 -532 634s208 644 532 644h837c10 0 15 -5 15 -14s-5 -14 -15 -14h-553v-562h515c10 0 15 -5 15 -14s-5 -14 -15 -14h-515v-632h591c10 0 15 -5 15 -14s-5 -14 -15 -14zM888 28v1222h-256c-308 0 -504 -258 -504 -616s192 -606 504 -606h256
z" />
    <glyph glyph-name="oe" unicode="&#x153;" horiz-adv-x="1590" 
d="M1186 16c122 0 234 46 280 66c14 6 24 12 30 12s12 -4 12 -12c0 -10 -10 -16 -28 -24c-48 -22 -168 -70 -294 -70c-186 0 -320 122 -364 314c-40 -198 -174 -314 -364 -314c-226 0 -378 178 -378 452c0 282 152 458 378 458c186 0 324 -122 364 -320
c40 202 182 320 376 320c196 0 302 -128 302 -234c0 -208 -248 -252 -662 -254c0 -214 134 -394 348 -394zM808 440c0 266 -136 430 -350 430c-210 0 -350 -168 -350 -430c0 -258 136 -424 350 -424c220 0 350 158 350 424zM1472 664c0 90 -94 206 -274 206
c-210 0 -362 -146 -362 -432c464 2 636 64 636 226z" />
    <glyph glyph-name="Racute" unicode="&#x154;" horiz-adv-x="1028" 
d="M180 15v1239c0 16 8 24 24 24h332c200 0 344 -130 344 -308c0 -236 -158 -332 -324 -338c178 -50 284 -334 384 -592c6 -16 8 -22 8 -27c0 -8 -5 -13 -14 -13s-12 6 -16 16c-158 414 -258 614 -478 614h-232v-615c0 -10 -5 -15 -14 -15s-14 5 -14 15zM208 1250v-592h328
c74 0 316 20 316 312c0 164 -132 280 -316 280h-328zM663 1658c5 2 9 4 14 4c6 0 14 -4 14 -14s-6 -13 -18 -18l-326 -138c-5 -2 -9 -4 -14 -4c-6 0 -14 4 -14 14s6 13 18 18z" />
    <glyph glyph-name="racute" unicode="&#x155;" horiz-adv-x="614" 
d="M168 871v-243c54 208 202 270 318 270c36 0 74 -6 96 -16c7 -3 12 -8 12 -14c0 -8 -5 -14 -14 -14c-4 0 -10 2 -16 4c-26 8 -48 12 -78 12c-96 0 -318 -46 -318 -464v-391c0 -10 -5 -15 -14 -15s-14 5 -14 15v856c0 10 5 15 14 15s14 -5 14 -15zM169 1120l326 138
c5 2 9 4 14 4c6 0 14 -4 14 -14s-6 -13 -18 -18l-326 -138c-5 -2 -9 -4 -14 -4c-6 0 -14 4 -14 14s6 13 18 18z" />
    <glyph glyph-name="Rcaron" unicode="&#x158;" horiz-adv-x="1028" 
d="M180 15v1239c0 16 8 24 24 24h332c200 0 344 -130 344 -308c0 -236 -158 -332 -324 -338c178 -50 284 -334 384 -592c6 -16 8 -22 8 -27c0 -8 -5 -13 -14 -13s-12 6 -16 16c-158 414 -258 614 -478 614h-232v-615c0 -10 -5 -15 -14 -15s-14 5 -14 15zM208 1250v-592h328
c74 0 316 20 316 312c0 164 -132 280 -316 280h-328zM744 1642c12 6 14 8 20 8c9 0 15 -6 15 -15s-5 -11 -18 -18l-241 -123c-8 -4 -12 -5 -17 -5s-9 1 -17 5l-241 123c-13 7 -18 9 -18 18s6 15 15 15c6 0 8 -2 20 -8l241 -125z" />
    <glyph glyph-name="rcaron" unicode="&#x159;" horiz-adv-x="614" 
d="M168 871v-243c54 208 202 270 318 270c36 0 74 -6 96 -16c7 -3 12 -8 12 -14c0 -8 -5 -14 -14 -14c-4 0 -10 2 -16 4c-26 8 -48 12 -78 12c-96 0 -318 -46 -318 -464v-391c0 -10 -5 -15 -14 -15s-14 5 -14 15v856c0 10 5 15 14 15s14 -5 14 -15zM337 1117l241 125
c11 6 14 8 20 8c8 0 14 -6 14 -15s-5 -11 -17 -18l-241 -123c-8 -4 -12 -5 -17 -5s-9 1 -17 5l-241 123c-12 7 -17 9 -17 18s6 15 14 15c6 0 9 -2 20 -8z" />
    <glyph glyph-name="Sacute" unicode="&#x15a;" horiz-adv-x="908" 
d="M478 1290c132 0 232 -62 294 -108c7 -6 8 -10 8 -14c0 -8 -6 -14 -13 -14c-6 0 -11 4 -19 10c-48 36 -146 98 -270 98c-158 0 -308 -106 -308 -266c0 -370 638 -278 638 -674c0 -202 -142 -334 -374 -334c-158 0 -266 79 -326 125c-7 6 -8 10 -8 14c0 8 6 14 13 14
c6 0 11 -4 19 -10c52 -38 156 -115 302 -115c214 0 346 118 346 306c0 372 -638 278 -638 674c0 178 162 294 336 294zM613 1658c5 2 9 4 14 4c6 0 14 -4 14 -14s-6 -13 -18 -18l-326 -138c-5 -2 -9 -4 -14 -4c-6 0 -14 4 -14 14s6 13 18 18z" />
    <glyph glyph-name="sacute" unicode="&#x15b;" horiz-adv-x="738" 
d="M402 898c106 0 190 -40 216 -54c4 -2 10 -6 10 -14s-6 -14 -13 -14c-6 0 -9 2 -17 6c-42 22 -114 48 -196 48c-118 0 -248 -58 -248 -186c0 -220 504 -208 504 -452c0 -140 -120 -244 -284 -244c-158 0 -281 79 -288 84c-4 3 -6 6 -6 12c0 7 5 14 14 14c7 0 11 -4 18 -8
c9 -5 118 -74 262 -74c148 0 256 90 256 216c0 220 -504 208 -504 452c0 146 142 214 276 214zM219 1120l326 138c5 2 9 4 14 4c6 0 14 -4 14 -14s-6 -13 -18 -18l-326 -138c-5 -2 -9 -4 -14 -4c-6 0 -14 4 -14 14s6 13 18 18z" />
    <glyph glyph-name="Scedilla" unicode="&#x15e;" horiz-adv-x="908" 
d="M380 -126l24 115c-142 9 -241 79 -296 124c-7 6 -8 10 -8 14c0 8 6 14 13 14c6 0 11 -4 19 -10c52 -38 156 -115 302 -115c214 0 346 118 346 306c0 372 -638 278 -638 674c0 178 162 294 336 294c132 0 232 -62 294 -108c7 -6 8 -10 8 -14c0 -8 -6 -14 -13 -14
c-6 0 -11 4 -19 10c-48 36 -146 98 -270 98c-158 0 -308 -106 -308 -266c0 -370 638 -278 638 -674c0 -202 -142 -334 -374 -334l-30 -134c22 10 52 20 84 20c70 0 138 -50 138 -144c0 -100 -90 -154 -160 -154c-35 0 -62 4 -78 13c-5 3 -8 6 -8 13c0 8 6 14 14 14
c10 0 28 -12 72 -12c52 0 132 40 132 126c0 80 -58 116 -110 116c-50 0 -86 -26 -100 -26c-10 0 -16 6 -16 16c0 4 3 14 8 38z" />
    <glyph glyph-name="scedilla" unicode="&#x15f;" horiz-adv-x="738" 
d="M286 -126l24 118c-124 14 -210 70 -216 76c-10 6 -14 12 -14 16c0 8 6 14 14 14c6 0 12 -4 18 -8c8 -6 118 -74 262 -74c148 0 256 90 256 216c0 220 -504 208 -504 452c0 146 142 214 276 214c106 0 190 -40 216 -54c4 -2 10 -6 10 -14s-6 -14 -14 -14c-6 0 -8 2 -16 6
c-42 22 -114 48 -196 48c-118 0 -248 -58 -248 -186c0 -220 504 -208 504 -452c0 -140 -120 -244 -284 -244c-12 0 -24 0 -34 2l-30 -136c22 10 52 20 84 20c70 0 138 -50 138 -144c0 -100 -90 -154 -160 -154c-54 0 -86 14 -86 26c0 8 6 14 14 14c10 0 28 -12 72 -12
c52 0 132 40 132 126c0 80 -58 116 -110 116c-50 0 -86 -26 -100 -26c-10 0 -16 6 -16 16c0 4 2 14 8 38z" />
    <glyph glyph-name="Scaron" unicode="&#x160;" horiz-adv-x="908" 
d="M478 1290c132 0 232 -62 294 -108c7 -6 8 -10 8 -14c0 -8 -6 -14 -13 -14c-6 0 -11 4 -19 10c-48 36 -146 98 -270 98c-158 0 -308 -106 -308 -266c0 -370 638 -278 638 -674c0 -202 -142 -334 -374 -334c-158 0 -266 79 -326 125c-7 6 -8 10 -8 14c0 8 6 14 13 14
c6 0 11 -4 19 -10c52 -38 156 -115 302 -115c214 0 346 118 346 306c0 372 -638 278 -638 674c0 178 162 294 336 294zM694 1642c12 6 14 8 20 8c9 0 15 -6 15 -15s-5 -11 -18 -18l-241 -123c-8 -4 -12 -5 -17 -5s-9 1 -17 5l-241 123c-13 7 -18 9 -18 18s6 15 15 15
c6 0 8 -2 20 -8l241 -125z" />
    <glyph glyph-name="scaron" unicode="&#x161;" horiz-adv-x="738" 
d="M402 898c106 0 190 -40 216 -54c4 -2 10 -6 10 -14s-6 -14 -13 -14c-6 0 -9 2 -17 6c-42 22 -114 48 -196 48c-118 0 -248 -58 -248 -186c0 -220 504 -208 504 -452c0 -140 -120 -244 -284 -244c-158 0 -281 79 -288 84c-4 3 -6 6 -6 12c0 7 5 14 14 14c7 0 11 -4 18 -8
c9 -5 118 -74 262 -74c148 0 256 90 256 216c0 220 -504 208 -504 452c0 146 142 214 276 214zM387 1117l241 125c11 6 14 8 20 8c8 0 14 -6 14 -15s-5 -11 -17 -18l-241 -123c-8 -4 -12 -5 -17 -5s-9 1 -17 5l-241 123c-12 7 -17 9 -17 18s6 15 14 15c6 0 9 -2 20 -8z" />
    <glyph glyph-name="Tcommaaccent" unicode="&#x162;" horiz-adv-x="904" 
d="M404 -128l27 124c3 13 3 16 3 19v1235h-399c-10 0 -15 5 -15 14s5 14 15 14h806c10 0 15 -5 15 -14s-5 -14 -15 -14h-379v-1235c0 -12 -2 -23 -5 -35l-28 -126c22 10 52 20 84 20c70 0 138 -50 138 -144c0 -100 -90 -154 -160 -154c-29 0 -63 7 -75 12c-8 3 -11 8 -11 14
c0 8 6 14 14 14c10 0 28 -13 72 -13c52 0 132 41 132 127c0 80 -58 116 -110 116c-50 0 -86 -26 -100 -26c-10 0 -16 6 -16 16c0 4 2 14 7 36z" />
    <glyph glyph-name="tcommaaccent" unicode="&#x163;" horiz-adv-x="610" 
d="M270 -126l30 136c-84 34 -146 114 -146 304v544h-142c-8 0 -14 6 -14 14s6 14 14 14h142v282c0 8 6 14 14 14s14 -6 14 -14v-282h312c8 0 14 -6 14 -14s-6 -14 -14 -14h-312v-544c0 -268 130 -298 260 -298c48 0 94 16 114 24c8 4 16 8 20 8c8 0 14 -6 14 -12
c0 -8 -4 -12 -8 -14c-14 -8 -78 -34 -140 -34c-40 0 -80 4 -116 12c-2 -14 -12 -50 -32 -146c22 10 52 20 84 20c70 0 138 -50 138 -144c0 -100 -90 -154 -160 -154c-54 0 -86 14 -86 26c0 8 6 14 14 14c10 0 28 -12 72 -12c52 0 132 40 132 126c0 80 -58 116 -110 116
c-50 0 -86 -26 -100 -26c-10 0 -16 6 -16 16c0 4 2 14 8 38z" />
    <glyph glyph-name="Tcaron" unicode="&#x164;" horiz-adv-x="904" 
d="M434 15v1235h-399c-10 0 -15 5 -15 14s5 14 15 14h806c10 0 15 -5 15 -14s-5 -14 -15 -14h-379v-1235c0 -10 -5 -15 -14 -15s-14 5 -14 15zM692 1642c12 6 14 8 20 8c9 0 15 -6 15 -15s-5 -11 -18 -18l-241 -123c-8 -4 -12 -5 -17 -5s-9 1 -17 5l-241 123
c-13 7 -18 9 -18 18s6 15 15 15c6 0 8 -2 20 -8l241 -125z" />
    <glyph glyph-name="tcaron" unicode="&#x165;" horiz-adv-x="610" 
d="M154 886v281c0 10 5 15 14 15s14 -5 14 -15v-281h311c10 0 15 -5 15 -14s-5 -14 -15 -14h-311v-544c0 -268 130 -298 260 -298c48 0 91 16 112 24c13 5 17 8 23 8c7 0 13 -6 13 -14c0 -7 -5 -11 -11 -14c-19 -8 -79 -32 -137 -32c-146 0 -288 40 -288 326v544h-141
c-10 0 -15 5 -15 14s5 14 15 14h141zM474 1365v-8c0 -46 -6 -202 -88 -284c-4 -4 -8 -6 -12 -6c-8 0 -14 6 -14 12s2 8 6 12c76 74 80 232 80 274c0 8 6 14 14 14s14 -6 14 -14z" />
    <glyph glyph-name="Uring" unicode="&#x16e;" horiz-adv-x="1132" 
d="M944 402v861c0 10 5 15 14 15s14 -5 14 -15v-865c0 -220 -136 -410 -406 -410s-406 190 -406 410v865c0 10 5 15 14 15s14 -5 14 -15v-861c0 -216 130 -386 378 -386s378 170 378 386zM435 1618c0 72 58 130 130 130s130 -58 130 -130s-58 -130 -130 -130
s-130 58 -130 130zM667 1618c0 56 -46 102 -102 102s-102 -46 -102 -102s46 -102 102 -102s102 46 102 102z" />
    <glyph glyph-name="uring" unicode="&#x16f;" horiz-adv-x="916" 
d="M168 871v-547c0 -220 40 -310 280 -310c124 0 226 56 300 130v727c0 10 5 15 14 15s14 -5 14 -15v-856c0 -10 -5 -15 -14 -15s-14 5 -14 15v93c-68 -64 -176 -120 -304 -120c-234 0 -304 76 -304 336v547c0 10 5 15 14 15s14 -5 14 -15zM327 1218c0 72 58 130 130 130
s130 -58 130 -130s-58 -130 -130 -130s-130 58 -130 130zM457 1320c-56 0 -102 -46 -102 -102s46 -102 102 -102s102 46 102 102s-46 102 -102 102z" />
    <glyph glyph-name="Uhungarumlaut" unicode="&#x170;" horiz-adv-x="1132" 
d="M944 402v861c0 10 5 15 14 15s14 -5 14 -15v-865c0 -220 -136 -410 -406 -410s-406 190 -406 410v865c0 10 5 15 14 15s14 -5 14 -15v-861c0 -216 130 -386 378 -386s378 170 378 386zM448 1516l70 180c5 13 8 18 17 18c10 0 15 -5 15 -13c0 -4 -1 -7 -4 -14l-70 -181
c-5 -13 -8 -18 -17 -18c-10 0 -15 5 -15 13c0 4 1 7 4 15zM665 1516l70 180c5 13 8 18 17 18c10 0 15 -5 15 -13c0 -4 -1 -7 -4 -14l-70 -181c-5 -13 -8 -18 -17 -18c-10 0 -15 5 -15 13c0 4 1 7 4 15z" />
    <glyph glyph-name="uhungarumlaut" unicode="&#x171;" horiz-adv-x="916" 
d="M168 871v-547c0 -220 40 -310 280 -310c124 0 226 56 300 130v727c0 10 5 15 14 15s14 -5 14 -15v-856c0 -10 -5 -15 -14 -15s-14 5 -14 15v93c-68 -64 -176 -120 -304 -120c-234 0 -304 76 -304 336v547c0 10 5 15 14 15s14 -5 14 -15zM350 1116l70 180c5 13 8 18 17 18
c10 0 15 -5 15 -13c0 -4 -1 -7 -4 -14l-70 -181c-5 -13 -8 -18 -17 -18c-10 0 -15 5 -15 13c0 4 1 7 4 15zM567 1116l70 180c5 13 8 18 17 18c10 0 15 -5 15 -13c0 -4 -1 -7 -4 -14l-70 -181c-5 -13 -8 -18 -17 -18c-10 0 -15 5 -15 13c0 4 1 7 4 15z" />
    <glyph glyph-name="Ydieresis" unicode="&#x178;" horiz-adv-x="912" 
d="M442 15v513c-16 2 -28 10 -44 32c-66 86 -282 532 -352 686c-4 9 -7 15 -7 19c0 8 7 13 14 13c8 0 11 -3 15 -12c6 -14 244 -530 354 -694c8 -12 18 -18 34 -18s26 6 34 18c110 164 348 680 354 694c4 9 7 12 15 12c7 0 14 -5 14 -13c0 -4 -3 -10 -7 -19
c-70 -154 -286 -600 -352 -686c-16 -22 -28 -30 -44 -32v-513c0 -10 -5 -15 -14 -15s-14 5 -14 15zM312 1503v70c0 10 5 15 14 15s14 -5 14 -15v-70c0 -10 -5 -15 -14 -15s-14 5 -14 15zM572 1503v70c0 10 5 15 14 15s14 -5 14 -15v-70c0 -10 -5 -15 -14 -15s-14 5 -14 15z
" />
    <glyph glyph-name="Zacute" unicode="&#x179;" horiz-adv-x="870" 
d="M815 0h-751c-16 0 -24 8 -24 28c0 16 4 34 12 50c74 146 394 654 588 954c34 54 122 170 130 218h-715c-10 0 -15 5 -15 14s5 14 15 14h719c16 0 24 -8 24 -24c0 -52 -96 -180 -136 -240c-210 -318 -522 -822 -584 -948c-6 -12 -10 -26 -10 -38h747c10 0 15 -5 15 -14
s-5 -14 -15 -14zM594 1658c5 2 9 4 14 4c6 0 14 -4 14 -14s-6 -13 -18 -18l-326 -138c-5 -2 -9 -4 -14 -4c-6 0 -14 4 -14 14s6 13 18 18z" />
    <glyph glyph-name="zacute" unicode="&#x17a;" horiz-adv-x="834" 
d="M97 886h599c12 0 20 -8 20 -20c0 -66 -116 -178 -178 -258c0 0 -390 -490 -424 -560c-4 -8 -6 -16 -6 -20h631c10 0 15 -5 15 -14s-5 -14 -15 -14h-639c-12 0 -20 8 -20 20c0 16 4 30 10 42c38 72 258 352 426 564c30 38 168 190 172 232h-591c-10 0 -15 5 -15 14
s5 14 15 14zM249 1120l326 138c5 2 9 4 14 4c6 0 14 -4 14 -14s-6 -13 -18 -18l-326 -138c-5 -2 -9 -4 -14 -4c-6 0 -14 4 -14 14s6 13 18 18z" />
    <glyph glyph-name="Zdotaccent" unicode="&#x17b;" horiz-adv-x="870" 
d="M815 0h-751c-16 0 -24 8 -24 28c0 16 4 34 12 50c74 146 394 654 588 954c34 54 122 170 130 218h-715c-10 0 -15 5 -15 14s5 14 15 14h719c16 0 24 -8 24 -24c0 -52 -96 -180 -136 -240c-210 -318 -522 -822 -584 -948c-6 -12 -10 -26 -10 -38h747c10 0 15 -5 15 -14
s-5 -14 -15 -14zM397 1526c0 22 16 38 38 38s38 -16 38 -38s-16 -38 -38 -38s-38 16 -38 38z" />
    <glyph glyph-name="zdotaccent" unicode="&#x17c;" horiz-adv-x="834" 
d="M97 886h599c12 0 20 -8 20 -20c0 -66 -116 -178 -178 -258c0 0 -390 -490 -424 -560c-4 -8 -6 -16 -6 -20h631c10 0 15 -5 15 -14s-5 -14 -15 -14h-639c-12 0 -20 8 -20 20c0 16 4 30 10 42c38 72 258 352 426 564c30 38 168 190 172 232h-591c-10 0 -15 5 -15 14
s5 14 15 14zM417 1088c-22 0 -38 16 -38 38s16 38 38 38s38 -16 38 -38s-16 -38 -38 -38z" />
    <glyph glyph-name="Zcaron" unicode="&#x17d;" horiz-adv-x="870" 
d="M815 0h-751c-16 0 -24 8 -24 28c0 16 4 34 12 50c74 146 394 654 588 954c34 54 122 170 130 218h-715c-10 0 -15 5 -15 14s5 14 15 14h719c16 0 24 -8 24 -24c0 -52 -96 -180 -136 -240c-210 -318 -522 -822 -584 -948c-6 -12 -10 -26 -10 -38h747c10 0 15 -5 15 -14
s-5 -14 -15 -14zM675 1642c12 6 14 8 20 8c9 0 15 -6 15 -15s-5 -11 -18 -18l-241 -123c-8 -4 -12 -5 -17 -5s-9 1 -17 5l-241 123c-13 7 -18 9 -18 18s6 15 15 15c6 0 8 -2 20 -8l241 -125z" />
    <glyph glyph-name="zcaron" unicode="&#x17e;" horiz-adv-x="834" 
d="M97 886h599c12 0 20 -8 20 -20c0 -66 -116 -178 -178 -258c0 0 -390 -490 -424 -560c-4 -8 -6 -16 -6 -20h631c10 0 15 -5 15 -14s-5 -14 -15 -14h-639c-12 0 -20 8 -20 20c0 16 4 30 10 42c38 72 258 352 426 564c30 38 168 190 172 232h-591c-10 0 -15 5 -15 14
s5 14 15 14zM417 1117l241 125c11 6 14 8 20 8c8 0 14 -6 14 -15s-5 -11 -17 -18l-241 -123c-8 -4 -12 -5 -17 -5s-9 1 -17 5l-241 123c-12 7 -17 9 -17 18s6 15 14 15c6 0 9 -2 20 -8z" />
    <glyph glyph-name="florin" unicode="&#x192;" horiz-adv-x="1248" 
d="M514 112l130 648h-234c-8 0 -14 6 -14 14s6 14 14 14h240l58 290c52 264 134 366 274 366c118 0 178 -54 180 -56c4 -4 6 -8 6 -12c0 -8 -6 -14 -14 -14c-2 0 -6 0 -10 4c-12 10 -58 50 -162 50c-124 0 -196 -94 -246 -342l-56 -286h280c8 0 14 -6 14 -14s-6 -14 -14 -14
h-286l-132 -654c-64 -316 -198 -364 -274 -364c-118 0 -180 54 -182 56s-6 6 -6 12c0 8 6 14 14 14c4 0 8 -2 10 -4c6 -6 64 -52 164 -52c116 0 202 126 246 344z" />
    <glyph glyph-name="Scommaaccent" unicode="&#x218;" horiz-adv-x="908" 
d="M478 1290c132 0 232 -62 294 -108c7 -6 8 -10 8 -14c0 -8 -6 -14 -13 -14c-6 0 -11 4 -19 10c-48 36 -146 98 -270 98c-158 0 -308 -106 -308 -266c0 -370 638 -278 638 -674c0 -202 -142 -334 -374 -334c-158 0 -266 79 -326 125c-7 6 -8 10 -8 14c0 8 6 14 13 14
c6 0 11 -4 19 -10c52 -38 156 -115 302 -115c214 0 346 118 346 306c0 372 -638 278 -638 674c0 178 162 294 336 294zM439 -110c0 6 6 12 14 12c20 0 70 -40 70 -106c0 -80 -68 -124 -146 -124c-8 0 -16 6 -16 14s6 14 14 14c60 0 120 28 120 96c0 48 -30 68 -40 74
s-16 10 -16 20z" />
    <glyph glyph-name="scommaaccent" unicode="&#x219;" horiz-adv-x="738" 
d="M126 684c0 146 142 214 276 214c106 0 190 -40 216 -54c4 -2 10 -6 10 -14s-6 -14 -13 -14c-6 0 -9 2 -17 6c-42 22 -114 48 -196 48c-118 0 -248 -58 -248 -186c0 -220 504 -208 504 -452c0 -140 -120 -244 -284 -244c-158 0 -281 79 -288 84c-4 3 -6 6 -6 12
c0 7 5 14 14 14c7 0 11 -4 18 -8c9 -5 118 -74 262 -74c148 0 256 90 256 216c0 220 -504 208 -504 452zM363 -110c0 6 6 12 14 12c20 0 70 -40 70 -106c0 -80 -68 -124 -146 -124c-8 0 -16 6 -16 14s6 14 14 14c60 0 120 28 120 96c0 48 -30 68 -40 74s-16 10 -16 20z" />
    <glyph glyph-name="uni021A" unicode="&#x21a;" horiz-adv-x="904" 
d="M434 15v1235h-399c-10 0 -15 5 -15 14s5 14 15 14h806c10 0 15 -5 15 -14s-5 -14 -15 -14h-379v-1235c0 -10 -5 -15 -14 -15s-14 5 -14 15zM364 -314c0 9 5 14 14 14c60 0 120 28 120 96c0 48 -30 67 -40 74s-16 9 -16 18c0 7 6 14 14 14c5 0 10 -2 18 -7
c25 -16 52 -49 52 -99c0 -80 -68 -124 -146 -124c-10 0 -16 5 -16 14z" />
    <glyph glyph-name="uni021B" unicode="&#x21b;" horiz-adv-x="610" 
d="M154 886v281c0 10 5 15 14 15s14 -5 14 -15v-281h311c10 0 15 -5 15 -14s-5 -14 -15 -14h-311v-544c0 -268 130 -298 260 -298c48 0 91 16 112 24c13 5 17 8 23 8c7 0 13 -6 13 -14c0 -7 -5 -11 -11 -14c-19 -8 -79 -32 -137 -32c-146 0 -288 40 -288 326v544h-141
c-10 0 -15 5 -15 14s5 14 15 14h141zM274 -314c0 8 6 14 14 14c60 0 120 28 120 96c0 48 -30 68 -40 74s-16 10 -16 20c0 6 6 12 14 12c20 0 70 -40 70 -106c0 -80 -68 -124 -146 -124c-8 0 -16 6 -16 14z" />
    <glyph glyph-name="circumflex" unicode="&#x2c6;" horiz-adv-x="750" 
d="M117 1122l241 123c8 4 12 5 17 5s9 -1 17 -5l241 -123c12 -7 17 -9 17 -18s-6 -15 -14 -15c-6 0 -9 2 -20 8l-241 125l-241 -125c-11 -6 -14 -8 -20 -8c-8 0 -14 6 -14 15s5 11 17 18z" />
    <glyph glyph-name="caron" unicode="&#x2c7;" horiz-adv-x="752" 
d="M376 1117l241 125c11 6 14 8 20 8c8 0 14 -6 14 -15s-5 -11 -17 -18l-241 -123c-8 -4 -12 -5 -17 -5s-9 1 -17 5l-241 123c-12 7 -17 9 -17 18s6 15 14 15c6 0 9 -2 20 -8z" />
    <glyph glyph-name="breve" unicode="&#x2d8;" horiz-adv-x="640" 
d="M519 1258c8 0 14 -5 14 -14c0 -8 -2 -25 -9 -45c-29 -77 -108 -111 -204 -111c-100 0 -176 36 -204 111c-7 20 -9 37 -9 45c0 9 6 14 14 14s13 -4 14 -14c10 -89 88 -128 185 -128c101 0 175 41 185 128c1 10 6 14 14 14z" />
    <glyph glyph-name="dotaccent" unicode="&#x2d9;" horiz-adv-x="268" 
d="M134 1088c-22 0 -38 16 -38 38s16 38 38 38s38 -16 38 -38s-16 -38 -38 -38z" />
    <glyph glyph-name="ring" unicode="&#x2da;" horiz-adv-x="458" 
d="M99 1218c0 72 58 130 130 130s130 -58 130 -130s-58 -130 -130 -130s-130 58 -130 130zM229 1320c-56 0 -102 -46 -102 -102s46 -102 102 -102s102 46 102 102s-46 102 -102 102z" />
    <glyph glyph-name="ogonek" unicode="&#x2db;" horiz-adv-x="534" 
d="M219 24c7 0 13 -4 13 -12c0 -7 -5 -10 -14 -18c-28 -25 -90 -86 -90 -192c0 -56 28 -118 112 -118c53 0 97 20 125 34c6 3 11 6 16 6c8 0 14 -6 14 -14c0 -5 -2 -9 -11 -14c-19 -10 -79 -40 -144 -40c-104 0 -140 78 -140 146c0 118 70 190 104 216c6 4 10 6 15 6z" />
    <glyph glyph-name="tilde" unicode="&#x2dc;" horiz-adv-x="692" 
d="M232 1165c40 0 81 -11 122 -27c39 -14 73 -22 105 -22c34 0 66 9 99 30c9 6 15 10 22 10c8 0 12 -6 12 -12c0 -9 -10 -15 -20 -22c-36 -24 -75 -34 -115 -34c-36 0 -73 8 -117 25c-36 13 -73 24 -108 24c-33 0 -65 -10 -98 -31c-9 -6 -15 -10 -22 -10c-8 0 -12 6 -12 12
c0 9 10 15 20 22c37 25 74 35 112 35z" />
    <glyph glyph-name="hungarumlaut" unicode="&#x2dd;" horiz-adv-x="566" 
d="M103 1116l70 180c5 13 8 18 17 18c10 0 15 -5 15 -13c0 -4 -1 -7 -4 -14l-70 -181c-5 -13 -8 -18 -17 -18c-10 0 -15 5 -15 13c0 4 1 7 4 15zM320 1116l70 180c5 13 8 18 17 18c10 0 15 -5 15 -13c0 -4 -1 -7 -4 -14l-70 -181c-5 -13 -8 -18 -17 -18c-10 0 -15 5 -15 13
c0 4 1 7 4 15z" />
    <glyph glyph-name="uni0394" unicode="&#x394;" horiz-adv-x="1154" 
d="M995 0h-836c-10 0 -18 8 -18 18c0 4 2 12 8 26l408 1002c4 12 10 20 20 20s16 -8 20 -20l408 -1002c6 -14 8 -22 8 -26c0 -10 -8 -18 -18 -18zM981 28l-404 996l-404 -996h808z" />
    <glyph glyph-name="uni03A9" unicode="&#x3a9;" horiz-adv-x="1488" 
d="M1294 0h-370c-10 0 -18 8 -18 18s10 16 26 26c76 46 316 238 316 570c0 356 -212 614 -504 614s-504 -258 -504 -614c0 -332 240 -524 316 -570c16 -10 26 -16 26 -26s-8 -18 -18 -18h-370c-8 0 -14 6 -14 14s6 14 14 14h336c-112 70 -318 278 -318 586
c0 372 224 642 532 642s532 -270 532 -642c0 -308 -206 -516 -318 -586h336c8 0 14 -6 14 -14s-6 -14 -14 -14z" />
    <glyph glyph-name="uni03BC" unicode="&#x3bc;" horiz-adv-x="918" 
d="M750 126v746c0 8 6 14 14 14s14 -6 14 -14v-858c0 -8 -6 -14 -14 -14s-14 6 -14 14v80c-50 -48 -164 -106 -284 -106c-170 0 -276 50 -298 152v-360c0 -8 -6 -14 -14 -14s-14 6 -14 14v1092c0 8 6 14 14 14s14 -6 14 -14v-596c0 -200 102 -260 298 -260
c120 0 226 52 284 110z" />
    <glyph glyph-name="pi" unicode="&#x3c0;" horiz-adv-x="1188" 
d="M742 314v544h-464v-844c0 -8 -6 -14 -14 -14s-14 6 -14 14v844h-116c-8 0 -14 6 -14 14s6 14 14 14h794c8 0 14 -6 14 -14s-6 -14 -14 -14h-158v-544c0 -274 100 -298 194 -298c34 0 64 18 76 26c6 4 10 6 16 6s12 -6 12 -12s-2 -10 -10 -16c-12 -8 -50 -32 -94 -32
c-112 0 -222 36 -222 326z" />
    <glyph glyph-name="uni2007" unicode="&#x2007;" horiz-adv-x="1020" 
 />
    <glyph glyph-name="uni2008" unicode="&#x2008;" horiz-adv-x="308" 
 />
    <glyph glyph-name="uni200B" unicode="&#x200b;" horiz-adv-x="0" 
 />
    <glyph glyph-name="uniFEFF" unicode="&#xfeff;" horiz-adv-x="0" 
 />
    <glyph glyph-name="endash" unicode="&#x2013;" horiz-adv-x="994" 
d="M800 436h-606c-8 0 -14 6 -14 14s6 14 14 14h606c8 0 14 -6 14 -14s-6 -14 -14 -14z" />
    <glyph glyph-name="emdash" unicode="&#x2014;" horiz-adv-x="1234" 
d="M1040 436h-846c-8 0 -14 6 -14 14s6 14 14 14h846c8 0 14 -6 14 -14s-6 -14 -14 -14z" />
    <glyph glyph-name="quoteleft" unicode="&#x2018;" horiz-adv-x="352" 
d="M212 1278c8 0 14 -6 14 -12s-2 -8 -6 -12c-76 -74 -80 -232 -80 -274c0 -8 -6 -14 -14 -14s-14 6 -14 14v8c0 46 6 202 88 284c4 4 8 6 12 6z" />
    <glyph glyph-name="quoteright" unicode="&#x2019;" horiz-adv-x="352" 
d="M233 1264v-8c0 -46 -6 -202 -88 -284c-4 -4 -8 -6 -12 -6c-8 0 -14 6 -14 12s2 8 6 12c76 74 80 232 80 274c0 8 6 14 14 14s14 -6 14 -14z" />
    <glyph glyph-name="quotesinglbase" unicode="&#x201a;" horiz-adv-x="352" 
d="M233 74v-8c0 -46 -6 -202 -88 -284c-4 -4 -8 -6 -12 -6c-8 0 -14 6 -14 12s2 8 6 12c76 74 80 232 80 274c0 8 6 14 14 14s14 -6 14 -14z" />
    <glyph glyph-name="quotedblleft" unicode="&#x201c;" horiz-adv-x="580" 
d="M212 1278c8 0 14 -6 14 -13c0 -4 -2 -7 -6 -11c-76 -76 -80 -232 -80 -274c0 -9 -5 -14 -14 -14s-14 5 -14 14c0 54 5 210 88 292c4 4 8 6 12 6zM440 1278c8 0 14 -6 14 -13c0 -4 -2 -7 -6 -11c-76 -76 -80 -232 -80 -274c0 -9 -5 -14 -14 -14s-14 5 -14 14
c0 54 5 210 88 292c4 4 8 6 12 6z" />
    <glyph glyph-name="quotedblright" unicode="&#x201d;" horiz-adv-x="580" 
d="M232 1264v-8c0 -46 -6 -202 -88 -284c-4 -4 -8 -6 -12 -6c-8 0 -14 6 -14 12s2 8 6 12c76 74 80 232 80 274c0 8 6 14 14 14s14 -6 14 -14zM460 1264v-8c0 -46 -6 -202 -88 -284c-4 -4 -8 -6 -12 -6c-8 0 -14 6 -14 12s2 8 6 12c76 74 80 232 80 274c0 8 6 14 14 14
s14 -6 14 -14z" />
    <glyph glyph-name="quotedblbase" unicode="&#x201e;" horiz-adv-x="580" 
d="M233 74v-8c0 -46 -6 -202 -88 -284c-4 -4 -8 -6 -12 -6c-8 0 -14 6 -14 12s2 8 6 12c76 74 80 232 80 274c0 8 6 14 14 14s14 -6 14 -14zM461 74v-8c0 -46 -6 -202 -88 -284c-4 -4 -8 -6 -12 -6c-8 0 -14 6 -14 12s2 8 6 12c76 74 80 232 80 274c0 8 6 14 14 14
s14 -6 14 -14z" />
    <glyph glyph-name="dagger" unicode="&#x2020;" horiz-adv-x="1032" 
d="M502 -126v984h-368c-8 0 -14 6 -14 14s6 14 14 14h368v422c0 8 6 14 14 14s14 -6 14 -14v-422h368c8 0 14 -6 14 -14s-6 -14 -14 -14h-368v-984c0 -8 -6 -14 -14 -14s-14 6 -14 14z" />
    <glyph glyph-name="daggerdbl" unicode="&#x2021;" horiz-adv-x="1034" 
d="M502 -126v742h-368c-8 0 -14 6 -14 14s6 14 14 14h368v214h-368c-8 0 -14 6 -14 14s6 14 14 14h368v422c0 8 6 14 14 14s14 -6 14 -14v-422h368c8 0 14 -6 14 -14s-6 -14 -14 -14h-368v-214h370c8 0 14 -6 14 -14s-6 -14 -14 -14h-370v-742c0 -8 -6 -14 -14 -14
s-14 6 -14 14z" />
    <glyph glyph-name="bullet" unicode="&#x2022;" horiz-adv-x="378" 
d="M190 576c38 0 70 -32 70 -70s-32 -70 -70 -70s-70 32 -70 70s32 70 70 70z" />
    <glyph glyph-name="ellipsis" unicode="&#x2026;" horiz-adv-x="588" 
d="M120 2v72c0 8 6 14 14 14s14 -6 14 -14v-72c0 -8 -6 -14 -14 -14s-14 6 -14 14zM280 2v72c0 8 6 14 14 14s14 -6 14 -14v-72c0 -8 -6 -14 -14 -14s-14 6 -14 14zM440 2v72c0 8 6 14 14 14s14 -6 14 -14v-72c0 -8 -6 -14 -14 -14s-14 6 -14 14z" />
    <glyph glyph-name="perthousand" unicode="&#x2030;" horiz-adv-x="1998" 
d="M272 26l862 1248c8 12 12 16 18 16c8 0 14 -4 14 -12c0 -4 -2 -8 -6 -14l-862 -1248c-8 -12 -12 -16 -18 -16c-8 0 -14 4 -14 12c0 4 2 8 6 14zM100 940c0 208 90 344 228 344c136 0 228 -138 228 -344c0 -212 -84 -338 -228 -338s-228 126 -228 338zM528 940
c0 158 -62 316 -200 316c-122 0 -200 -124 -200 -316s76 -310 200 -310s200 118 200 310zM840 332c0 208 90 344 228 344c136 0 228 -138 228 -344c0 -212 -84 -338 -228 -338s-228 126 -228 338zM1442 332c0 208 90 344 228 344c136 0 228 -138 228 -344
c0 -212 -84 -338 -228 -338s-228 126 -228 338zM1268 332c0 158 -62 316 -200 316c-122 0 -200 -124 -200 -316s76 -310 200 -310s200 118 200 310zM1870 332c0 158 -62 316 -200 316c-122 0 -200 -124 -200 -316s76 -310 200 -310s200 118 200 310z" />
    <glyph glyph-name="guilsinglleft" unicode="&#x2039;" horiz-adv-x="478" 
d="M330 112l-200 300c-4 6 -8 12 -8 18s4 12 8 18l200 300c4 6 8 12 18 12c6 0 12 -6 12 -14c0 -4 -4 -10 -8 -16l-204 -300l204 -300c4 -6 8 -12 8 -16c0 -8 -6 -14 -12 -14c-10 0 -14 6 -18 12z" />
    <glyph glyph-name="guilsinglright" unicode="&#x203a;" horiz-adv-x="480" 
d="M350 412l-200 -300c-4 -6 -8 -12 -18 -12c-6 0 -12 6 -12 14c0 4 4 10 8 16l204 300l-204 300c-4 6 -8 12 -8 16c0 8 6 14 12 14c10 0 14 -6 18 -12l200 -300c4 -6 8 -12 8 -18s-4 -12 -8 -18z" />
    <glyph glyph-name="fraction" unicode="&#x2044;" horiz-adv-x="120" 
d="M-384 26l862 1248c8 12 12 16 18 16c8 0 14 -4 14 -12c0 -4 -2 -8 -6 -14l-862 -1248c-8 -12 -12 -16 -18 -16c-8 0 -14 4 -14 12c0 4 2 8 6 14z" />
    <glyph glyph-name="uni2070" unicode="&#x2070;" 
d="M118 940c0 208 90 344 228 344c136 0 228 -138 228 -344c0 -212 -84 -338 -228 -338s-228 126 -228 338zM546 940c0 158 -62 316 -200 316c-122 0 -200 -124 -200 -316s76 -310 200 -310s200 118 200 310z" />
    <glyph glyph-name="uni2074" unicode="&#x2074;" 
d="M448 637v161h-308c-8 0 -16 6 -16 16c0 4 2 8 4 14c94 218 274 406 320 450c6 6 10 10 16 10c8 0 14 -4 14 -12s-6 -14 -10 -18c-32 -32 -200 -196 -310 -432h290v317c0 10 5 15 14 15s14 -5 14 -15v-317h75c10 0 15 -5 15 -14s-5 -14 -15 -14h-75v-161
c0 -10 -5 -15 -14 -15s-14 5 -14 15z" />
    <glyph glyph-name="uni2075" unicode="&#x2075;" 
d="M208 1250v-252c24 10 64 26 118 26c120 0 210 -84 210 -198c0 -164 -114 -220 -210 -220c-82 0 -147 40 -162 53c-4 4 -6 7 -6 12c0 8 6 14 14 14c3 0 6 -1 9 -3c14 -10 65 -48 145 -48c86 0 182 50 182 192c0 98 -78 170 -182 170c-50 0 -86 -14 -106 -24
c-8 -4 -16 -10 -22 -10c-12 0 -18 8 -18 18v280c0 10 8 18 18 18h285c10 0 15 -5 15 -14s-5 -14 -15 -14h-275z" />
    <glyph glyph-name="uni2076" unicode="&#x2076;" 
d="M176 910v-8c6 28 40 130 174 130c152 0 196 -132 196 -206c0 -80 -42 -220 -196 -220c-138 0 -202 106 -202 304c0 260 74 374 218 374c102 0 142 -42 150 -50c6 -6 8 -10 8 -14c0 -8 -6 -14 -13 -14c-5 0 -8 2 -13 6c-12 10 -50 44 -132 44c-80 0 -190 -38 -190 -346z
M182 826c0 -74 36 -192 168 -192s168 118 168 192c0 62 -38 178 -168 178s-168 -116 -168 -178z" />
    <glyph glyph-name="uni2077" unicode="&#x2077;" 
d="M152 1278h381c10 0 18 -8 18 -18c0 -48 -56 -150 -114 -252c-70 -124 -156 -280 -156 -386c0 -9 -5 -14 -15 -14c-8 0 -13 5 -13 15c0 112 86 265 160 399c50 86 98 176 108 228h-369c-10 0 -15 5 -15 15c0 8 5 13 15 13z" />
    <glyph glyph-name="uni2078" unicode="&#x2078;" 
d="M442 944c56 -22 114 -64 114 -158c0 -120 -74 -180 -210 -180c-126 0 -208 70 -208 180c0 90 50 154 106 178c-64 30 -88 76 -88 146c0 138 120 174 190 174c96 0 192 -54 192 -174c0 -72 -46 -138 -96 -166zM510 1110c0 114 -104 146 -164 146s-162 -32 -162 -146
c0 -124 112 -138 208 -152c54 2 118 70 118 152zM166 786c0 -114 94 -152 180 -152c82 0 182 26 182 152c0 124 -112 144 -234 160c-60 0 -128 -60 -128 -160z" />
    <glyph glyph-name="uni2079" unicode="&#x2079;" 
d="M518 980v8c-6 -28 -40 -130 -174 -130c-152 0 -196 132 -196 206c0 80 42 220 196 220c138 0 202 -106 202 -304c0 -260 -74 -374 -218 -374c-96 0 -142 42 -150 50c-6 6 -8 10 -8 14c0 8 6 14 14 14c4 0 7 -2 12 -6c13 -11 50 -44 132 -44c80 0 190 38 190 346z
M512 1064c0 74 -36 192 -168 192s-168 -118 -168 -192c0 -62 38 -178 168 -178s168 116 168 178z" />
    <glyph glyph-name="uni2080" unicode="&#x2080;" 
d="M118 58c0 208 90 344 228 344c136 0 228 -138 228 -344c0 -212 -84 -338 -228 -338s-228 126 -228 338zM546 58c0 158 -62 316 -200 316c-122 0 -200 -124 -200 -316s76 -310 200 -310s200 118 200 310z" />
    <glyph glyph-name="uni2081" unicode="&#x2081;" horiz-adv-x="448" 
d="M210 -253v613l-96 -66c-6 -4 -12 -8 -18 -8s-12 6 -12 14c0 6 4 10 10 14l112 76c6 4 10 6 16 6c10 0 16 -8 16 -18v-631c0 -10 -5 -15 -14 -15s-14 5 -14 15z" />
    <glyph glyph-name="uni2082" unicode="&#x2082;" 
d="M183 -242h323c10 0 15 -5 15 -14s-5 -14 -15 -14h-333c-10 0 -18 8 -18 16c0 148 334 326 334 484c0 88 -52 144 -150 144c-71 0 -116 -34 -133 -43c-7 -4 -10 -5 -13 -5c-8 0 -14 6 -14 14c0 4 2 9 10 14c11 7 74 48 150 48c52 0 178 -18 178 -172
c0 -170 -312 -334 -334 -472z" />
    <glyph glyph-name="uni2083" unicode="&#x2083;" 
d="M323 402c104 0 186 -54 186 -172c0 -86 -52 -142 -126 -162c76 -24 138 -64 138 -170c0 -104 -96 -174 -198 -174c-100 0 -160 39 -174 48c-6 4 -8 8 -8 13c0 8 6 14 14 14c3 0 5 -1 10 -4c7 -4 70 -43 158 -43c78 0 170 54 170 146c0 134 -128 154 -216 154
c-9 0 -14 5 -14 14s5 14 14 14c86 0 204 23 204 150c0 98 -68 144 -158 144c-65 0 -116 -32 -134 -42c-6 -3 -9 -4 -12 -4c-8 0 -14 6 -14 14c0 5 3 10 13 16c15 8 82 44 147 44z" />
    <glyph glyph-name="uni2084" unicode="&#x2084;" 
d="M448 -245v161h-308c-8 0 -16 6 -16 16c0 4 2 8 4 14c94 218 274 406 320 450c6 6 10 10 16 10c8 0 14 -4 14 -12s-6 -14 -10 -18c-32 -32 -200 -196 -310 -432h290v317c0 10 5 15 14 15s14 -5 14 -15v-317h75c10 0 15 -5 15 -14s-5 -14 -15 -14h-75v-161
c0 -10 -5 -15 -14 -15s-14 5 -14 15z" />
    <glyph glyph-name="uni2085" unicode="&#x2085;" 
d="M208 368v-252c24 10 64 26 118 26c120 0 210 -84 210 -198c0 -164 -114 -220 -210 -220c-82 0 -147 40 -162 53c-4 4 -6 7 -6 12c0 8 6 14 14 14c3 0 6 -1 9 -3c14 -10 65 -48 145 -48c86 0 182 50 182 192c0 98 -78 170 -182 170c-50 0 -86 -14 -106 -24
c-8 -4 -16 -10 -22 -10c-12 0 -18 8 -18 18v280c0 10 8 18 18 18h285c10 0 15 -5 15 -14s-5 -14 -15 -14h-275z" />
    <glyph glyph-name="uni2086" unicode="&#x2086;" 
d="M176 28v-8c6 28 40 130 174 130c152 0 196 -132 196 -206c0 -80 -42 -220 -196 -220c-138 0 -202 106 -202 304c0 260 74 374 218 374c102 0 142 -42 150 -50c6 -6 8 -10 8 -14c0 -8 -6 -14 -13 -14c-5 0 -8 2 -13 6c-12 10 -50 44 -132 44c-80 0 -190 -38 -190 -346z
M182 -56c0 -74 36 -192 168 -192s168 118 168 192c0 62 -38 178 -168 178s-168 -116 -168 -178z" />
    <glyph glyph-name="uni2087" unicode="&#x2087;" 
d="M152 396h381c10 0 18 -8 18 -18c0 -48 -56 -150 -114 -252c-70 -124 -156 -280 -156 -386c0 -9 -5 -14 -15 -14c-8 0 -13 5 -13 15c0 112 86 265 160 399c50 86 98 176 108 228h-369c-10 0 -15 5 -15 15c0 8 5 13 15 13z" />
    <glyph glyph-name="uni2088" unicode="&#x2088;" 
d="M442 62c56 -22 114 -64 114 -158c0 -120 -74 -180 -210 -180c-126 0 -208 70 -208 180c0 90 50 154 106 178c-64 30 -88 76 -88 146c0 138 120 174 190 174c96 0 192 -54 192 -174c0 -72 -46 -138 -96 -166zM510 228c0 114 -104 146 -164 146s-162 -32 -162 -146
c0 -124 112 -138 208 -152c54 2 118 70 118 152zM166 -96c0 -114 94 -152 180 -152c82 0 182 26 182 152c0 124 -112 144 -234 160c-60 0 -128 -60 -128 -160z" />
    <glyph glyph-name="uni2089" unicode="&#x2089;" 
d="M518 98v8c-6 -28 -40 -130 -174 -130c-152 0 -196 132 -196 206c0 80 42 220 196 220c138 0 202 -106 202 -304c0 -260 -74 -374 -218 -374c-96 0 -142 42 -150 50c-6 6 -8 10 -8 14c0 8 6 14 14 14c4 0 7 -2 12 -6c13 -11 50 -44 132 -44c80 0 190 38 190 346zM512 182
c0 74 -36 192 -168 192s-168 -118 -168 -192c0 -62 38 -178 168 -178s168 116 168 178z" />
    <glyph glyph-name="Euro" unicode="&#x20ac;" horiz-adv-x="1090" 
d="M799 532h-534c29 -313 188 -516 403 -516c104 0 186 26 276 88c6 4 9 6 14 6c6 0 13 -6 13 -14c0 -6 -5 -10 -13 -16c-94 -64 -180 -92 -290 -92c-230 0 -401 214 -431 544h-102c-10 0 -15 5 -15 14s5 14 15 14h100c-2 25 -3 51 -3 78c0 34 1 68 4 100h-101
c-10 0 -15 5 -15 14s5 14 15 14h104c38 319 215 524 447 524c118 0 188 -32 240 -66c6 -4 10 -8 10 -14c0 -8 -6 -14 -13 -14c-5 0 -11 4 -21 10c-40 24 -106 56 -216 56c-216 0 -382 -194 -419 -496h532c10 0 15 -5 15 -14s-5 -14 -15 -14h-534c-3 -32 -5 -66 -5 -100
c0 -27 1 -53 3 -78h536c10 0 15 -5 15 -14s-5 -14 -15 -14z" />
    <glyph glyph-name="trademark" unicode="&#x2122;" horiz-adv-x="1404" 
d="M141 1476h408c10 0 15 -5 15 -14s-5 -14 -15 -14h-189v-601c0 -10 -5 -15 -14 -15s-14 5 -14 15v601h-191c-10 0 -15 5 -15 14s5 14 15 14zM629 860l65 596c1 12 4 20 20 20c14 0 24 -6 32 -16c52 -70 172 -446 210 -566c38 120 158 496 210 566c8 10 18 16 32 16
c16 0 19 -8 20 -20l65 -596c1 -8 1 -11 1 -13c0 -13 -6 -17 -15 -17s-13 7 -14 17l-65 597c-47 -64 -178 -465 -209 -566c-5 -14 -9 -22 -25 -22s-20 8 -25 22c-31 101 -162 502 -209 566l-65 -597c-1 -10 -5 -17 -14 -17s-15 4 -15 17c0 2 0 5 1 13z" />
    <glyph glyph-name="Omega" unicode="&#x2126;" horiz-adv-x="1488" 
d="M1294 0h-370c-10 0 -18 8 -18 18s10 16 26 26c76 46 316 238 316 570c0 356 -212 614 -504 614s-504 -258 -504 -614c0 -332 240 -524 316 -570c16 -10 26 -16 26 -26s-8 -18 -18 -18h-370c-8 0 -14 6 -14 14s6 14 14 14h336c-112 70 -318 278 -318 586
c0 372 224 642 532 642s532 -270 532 -642c0 -308 -206 -516 -318 -586h336c8 0 14 -6 14 -14s-6 -14 -14 -14z" />
    <glyph glyph-name="partialdiff" unicode="&#x2202;" horiz-adv-x="896" 
d="M370 1366c200 0 446 -200 446 -680c0 -450 -134 -698 -376 -698c-314 0 -360 312 -360 496c0 190 96 402 368 402c134 0 254 -76 338 -154c-16 418 -236 606 -416 606c-100 0 -164 -26 -202 -42c-22 -10 -32 -18 -40 -18s-14 6 -14 14c0 7 3 10 10 14
c22 12 106 60 246 60zM448 858c-252 0 -340 -188 -340 -374c0 -214 56 -468 332 -468c224 0 348 236 348 670c0 2 -2 6 -2 8c-80 80 -202 164 -338 164z" />
    <glyph glyph-name="Delta" unicode="&#x2206;" horiz-adv-x="1154" 
d="M995 0h-836c-10 0 -18 8 -18 18c0 4 2 12 8 26l408 1002c4 12 10 20 20 20s16 -8 20 -20l408 -1002c6 -14 8 -22 8 -26c0 -10 -8 -18 -18 -18zM981 28l-404 996l-404 -996h808z" />
    <glyph glyph-name="product" unicode="&#x220f;" horiz-adv-x="1376" 
d="M1100 1250v-1731c0 -10 -5 -15 -14 -15s-14 5 -14 15v1731h-768v-1731c0 -10 -5 -15 -14 -15s-14 5 -14 15v1731h-141c-10 0 -15 5 -15 14s5 14 15 14h1100c10 0 15 -5 15 -14s-5 -14 -15 -14h-135z" />
    <glyph glyph-name="summation" unicode="&#x2211;" horiz-adv-x="920" 
d="M795 -496h-651c-12 0 -20 8 -20 20c0 6 6 16 10 24l420 840l-422 818c-4 8 -8 14 -8 20c0 12 8 20 20 20h651c10 0 15 -5 15 -14s-5 -14 -15 -14h-635l416 -806c4 -8 8 -14 8 -22s-4 -16 -8 -24l-416 -834h635c10 0 15 -5 15 -14s-5 -14 -15 -14z" />
    <glyph glyph-name="minus" unicode="&#x2212;" horiz-adv-x="1140" 
d="M977 438h-814c-10 0 -15 5 -15 14s5 14 15 14h814c10 0 15 -5 15 -14s-5 -14 -15 -14z" />
    <glyph glyph-name="uni2219" unicode="&#x2219;" horiz-adv-x="1140" 
d="M570 576c38 0 70 -32 70 -70s-32 -70 -70 -70s-70 32 -70 70s32 70 70 70z" />
    <glyph glyph-name="radical" unicode="&#x221a;" horiz-adv-x="1310" 
d="M680 44l478 1277c5 14 8 18 17 18s16 -6 16 -12c0 -5 -2 -9 -5 -17l-484 -1286c-6 -16 -11 -24 -22 -24s-15 9 -20 22l-318 800l-200 -71c-3 -1 -6 -2 -9 -2c-7 0 -13 6 -13 14c0 7 3 11 14 15l172 60c16 6 36 14 42 14c10 0 16 -6 20 -18z" />
    <glyph glyph-name="infinity" unicode="&#x221e;" horiz-adv-x="1582" 
d="M420 272c-132 0 -240 110 -240 246c0 140 104 248 240 248c170 0 338 -182 378 -228c40 44 212 220 356 220c140 0 248 -104 248 -240c0 -138 -106 -240 -248 -240c-160 0 -314 168 -356 218c-44 -50 -212 -224 -378 -224zM420 738c-122 0 -212 -94 -212 -220
c0 -122 94 -218 212 -218c156 0 322 174 360 218c-34 38 -202 220 -360 220zM1154 306c128 0 220 88 220 212c0 122 -94 212 -220 212c-134 0 -304 -176 -338 -214c36 -42 188 -210 338 -210z" />
    <glyph glyph-name="integral" unicode="&#x222b;" horiz-adv-x="1134" 
d="M554 122v1082c0 290 170 368 272 368c104 0 166 -42 178 -52c8 -6 10 -12 10 -16c0 -6 -6 -12 -12 -12s-10 2 -18 8s-56 44 -158 44c-92 0 -244 -72 -244 -340v-1082c0 -290 -172 -368 -274 -368c-104 0 -166 42 -178 52c-8 6 -10 12 -10 16c0 6 6 12 12 12s10 -2 18 -8
s56 -44 158 -44c92 0 246 72 246 340z" />
    <glyph glyph-name="approxequal" unicode="&#x2248;" horiz-adv-x="1140" 
d="M364 676c152 0 270 -114 414 -114c61 0 113 42 126 54c8 7 11 10 17 10c7 0 14 -5 14 -13s-5 -12 -14 -20c-9 -7 -63 -59 -143 -59c-152 0 -270 114 -414 114c-61 0 -113 -42 -126 -54c-8 -7 -11 -10 -17 -10c-7 0 -14 5 -14 13s5 12 14 20c9 7 63 59 143 59zM364 428
c152 0 270 -114 414 -114c61 0 113 42 126 54c8 7 11 10 17 10c7 0 14 -5 14 -13s-5 -12 -14 -20c-9 -7 -63 -59 -143 -59c-152 0 -270 114 -414 114c-61 0 -113 -42 -126 -54c-8 -7 -11 -10 -17 -10c-7 0 -14 5 -14 13s5 12 14 20c9 7 63 59 143 59z" />
    <glyph glyph-name="notequal" unicode="&#x2260;" horiz-adv-x="1140" 
d="M548 366h402c10 0 16 -4 16 -14s-6 -14 -16 -14h-420l-162 -254c-4 -6 -7 -8 -13 -8c-8 0 -15 6 -15 13c0 4 1 6 5 12l151 237h-306c-10 0 -16 4 -16 14s6 14 16 14h324l120 188h-444c-10 0 -16 4 -16 14s6 14 16 14h462l142 223c4 6 7 8 13 8c8 0 15 -6 15 -14
c0 -3 -1 -5 -5 -11l-131 -206h264c10 0 16 -4 16 -14s-6 -14 -16 -14h-282z" />
    <glyph glyph-name="lessequal" unicode="&#x2264;" horiz-adv-x="1140" 
d="M190 611l753 384c4 2 7 3 10 3c7 0 13 -6 13 -14c0 -6 -2 -9 -9 -13l-743 -378l743 -378c7 -4 9 -7 9 -13c0 -8 -6 -14 -13 -14c-3 0 -6 1 -10 3l-753 384c-10 5 -14 10 -14 18s4 13 14 18zM188 28h760c10 0 16 -4 16 -14s-6 -14 -16 -14h-760c-10 0 -16 4 -16 14
s6 14 16 14z" />
    <glyph glyph-name="greaterequal" unicode="&#x2265;" horiz-adv-x="1140" 
d="M924 593l-743 378c-7 4 -9 7 -9 13c0 8 6 14 13 14c3 0 6 -1 10 -3l753 -384c10 -5 14 -10 14 -18s-4 -13 -14 -18l-753 -384c-4 -2 -7 -3 -10 -3c-7 0 -13 6 -13 14c0 6 2 9 9 13zM950 0h-760c-10 0 -16 4 -16 14s6 14 16 14h760c10 0 16 -4 16 -14s-6 -14 -16 -14z" />
    <glyph glyph-name="dotmath" unicode="&#x22c5;" horiz-adv-x="1140" 
d="M570 554c18 0 34 -16 34 -34s-16 -34 -34 -34s-34 16 -34 34s16 34 34 34z" />
    <glyph glyph-name="lozenge" unicode="&#x25ca;" horiz-adv-x="1186" 
d="M572 16l-384 584c-4 6 -8 12 -8 20s4 14 8 20l384 580c4 8 12 16 22 16s18 -8 22 -16l382 -580c4 -6 8 -12 8 -20s-4 -14 -8 -20l-382 -584c-4 -8 -12 -16 -22 -16s-18 8 -22 16zM594 34l384 586l-384 582l-386 -582z" />
    <glyph glyph-name="uniFB00" unicode="&#xfb00;" horiz-adv-x="1122" 
d="M724 14v844h-516v-844c0 -8 -6 -14 -14 -14s-14 6 -14 14v844h-146c-8 0 -14 6 -14 14s6 14 14 14h146v120c0 292 126 360 266 360c50 0 100 -8 146 -22c12 -4 16 -8 16 -16s-8 -12 -12 -12s-6 0 -20 4c-48 12 -82 18 -130 18c-136 0 -238 -72 -238 -332v-120h516v120
c0 292 126 360 266 360c50 0 100 -8 146 -22c12 -4 16 -8 16 -16s-8 -12 -12 -12s-6 0 -20 4c-48 12 -82 18 -130 18c-136 0 -238 -72 -238 -332v-120h310c8 0 14 -6 14 -14s-6 -14 -14 -14h-310v-844c0 -8 -6 -14 -14 -14s-14 6 -14 14z" />
    <glyph glyph-name="fi" unicode="&#xfb01;" horiz-adv-x="874" 
d="M180 14v844h-146c-8 0 -14 6 -14 14s6 14 14 14h146v120c0 326 198 360 306 360c116 0 170 -26 238 -58c8 -4 10 -10 10 -18v-92c0 -8 -6 -14 -14 -14s-14 6 -14 14v88c-64 30 -120 52 -220 52c-104 0 -278 -36 -278 -332v-120h310c8 0 14 -6 14 -14s-6 -14 -14 -14h-310
v-844c0 -8 -6 -14 -14 -14s-14 6 -14 14zM706 14v858c0 8 6 14 14 14s14 -6 14 -14v-858c0 -8 -6 -14 -14 -14s-14 6 -14 14z" />
    <glyph glyph-name="fl" unicode="&#xfb02;" horiz-adv-x="936" 
d="M706 310v976c-64 30 -120 52 -220 52c-104 0 -278 -36 -278 -332v-120h310c8 0 14 -6 14 -14s-6 -14 -14 -14h-310v-844c0 -8 -6 -14 -14 -14s-14 6 -14 14v844h-146c-8 0 -14 6 -14 14s6 14 14 14h146v120c0 326 198 360 306 360c116 0 170 -26 238 -58
c8 -4 10 -10 10 -18v-980c0 -222 36 -282 168 -282c8 0 14 -6 14 -14s-6 -14 -16 -14c-144 0 -194 66 -194 310z" />
    <glyph glyph-name="uniFB03" unicode="&#xfb03;" horiz-adv-x="1418" 
d="M180 14v844h-146c-8 0 -14 6 -14 14s6 14 14 14h146v120c0 292 126 360 266 360c50 0 100 -8 146 -22c12 -4 16 -8 16 -16s-8 -12 -12 -12s-6 0 -20 4c-48 12 -82 18 -130 18c-136 0 -238 -72 -238 -332v-120h516v120c0 326 198 360 306 360c116 0 170 -26 238 -58
c8 -4 10 -10 10 -18v-92c0 -8 -6 -14 -14 -14s-14 6 -14 14v88c-64 30 -120 52 -220 52c-104 0 -278 -36 -278 -332v-120h310c8 0 14 -6 14 -14s-6 -14 -14 -14h-310v-844c0 -8 -6 -14 -14 -14s-14 6 -14 14v844h-516v-844c0 -8 -6 -14 -14 -14s-14 6 -14 14zM1250 14v858
c0 8 6 14 14 14s14 -6 14 -14v-858c0 -8 -6 -14 -14 -14s-14 6 -14 14z" />
    <glyph glyph-name="uniFB06" unicode="&#xfb06;" horiz-adv-x="1368" 
d="M912 312v546h-512c-122 0 -246 -48 -246 -174c0 -220 504 -208 504 -452c0 -140 -120 -244 -284 -244c-158 0 -272 74 -280 80c-10 6 -14 12 -14 16c0 8 6 14 14 14c6 0 12 -4 18 -8c8 -6 118 -74 262 -74c148 0 256 90 256 216c0 220 -504 208 -504 452
c0 146 140 202 274 202h512v282c0 8 6 14 14 14s14 -6 14 -14v-282h312c8 0 14 -6 14 -14s-6 -14 -14 -14h-312v-544c0 -268 130 -298 260 -298c48 0 92 16 112 24c10 4 18 8 22 8c8 0 14 -6 14 -12c0 -8 -4 -12 -8 -14c-14 -8 -78 -34 -140 -34c-146 0 -288 40 -288 324z
" />
    <glyph glyph-name="zero.numr" 
d="M118 940c0 208 90 344 228 344c136 0 228 -138 228 -344c0 -212 -84 -338 -228 -338s-228 126 -228 338zM546 940c0 158 -62 316 -200 316c-122 0 -200 -124 -200 -316s76 -310 200 -310s200 118 200 310z" />
    <glyph glyph-name="one.numr" horiz-adv-x="448" 
d="M210 629v613l-96 -66c-6 -4 -12 -8 -18 -8s-12 6 -12 14c0 6 4 10 10 14l112 76c6 4 10 6 16 6c10 0 16 -8 16 -18v-631c0 -10 -5 -15 -14 -15s-14 5 -14 15z" />
    <glyph glyph-name="two.numr" 
d="M183 640h323c10 0 15 -5 15 -14s-5 -14 -15 -14h-333c-10 0 -18 8 -18 16c0 148 334 326 334 484c0 88 -52 144 -150 144c-71 0 -116 -34 -133 -43c-7 -4 -10 -5 -13 -5c-8 0 -14 6 -14 14c0 4 2 9 10 14c11 7 74 48 150 48c52 0 178 -18 178 -172
c0 -170 -312 -334 -334 -472z" />
    <glyph glyph-name="three.numr" 
d="M323 1284c104 0 186 -54 186 -172c0 -86 -52 -142 -126 -162c76 -24 138 -64 138 -170c0 -104 -96 -174 -198 -174c-100 0 -160 39 -174 48c-6 4 -8 8 -8 13c0 8 6 14 14 14c3 0 5 -1 10 -4c7 -4 70 -43 158 -43c78 0 170 54 170 146c0 134 -128 154 -216 154
c-9 0 -14 5 -14 14s5 14 14 14c86 0 204 23 204 150c0 98 -68 144 -158 144c-65 0 -116 -32 -134 -42c-6 -3 -9 -4 -12 -4c-8 0 -14 6 -14 14c0 5 3 10 13 16c15 8 82 44 147 44z" />
    <glyph glyph-name="four.numr" 
d="M448 637v161h-308c-8 0 -16 6 -16 16c0 4 2 8 4 14c94 218 274 406 320 450c6 6 10 10 16 10c8 0 14 -4 14 -12s-6 -14 -10 -18c-32 -32 -200 -196 -310 -432h290v317c0 10 5 15 14 15s14 -5 14 -15v-317h75c10 0 15 -5 15 -14s-5 -14 -15 -14h-75v-161
c0 -10 -5 -15 -14 -15s-14 5 -14 15z" />
    <glyph glyph-name="five.numr" 
d="M208 1250v-252c24 10 64 26 118 26c120 0 210 -84 210 -198c0 -164 -114 -220 -210 -220c-82 0 -147 40 -162 53c-4 4 -6 7 -6 12c0 8 6 14 14 14c3 0 6 -1 9 -3c14 -10 65 -48 145 -48c86 0 182 50 182 192c0 98 -78 170 -182 170c-50 0 -86 -14 -106 -24
c-8 -4 -16 -10 -22 -10c-12 0 -18 8 -18 18v280c0 10 8 18 18 18h285c10 0 15 -5 15 -14s-5 -14 -15 -14h-275z" />
    <glyph glyph-name="six.numr" 
d="M176 910v-8c6 28 40 130 174 130c152 0 196 -132 196 -206c0 -80 -42 -220 -196 -220c-138 0 -202 106 -202 304c0 260 74 374 218 374c102 0 142 -42 150 -50c6 -6 8 -10 8 -14c0 -8 -6 -14 -13 -14c-5 0 -8 2 -13 6c-12 10 -50 44 -132 44c-80 0 -190 -38 -190 -346z
M182 826c0 -74 36 -192 168 -192s168 118 168 192c0 62 -38 178 -168 178s-168 -116 -168 -178z" />
    <glyph glyph-name="seven.numr" 
d="M152 1278h381c10 0 18 -8 18 -18c0 -48 -56 -150 -114 -252c-70 -124 -156 -280 -156 -386c0 -9 -5 -14 -15 -14c-8 0 -13 5 -13 15c0 112 86 265 160 399c50 86 98 176 108 228h-369c-10 0 -15 5 -15 15c0 8 5 13 15 13z" />
    <glyph glyph-name="eight.numr" 
d="M442 944c56 -22 114 -64 114 -158c0 -120 -74 -180 -210 -180c-126 0 -208 70 -208 180c0 90 50 154 106 178c-64 30 -88 76 -88 146c0 138 120 174 190 174c96 0 192 -54 192 -174c0 -72 -46 -138 -96 -166zM510 1110c0 114 -104 146 -164 146s-162 -32 -162 -146
c0 -124 112 -138 208 -152c54 2 118 70 118 152zM166 786c0 -114 94 -152 180 -152c82 0 182 26 182 152c0 124 -112 144 -234 160c-60 0 -128 -60 -128 -160z" />
    <glyph glyph-name="nine.numr" 
d="M518 980v8c-6 -28 -40 -130 -174 -130c-152 0 -196 132 -196 206c0 80 42 220 196 220c138 0 202 -106 202 -304c0 -260 -74 -374 -218 -374c-96 0 -142 42 -150 50c-6 6 -8 10 -8 14c0 8 6 14 14 14c4 0 7 -2 12 -6c13 -11 50 -44 132 -44c80 0 190 38 190 346z
M512 1064c0 74 -36 192 -168 192s-168 -118 -168 -192c0 -62 38 -178 168 -178s168 116 168 178z" />
    <glyph glyph-name="zero.dnom" 
d="M118 328c0 208 90 344 228 344c136 0 228 -138 228 -344c0 -212 -84 -338 -228 -338s-228 126 -228 338zM546 328c0 158 -62 316 -200 316c-122 0 -200 -124 -200 -316s76 -310 200 -310s200 118 200 310z" />
    <glyph glyph-name="one.dnom" horiz-adv-x="448" 
d="M210 17v613l-96 -66c-6 -4 -12 -8 -18 -8s-12 6 -12 14c0 6 4 10 10 14l112 76c6 4 10 6 16 6c10 0 16 -8 16 -18v-631c0 -10 -5 -15 -14 -15s-14 5 -14 15z" />
    <glyph glyph-name="two.dnom" 
d="M183 28h323c10 0 15 -5 15 -14s-5 -14 -15 -14h-333c-10 0 -18 8 -18 16c0 148 334 326 334 484c0 88 -52 144 -150 144c-71 0 -116 -34 -133 -43c-7 -4 -10 -5 -13 -5c-8 0 -14 6 -14 14c0 4 2 9 10 14c11 7 74 48 150 48c52 0 178 -18 178 -172
c0 -170 -312 -334 -334 -472z" />
    <glyph glyph-name="three.dnom" 
d="M323 672c104 0 186 -54 186 -172c0 -86 -52 -142 -126 -162c76 -24 138 -64 138 -170c0 -104 -96 -174 -198 -174c-100 0 -160 39 -174 48c-6 4 -8 8 -8 13c0 8 6 14 14 14c3 0 5 -1 10 -4c7 -4 70 -43 158 -43c78 0 170 54 170 146c0 134 -128 154 -216 154
c-9 0 -14 5 -14 14s5 14 14 14c86 0 204 23 204 150c0 98 -68 144 -158 144c-65 0 -116 -32 -134 -42c-6 -3 -9 -4 -12 -4c-8 0 -14 6 -14 14c0 5 3 10 13 16c15 8 82 44 147 44z" />
    <glyph glyph-name="four.dnom" 
d="M448 25v161h-308c-8 0 -16 6 -16 16c0 4 2 8 4 14c94 218 274 406 320 450c6 6 10 10 16 10c8 0 14 -4 14 -12s-6 -14 -10 -18c-32 -32 -200 -196 -310 -432h290v317c0 10 5 15 14 15s14 -5 14 -15v-317h75c10 0 15 -5 15 -14s-5 -14 -15 -14h-75v-161
c0 -10 -5 -15 -14 -15s-14 5 -14 15z" />
    <glyph glyph-name="five.dnom" 
d="M208 638v-252c24 10 64 26 118 26c120 0 210 -84 210 -198c0 -164 -114 -220 -210 -220c-82 0 -147 40 -162 53c-4 4 -6 7 -6 12c0 8 6 14 14 14c3 0 6 -1 9 -3c14 -10 65 -48 145 -48c86 0 182 50 182 192c0 98 -78 170 -182 170c-50 0 -86 -14 -106 -24
c-8 -4 -16 -10 -22 -10c-12 0 -18 8 -18 18v280c0 10 8 18 18 18h285c10 0 15 -5 15 -14s-5 -14 -15 -14h-275z" />
    <glyph glyph-name="six.dnom" 
d="M176 298v-8c6 28 40 130 174 130c152 0 196 -132 196 -206c0 -80 -42 -220 -196 -220c-138 0 -202 106 -202 304c0 260 74 374 218 374c102 0 142 -42 150 -50c6 -6 8 -10 8 -14c0 -8 -6 -14 -13 -14c-5 0 -8 2 -13 6c-12 10 -50 44 -132 44c-80 0 -190 -38 -190 -346z
M182 214c0 -74 36 -192 168 -192s168 118 168 192c0 62 -38 178 -168 178s-168 -116 -168 -178z" />
    <glyph glyph-name="seven.dnom" 
d="M152 666h381c10 0 18 -8 18 -18c0 -48 -56 -150 -114 -252c-70 -124 -156 -280 -156 -386c0 -9 -5 -14 -15 -14c-8 0 -13 5 -13 15c0 112 86 265 160 399c50 86 98 176 108 228h-369c-10 0 -15 5 -15 15c0 8 5 13 15 13z" />
    <glyph glyph-name="eight.dnom" 
d="M442 332c56 -22 114 -64 114 -158c0 -120 -74 -180 -210 -180c-126 0 -208 70 -208 180c0 90 50 154 106 178c-64 30 -88 76 -88 146c0 138 120 174 190 174c96 0 192 -54 192 -174c0 -72 -46 -138 -96 -166zM510 498c0 114 -104 146 -164 146s-162 -32 -162 -146
c0 -124 112 -138 208 -152c54 2 118 70 118 152zM166 174c0 -114 94 -152 180 -152c82 0 182 26 182 152c0 124 -112 144 -234 160c-60 0 -128 -60 -128 -160z" />
    <glyph glyph-name="nine.dnom" 
d="M518 368v8c-6 -28 -40 -130 -174 -130c-152 0 -196 132 -196 206c0 80 42 220 196 220c138 0 202 -106 202 -304c0 -260 -74 -374 -218 -374c-96 0 -142 42 -150 50c-6 6 -8 10 -8 14c0 8 6 14 14 14c4 0 7 -2 12 -6c13 -11 50 -44 132 -44c80 0 190 38 190 346zM512 452
c0 74 -36 192 -168 192s-168 -118 -168 -192c0 -62 38 -178 168 -178s168 116 168 178z" />
    <glyph glyph-name="space.frac" horiz-adv-x="100" 
 />
    <glyph glyph-name="dollar.tf" horiz-adv-x="1020" 
d="M528 -111v101c-18 -2 -34 -2 -42 -2c-160 0 -260 76 -323 123c-6 4 -11 9 -11 15c0 8 6 14 14 14c6 0 10 -4 24 -14c52 -38 150 -110 296 -110c214 0 346 118 346 306c0 372 -638 276 -638 674c0 176 160 292 334 294v95c0 10 5 15 14 15s14 -5 14 -15v-95
c118 -6 208 -64 265 -105c7 -5 11 -9 11 -17s-6 -14 -13 -14s-11 4 -25 14c-48 36 -140 94 -264 94c-158 0 -308 -106 -308 -266c0 -370 638 -276 638 -674c0 -180 -118 -304 -304 -328v-105c0 -10 -5 -15 -14 -15s-14 5 -14 15z" />
    <glyph glyph-name="percent.tf" horiz-adv-x="1260" 
d="M318 28l602 1246c6 12 10 16 16 16c8 0 14 -4 14 -12c0 -4 -2 -8 -6 -16l-602 -1246c-6 -12 -10 -16 -16 -16c-8 0 -14 4 -14 12c0 4 2 8 6 16zM100 952c0 212 76 332 218 332c140 0 218 -120 218 -332s-78 -330 -218 -330s-218 118 -218 330zM508 952
c0 192 -66 304 -190 304s-190 -112 -190 -304s66 -302 190 -302s190 110 190 302zM724 324c0 212 76 332 218 332c140 0 218 -120 218 -332s-78 -330 -218 -330s-218 118 -218 330zM1132 324c0 192 -66 304 -190 304s-190 -112 -190 -304s66 -302 190 -302s190 110 190 302z
" />
    <glyph glyph-name="zero.tf" horiz-adv-x="1020" 
d="M76 632c0 400 170 658 434 658c260 0 434 -264 434 -658c0 -404 -162 -644 -434 -644s-434 240 -434 644zM916 632c0 314 -124 630 -406 630c-248 0 -406 -246 -406 -630c0 -386 152 -616 406 -616s406 230 406 616z" />
    <glyph glyph-name="one.tf" horiz-adv-x="1020" 
d="M248 1100l248 164c12 8 20 14 28 14c10 0 16 -6 16 -18v-1232h356c10 0 15 -5 15 -15c0 -8 -5 -13 -15 -13h-688c-10 0 -15 5 -15 15c0 8 5 13 15 13h304v1212l-252 -166c-6 -4 -10 -4 -12 -4c-6 0 -12 6 -12 14c0 6 4 10 12 16z" />
    <glyph glyph-name="two.tf" horiz-adv-x="1020" 
d="M177 28h648c10 0 16 -4 16 -14s-6 -14 -16 -14h-652c-16 0 -24 6 -24 22c0 272 654 624 654 952c0 176 -116 288 -310 288c-142 0 -248 -68 -280 -88c-6 -4 -10 -6 -16 -6s-12 4 -12 12c0 6 2 10 11 16c27 18 143 94 297 94c212 0 338 -122 338 -314
c0 -194 -192 -378 -368 -552c-144 -144 -278 -276 -286 -396z" />
    <glyph glyph-name="three.tf" horiz-adv-x="1020" 
d="M436 630h-52c-10 0 -16 4 -16 14s6 14 16 14h52c160 0 362 86 362 306c0 272 -230 298 -330 298c-136 0 -237 -66 -268 -88c-6 -4 -9 -5 -13 -5c-7 0 -13 6 -13 15c0 8 8 13 16 19c34 25 140 87 278 87c116 0 358 -38 358 -326c0 -170 -115 -285 -282 -319
c170 -18 304 -138 304 -320c0 -216 -183 -337 -374 -337c-214 0 -316 80 -328 88c-8 6 -16 11 -16 20c0 8 6 14 13 14c5 0 8 -2 14 -6c17 -13 114 -89 317 -88c196 1 346 128 346 304c0 240 -214 310 -384 310z" />
    <glyph glyph-name="four.tf" horiz-adv-x="1020" 
d="M744 374h160c10 0 16 -4 16 -14s-6 -14 -16 -14h-160v-331c0 -10 -5 -15 -14 -15s-14 5 -14 15v331h-606c-14 0 -24 6 -24 20c0 8 6 20 12 34c136 300 358 608 614 870c4 4 8 8 15 8s13 -5 13 -12c0 -5 -2 -8 -8 -14c-4 -4 -404 -402 -616 -878h600v639c0 10 5 15 14 15
s14 -5 14 -15v-639z" />
    <glyph glyph-name="five.tf" horiz-adv-x="1020" 
d="M215 1250v-530c38 20 124 62 244 62c228 0 394 -160 394 -376c0 -308 -212 -418 -394 -418c-168 0 -274 78 -290 90c-8 6 -16 11 -16 20c0 8 6 14 13 14c5 0 8 -2 14 -6c14 -10 121 -90 279 -90c178 0 366 102 366 390c0 200 -154 348 -366 348c-90 0 -176 -28 -228 -56
c-10 -6 -18 -10 -24 -10c-12 0 -20 8 -20 20v546c0 16 8 24 24 24h558c10 0 16 -4 16 -14s-6 -14 -16 -14h-554z" />
    <glyph glyph-name="six.tf" horiz-adv-x="1020" 
d="M159 574v-66c18 116 110 288 354 288c294 0 372 -244 372 -388c0 -156 -78 -420 -372 -420c-126 0 -274 46 -344 250c-28 84 -38 190 -38 336c0 616 212 716 420 716c146 0 230 -54 270 -82c12 -8 18 -13 18 -20c0 -8 -6 -14 -13 -14c-5 0 -9 2 -23 12
c-28 20 -112 76 -252 76c-180 0 -392 -76 -392 -688zM169 408c0 -146 74 -392 344 -392s344 246 344 392c0 132 -74 360 -344 360s-344 -228 -344 -360z" />
    <glyph glyph-name="seven.tf" horiz-adv-x="1020" 
d="M130 1278h745c16 0 24 -6 24 -22c0 -102 -102 -280 -218 -484c-144 -254 -308 -543 -308 -757c0 -10 -5 -15 -14 -15s-14 5 -14 15c0 222 166 511 312 769c106 186 206 362 214 466h-741c-10 0 -15 5 -15 14s5 14 15 14z" />
    <glyph glyph-name="eight.tf" horiz-adv-x="1020" 
d="M904 330c0 -266 -192 -342 -396 -342c-198 0 -392 96 -392 342c0 192 112 316 236 344c-132 52 -200 148 -200 292c0 256 224 324 356 324c148 0 362 -76 362 -324c0 -162 -108 -294 -216 -330c116 -34 250 -108 250 -306zM842 966c0 234 -210 296 -334 296
c-122 0 -328 -62 -328 -296c0 -260 222 -286 416 -314c112 0 246 144 246 314zM144 330c0 -234 188 -314 364 -314c168 0 368 52 368 314c0 278 -284 290 -418 316c-22 4 -44 8 -50 8c-130 0 -264 -122 -264 -324z" />
    <glyph glyph-name="nine.tf" horiz-adv-x="1020" 
d="M837 704v72c-10 -84 -96 -282 -354 -282c-294 0 -372 244 -372 382c0 150 78 414 372 414c126 0 274 -46 344 -250c28 -84 38 -190 38 -336c0 -616 -212 -716 -420 -716c-146 0 -230 54 -270 82c-12 8 -18 13 -18 20c0 8 6 14 13 14c5 0 9 -2 23 -12
c28 -20 112 -76 252 -76c180 0 392 76 392 688zM483 1262c-270 0 -344 -246 -344 -386c0 -126 74 -354 344 -354s344 228 344 354c0 140 -74 386 -344 386z" />
    <glyph glyph-name="cent.tf" horiz-adv-x="1020" 
d="M519 -112v100c-238 0 -396 184 -396 458c0 240 168 428 396 450v106c0 8 6 14 14 14s14 -6 14 -14v-104h14c84 0 166 -28 232 -72c8 -6 16 -12 16 -20c0 -6 -6 -12 -12 -12c-8 0 -16 8 -34 18c-38 22 -108 58 -202 58c-232 0 -410 -182 -410 -424
c0 -214 112 -430 368 -430c86 0 174 22 250 58c20 10 34 20 42 20c6 0 12 -4 12 -12c0 -12 -20 -22 -36 -30c-74 -38 -158 -60 -240 -64v-100c0 -8 -6 -14 -14 -14s-14 6 -14 14z" />
    <glyph glyph-name="sterling.tf" horiz-adv-x="1020" 
d="M132 612h138c-6 89 -12 168 -12 194c0 344 136 450 348 450c50 0 115 -10 155 -25c5 -2 9 -7 9 -13c0 -8 -5 -14 -13 -14c-3 0 -5 1 -12 3c-43 13 -92 21 -139 21c-200 0 -320 -98 -320 -422c0 -25 5 -105 12 -194h314c10 0 16 -4 16 -14s-6 -14 -16 -14h-312
c8 -111 16 -227 16 -258c0 -128 -30 -208 -80 -298h646c10 0 16 -4 16 -14s-6 -14 -16 -14h-668c-10 0 -16 8 -16 16c0 6 10 20 22 42c46 82 68 160 68 268c0 44 -8 154 -16 258h-140c-10 0 -16 4 -16 14s6 14 16 14z" />
    <glyph glyph-name="yen.tf" horiz-adv-x="1020" 
d="M129 554h327c-66 86 -287 537 -356 692c-4 9 -6 14 -6 19c0 7 6 13 14 13c6 0 10 -3 14 -12c6 -14 244 -530 354 -694c8 -12 18 -18 34 -18s26 6 34 18c110 164 348 680 354 694c4 9 8 12 14 12c8 0 14 -6 14 -13c0 -5 -2 -10 -6 -19c-69 -155 -290 -606 -356 -692h327
c10 0 15 -5 15 -14s-5 -14 -15 -14h-367v-156h367c10 0 15 -5 15 -14s-5 -14 -15 -14h-367v-327c0 -10 -5 -15 -14 -15s-14 5 -14 15v327h-367c-10 0 -15 5 -15 14s5 14 15 14h367v156h-367c-10 0 -15 5 -15 14s5 14 15 14z" />
    <glyph glyph-name="section.tf" horiz-adv-x="1020" 
d="M559 304l-150 74c-96 48 -208 104 -208 216c0 132 92 231 268 288c-102 50 -222 86 -222 252c0 146 144 214 280 214c128 0 216 -54 232 -64c6 -4 12 -8 12 -16s-5 -14 -13 -14c-7 0 -11 4 -23 10c-36 18 -110 56 -208 56c-120 0 -252 -58 -252 -186
c0 -132 82 -168 174 -212l126 -62c108 -54 244 -118 244 -286c0 -146 -156 -228 -224 -256c94 -46 188 -106 188 -268c0 -140 -120 -244 -284 -244c-158 0 -266 70 -282 80c-6 4 -12 8 -12 16s5 14 13 14c7 0 13 -5 25 -12c34 -20 124 -70 256 -70c148 0 256 90 256 216
c0 162 -98 206 -196 254zM533 850l-28 14c-173 -41 -276 -141 -276 -270c0 -100 114 -154 266 -228l66 -32c145 54 230 143 230 240c0 148 -120 208 -258 276z" />
    <glyph glyph-name="uni2007.tf" horiz-adv-x="1020" 
 />
    <glyph glyph-name="perthousand.tf" horiz-adv-x="1260" 
d="M118 28l602 1246c6 12 10 16 16 16c8 0 14 -4 14 -12c0 -4 -2 -8 -6 -16l-602 -1246c-6 -12 -10 -16 -16 -16c-8 0 -14 4 -14 12c0 4 2 8 6 16zM104 1038c0 172 62 246 158 246s158 -74 158 -246s-62 -248 -158 -248s-158 76 -158 248zM392 1038c0 152 -46 218 -130 218
s-130 -66 -130 -218s46 -220 130 -220s130 68 130 220zM440 242c0 172 62 246 158 246s158 -74 158 -246s-62 -248 -158 -248s-158 76 -158 248zM840 242c0 172 62 246 158 246s158 -74 158 -246s-62 -248 -158 -248s-158 76 -158 248zM728 242c0 152 -46 218 -130 218
s-130 -66 -130 -218s46 -220 130 -220s130 68 130 220zM1128 242c0 152 -46 218 -130 218s-130 -66 -130 -218s46 -220 130 -220s130 68 130 220z" />
    <glyph glyph-name="Euro.tf" horiz-adv-x="1020" 
d="M733 532h-534c29 -313 188 -516 403 -516c104 0 186 26 276 88c6 4 9 6 14 6c6 0 13 -6 13 -14c0 -6 -5 -10 -13 -16c-94 -64 -180 -92 -290 -92c-230 0 -401 214 -431 544h-102c-10 0 -15 5 -15 14s5 14 15 14h100c-2 25 -3 51 -3 78c0 34 1 68 4 100h-101
c-10 0 -15 5 -15 14s5 14 15 14h104c38 319 215 524 447 524c118 0 188 -32 240 -66c6 -4 10 -8 10 -14c0 -8 -6 -14 -13 -14c-5 0 -11 4 -21 10c-40 24 -106 56 -216 56c-216 0 -382 -194 -419 -496h532c10 0 15 -5 15 -14s-5 -14 -15 -14h-534c-3 -32 -5 -66 -5 -100
c0 -27 1 -53 3 -78h536c10 0 15 -5 15 -14s-5 -14 -15 -14z" />
    <glyph glyph-name="parenleft.case" horiz-adv-x="724" 
d="M180 635c0 588 302 786 326 802c12 8 18 12 24 12c8 0 13 -6 13 -13c0 -8 -6 -11 -19 -21c-18 -13 -316 -202 -316 -780c0 -570 298 -759 316 -772c13 -10 19 -13 19 -21c0 -7 -5 -13 -13 -13c-6 0 -12 4 -24 12c-24 16 -326 214 -326 794z" />
    <glyph glyph-name="parenright.case" horiz-adv-x="724" 
d="M546 643c0 -588 -302 -786 -326 -802c-12 -8 -18 -12 -24 -12c-8 0 -13 6 -13 13c0 8 6 11 19 21c18 13 316 202 316 780c0 570 -298 759 -316 772c-13 10 -19 13 -19 21c0 7 5 13 13 13c6 0 12 -4 24 -12c24 -16 326 -214 326 -794z" />
    <glyph glyph-name="hyphen.case" horiz-adv-x="872" 
d="M676 625h-480c-10 0 -16 4 -16 14s6 14 16 14h480c10 0 16 -4 16 -14s-6 -14 -16 -14z" />
    <glyph glyph-name="bracketleft.case" horiz-adv-x="644" 
d="M450 -74h-246c-16 0 -24 8 -24 24v1378c0 16 8 24 24 24h245c10 0 15 -5 15 -14s-5 -14 -14 -14h-242v-1370h242c10 0 15 -5 15 -14s-5 -14 -15 -14z" />
    <glyph glyph-name="bracketright.case" horiz-adv-x="644" 
d="M195 1352h246c16 0 24 -8 24 -24v-1378c0 -16 -8 -24 -24 -24h-245c-10 0 -15 5 -15 14s5 14 14 14h242v1370h-242c-10 0 -15 5 -15 14s5 14 15 14z" />
    <glyph glyph-name="braceleft.case" horiz-adv-x="648" 
d="M254 484v-394c0 -120 116 -142 192 -142c28 0 40 2 48 2c10 0 14 -6 14 -13c0 -8 -5 -13 -21 -15c-9 -1 -23 -2 -41 -2c-80 0 -220 22 -220 170v394c0 90 -32 120 -54 134c-12 8 -24 8 -24 22s12 14 24 22c22 14 54 44 54 130v398c0 148 140 168 220 168
c18 0 32 -1 41 -2c16 -2 21 -7 21 -15c0 -7 -4 -13 -14 -13c-8 0 -20 2 -48 2c-74 0 -192 -22 -192 -140v-398c0 -96 -36 -134 -64 -152c28 -18 64 -60 64 -156z" />
    <glyph glyph-name="braceright.case" horiz-adv-x="648" 
d="M422 484v-394c0 -148 -140 -170 -220 -170c-50 0 -62 6 -62 18c0 8 4 14 14 14c4 0 20 -4 48 -4c76 0 192 22 192 142v394c0 96 36 138 64 156c-28 18 -64 56 -64 152v398c0 118 -118 140 -192 140c-28 0 -40 -2 -48 -2c-10 0 -14 6 -14 14c0 12 12 16 62 16
c80 0 220 -20 220 -168v-398c0 -86 32 -116 54 -130c12 -8 24 -8 24 -22s-12 -14 -24 -22c-22 -14 -54 -44 -54 -134z" />
    <glyph glyph-name="guillemotleft.case" horiz-adv-x="756" 
d="M330 321l-200 300c-4 6 -8 12 -8 18s4 12 8 18l200 300c4 6 8 12 18 12c6 0 12 -6 12 -14c0 -4 -4 -10 -8 -16l-204 -300l204 -300c4 -6 8 -12 8 -16c0 -8 -6 -14 -12 -14c-10 0 -14 6 -18 12zM606 321l-200 300c-4 6 -8 12 -8 18s4 12 8 18l200 300c4 6 8 12 18 12
c6 0 12 -6 12 -14c0 -4 -4 -10 -8 -16l-204 -300l204 -300c4 -6 8 -12 8 -16c0 -8 -6 -14 -12 -14c-10 0 -14 6 -18 12z" />
    <glyph glyph-name="uni00AD.case" horiz-adv-x="872" 
d="M676 625h-480c-10 0 -16 4 -16 14s6 14 16 14h480c10 0 16 -4 16 -14s-6 -14 -16 -14z" />
    <glyph glyph-name="guillemotright.case" horiz-adv-x="756" 
d="M350 621l-200 -300c-4 -6 -8 -12 -18 -12c-6 0 -12 6 -12 14c0 4 4 10 8 16l204 300l-204 300c-4 6 -8 12 -8 16c0 8 6 14 12 14c10 0 14 -6 18 -12l200 -300c4 -6 8 -12 8 -18s-4 -12 -8 -18zM626 621l-200 -300c-4 -6 -8 -12 -18 -12c-6 0 -12 6 -12 14c0 4 4 10 8 16
l204 300l-204 300c-4 6 -8 12 -8 16c0 8 6 14 12 14c10 0 14 -6 18 -12l200 -300c4 -6 8 -12 8 -18s-4 -12 -8 -18z" />
    <glyph glyph-name="endash.case" horiz-adv-x="994" 
d="M800 625h-606c-8 0 -14 6 -14 14s6 14 14 14h606c8 0 14 -6 14 -14s-6 -14 -14 -14z" />
    <glyph glyph-name="emdash.case" horiz-adv-x="1234" 
d="M1040 625h-846c-8 0 -14 6 -14 14s6 14 14 14h846c8 0 14 -6 14 -14s-6 -14 -14 -14z" />
    <glyph glyph-name="guilsinglleft.case" horiz-adv-x="478" 
d="M330 321l-200 300c-4 6 -8 12 -8 18s4 12 8 18l200 300c4 6 8 12 18 12c6 0 12 -6 12 -14c0 -4 -4 -10 -8 -16l-204 -300l204 -300c4 -6 8 -12 8 -16c0 -8 -6 -14 -12 -14c-10 0 -14 6 -18 12z" />
    <glyph glyph-name="guilsinglright.case" horiz-adv-x="480" 
d="M350 621l-200 -300c-4 -6 -8 -12 -18 -12c-6 0 -12 6 -12 14c0 4 4 10 8 16l204 300l-204 300c-4 6 -8 12 -8 16c0 8 6 14 12 14c10 0 14 -6 18 -12l200 -300c4 -6 8 -12 8 -18s-4 -12 -8 -18z" />
    <glyph glyph-name="J.ss01" horiz-adv-x="700" 
d="M492 356v908c0 8 6 14 14 14s14 -6 14 -14v-908c0 -290 -186 -368 -296 -368c-128 0 -194 52 -196 54c-6 4 -8 8 -8 12c0 8 6 14 14 14c4 0 6 -2 10 -4c16 -10 74 -48 180 -48c100 0 268 72 268 340z" />
    <glyph glyph-name="A_i" horiz-adv-x="1467" 
d="M1299 1198v74c0 8 6 14 14 14s14 -6 14 -14v-74c0 -8 -6 -14 -14 -14s-14 6 -14 14zM1299 42v830c0 8 6 14 14 14s14 -6 14 -14v-826c0 -76 -56 -132 -128 -132c-104 0 -168 38 -238 256l-78 240h-686c-66 -202 -114 -360 -122 -390c-4 -16 -10 -20 -18 -20s-14 4 -14 14
c0 6 6 26 10 38c94 304 306 966 426 1192c12 24 32 34 60 34s48 -10 60 -34c120 -226 300 -800 394 -1084c62 -188 118 -218 206 -218c56 0 100 44 100 100zM205 438h668c-96 292 -220 646 -298 792c-6 12 -16 20 -36 20s-30 -8 -36 -20c-78 -146 -202 -500 -298 -792z" />
    <glyph glyph-name="A_m" horiz-adv-x="2635" 
d="M2467 14v548c0 240 -86 308 -298 308c-102 0 -230 -36 -302 -78c32 -54 46 -122 46 -230v-548c0 -8 -6 -14 -14 -14s-14 6 -14 14v548c0 238 -72 308 -286 308c-100 0 -208 -40 -272 -82v-742c0 -76 -56 -132 -128 -132c-104 0 -168 38 -238 256l-78 240h-686
c-66 -202 -114 -360 -122 -390c-4 -16 -10 -20 -18 -20s-14 4 -14 14c0 6 6 26 10 38c94 304 306 966 426 1192c12 24 32 34 60 34s48 -10 60 -34c120 -226 300 -800 394 -1084c62 -188 118 -218 206 -218c56 0 100 44 100 100v830c0 8 6 14 14 14s14 -6 14 -14v-54
c72 42 172 80 272 80c124 0 204 -22 252 -82c74 46 214 82 318 82c230 0 326 -80 326 -336v-548c0 -8 -6 -14 -14 -14s-14 6 -14 14zM205 438h668c-96 292 -220 646 -298 792c-6 12 -16 20 -36 20s-30 -8 -36 -20c-78 -146 -202 -500 -298 -792z" />
    <glyph glyph-name="A_n" horiz-adv-x="2075" 
d="M1907 14v548c0 240 -72 308 -296 308c-102 0 -218 -42 -284 -84v-740c0 -76 -56 -132 -128 -132c-104 0 -168 38 -238 256l-78 240h-686c-66 -202 -114 -360 -122 -390c-4 -16 -10 -20 -18 -20s-14 4 -14 14c0 6 6 26 10 38c94 304 306 966 426 1192c12 24 32 34 60 34
s48 -10 60 -34c120 -226 300 -800 394 -1084c62 -188 118 -218 206 -218c56 0 100 44 100 100v830c0 8 6 14 14 14s14 -6 14 -14v-54c74 42 182 80 284 80c246 0 324 -82 324 -336v-548c0 -8 -6 -14 -14 -14s-14 6 -14 14zM205 438h668c-96 292 -220 646 -298 792
c-6 12 -16 20 -36 20s-30 -8 -36 -20c-78 -146 -202 -500 -298 -792z" />
    <glyph glyph-name="H_i" horiz-adv-x="1498" 
d="M1330 1194v74c0 8 6 14 14 14s14 -6 14 -14v-74c0 -8 -6 -14 -14 -14s-14 6 -14 14zM1330 66v806c0 8 6 14 14 14s14 -6 14 -14v-806c0 -84 -68 -152 -160 -152c-152 0 -232 96 -232 324v422h-758v-646c0 -8 -6 -14 -14 -14s-14 6 -14 14v1250c0 8 6 14 14 14
s14 -6 14 -14v-576h758v576c0 8 6 14 14 14s14 -6 14 -14v-1024c0 -214 70 -298 204 -298c76 0 132 56 132 124z" />
    <glyph glyph-name="M_i" horiz-adv-x="1924" 
d="M1756 1198v74c0 8 6 14 14 14s14 -6 14 -14v-74c0 -8 -6 -14 -14 -14s-14 6 -14 14zM1378 346l-102 904c-24 0 -36 -14 -52 -42c-108 -196 -366 -1010 -402 -1146c-4 -16 -14 -24 -30 -24s-26 8 -30 24c-36 136 -294 950 -402 1146c-16 28 -28 42 -52 42l-138 -1220
c-2 -26 -8 -30 -18 -30c-8 0 -12 8 -12 16c0 2 0 6 2 20l138 1214c2 20 8 28 28 28c38 0 60 -22 78 -58c132 -260 364 -1006 404 -1154h4c40 148 272 894 404 1154c18 36 36 58 78 58c20 0 26 -8 28 -28l102 -898c26 -228 56 -410 218 -410c76 0 132 56 132 124v806
c0 8 6 14 14 14s14 -6 14 -14v-806c0 -84 -68 -152 -160 -152c-182 0 -218 192 -246 432z" />
    <glyph glyph-name="M_r" horiz-adv-x="2230" 
d="M1378 346l-102 904c-24 0 -36 -14 -52 -42c-108 -196 -366 -1010 -402 -1146c-4 -16 -14 -24 -30 -24s-26 8 -30 24c-36 136 -294 950 -402 1146c-16 28 -28 42 -52 42l-138 -1220c-2 -26 -8 -30 -18 -30c-8 0 -12 8 -12 16c0 2 0 6 2 20l138 1214c2 20 8 28 28 28
c38 0 60 -22 78 -58c132 -260 364 -1006 404 -1154h4c40 148 272 894 404 1154c18 36 36 58 78 58c20 0 26 -8 28 -28l102 -898c26 -228 56 -410 218 -410c76 0 132 56 132 124v806c0 8 6 14 14 14s14 -6 14 -14v-244c54 208 202 270 318 270c36 0 74 -6 96 -16
c8 -4 12 -8 12 -14c0 -8 -6 -14 -14 -14c-4 0 -10 2 -16 4c-26 8 -50 12 -78 12c-96 0 -318 -42 -318 -464v-340c0 -84 -68 -152 -160 -152c-182 0 -218 192 -246 432z" />
    <glyph glyph-name="R_i" horiz-adv-x="1372" 
d="M1204 1198v74c0 8 6 14 14 14s14 -6 14 -14v-74c0 -8 -6 -14 -14 -14s-14 6 -14 14zM180 14v1240c0 16 8 24 24 24h332c200 0 344 -130 344 -308c0 -236 -158 -332 -324 -338c144 -40 250 -234 350 -498c60 -156 110 -192 198 -192c56 0 100 44 100 100v830
c0 8 6 14 14 14s14 -6 14 -14v-826c0 -76 -56 -132 -128 -132c-104 0 -156 34 -232 228c-126 326 -238 488 -432 488h-232v-616c0 -8 -6 -14 -14 -14s-14 6 -14 14zM208 1250v-592h328c74 0 316 20 316 312c0 164 -132 280 -316 280h-328z" />
    <glyph glyph-name="W_h" horiz-adv-x="2514" 
d="M1736 14v1316c0 12 -6 18 -16 18c-208 0 -224 -88 -288 -394c-72 -334 -184 -826 -230 -916c-14 -28 -34 -38 -62 -38s-48 10 -60 34c-64 128 -272 1032 -302 1168c-2 8 -4 12 -10 12s-8 -4 -10 -12c-30 -136 -238 -1040 -302 -1168c-12 -24 -32 -34 -60 -34
s-48 10 -60 34c-64 126 -246 976 -288 1186c-4 22 -8 38 -8 44c0 8 6 14 14 14c10 0 14 -6 16 -20c4 -20 222 -1074 290 -1210c6 -12 16 -20 36 -20s30 8 36 20c60 122 272 1034 300 1162c4 20 16 32 36 32s32 -12 36 -32c28 -128 240 -1040 300 -1162c6 -12 16 -20 36 -20
s30 8 36 20c46 90 156 582 228 910c70 316 88 418 316 418c28 0 44 -14 44 -42v-516c74 42 182 80 284 80c248 0 326 -84 326 -338v-546c0 -8 -6 -14 -14 -14s-14 6 -14 14v546c0 240 -64 310 -298 310c-102 0 -218 -42 -284 -84v-772c0 -8 -6 -14 -14 -14s-14 6 -14 14z
" />
    <glyph glyph-name="W_i" horiz-adv-x="1904" 
d="M1764 1270v-72c0 -8 -6 -14 -14 -14s-14 6 -14 14v70c0 20 -4 70 -84 70c-102 0 -162 -112 -220 -384c-72 -334 -184 -826 -230 -916c-14 -28 -34 -38 -62 -38s-48 10 -60 34c-64 128 -272 1032 -302 1168c-2 8 -4 12 -10 12s-8 -4 -10 -12
c-30 -136 -238 -1040 -302 -1168c-12 -24 -32 -34 -60 -34s-48 10 -60 34c-64 126 -246 976 -288 1186c-4 22 -8 38 -8 44c0 8 6 14 14 14c10 0 14 -6 16 -20c4 -20 222 -1074 290 -1210c6 -12 16 -20 36 -20s30 8 36 20c60 122 272 1034 300 1162c4 20 16 32 36 32
s32 -12 36 -32c28 -128 240 -1040 300 -1162c6 -12 16 -20 36 -20s30 8 36 20c46 90 156 582 228 910c68 306 134 408 248 408c88 0 112 -52 112 -96zM1736 14v858c0 8 6 14 14 14s14 -8 14 -16v-856c0 -8 -6 -14 -14 -14s-14 6 -14 14z" />
    <glyph glyph-name="c_e" horiz-adv-x="1828" 
d="M736 798c-72 48 -142 72 -218 72c-232 0 -410 -182 -410 -424c0 -244 136 -430 368 -430c86 0 174 22 250 58c20 10 34 20 42 20c6 0 12 -4 12 -12c0 -12 -20 -22 -36 -30c-82 -42 -176 -64 -268 -64c-246 0 -396 192 -396 458c0 256 192 452 438 452
c84 0 156 -24 230 -74c102 -68 192 -212 308 -286c32 226 172 360 384 360c196 0 302 -128 302 -234c0 -146 -124 -238 -342 -238c-30 0 -62 2 -94 6c-96 10 -188 34 -226 58c-2 -24 -2 -42 -2 -66c0 -218 132 -408 350 -408c122 0 234 44 280 66c16 8 24 12 30 12
s12 -4 12 -12c0 -10 -8 -14 -28 -24c-48 -24 -168 -70 -294 -70c-226 0 -378 182 -378 452c0 22 2 46 4 68c-112 66 -214 218 -318 290zM1440 870c-188 0 -330 -118 -358 -348c0 0 92 -68 314 -68c228 0 318 92 318 210c0 90 -94 206 -274 206z" />
    <glyph glyph-name="i_k" horiz-adv-x="1040" 
d="M468 14v992c0 292 -96 332 -188 332c-100 0 -112 -46 -112 -74v-66c0 -8 -6 -14 -14 -14s-14 6 -14 14v68c0 52 32 100 140 100c112 0 216 -52 216 -360v-500l406 374c4 4 8 6 12 6c10 0 14 -8 14 -14s-2 -8 -6 -12l-398 -364c56 -36 264 -198 488 -466c2 -2 8 -10 8 -16
c0 -8 -6 -14 -14 -14s-12 8 -22 20c-268 316 -452 438 -488 462v-468c0 -8 -6 -14 -14 -14s-14 6 -14 14zM140 14v858c0 8 6 14 14 14s14 -6 14 -14v-858c0 -8 -6 -14 -14 -14s-14 6 -14 14z" />
    <glyph glyph-name="j_k" horiz-adv-x="1050" 
d="M478 14v992c0 292 -96 332 -188 332c-100 0 -112 -46 -112 -74v-66c0 -8 -6 -14 -14 -14s-14 6 -14 14v68c0 52 32 100 140 100c112 0 216 -52 216 -360v-500l406 374c4 4 8 6 12 6c10 0 14 -8 14 -14s-2 -8 -6 -12l-398 -364c56 -36 264 -198 488 -466c2 -2 8 -10 8 -16
c0 -8 -6 -14 -14 -14s-12 8 -22 20c-268 316 -452 438 -488 462v-468c0 -8 -6 -14 -14 -14s-14 6 -14 14zM150 -162v1034c0 8 6 14 14 14s14 -6 14 -14v-1034c0 -210 -142 -276 -258 -276c-56 0 -88 12 -98 16s-16 8 -16 18c0 6 6 12 14 12c12 0 32 -18 100 -18
c104 0 230 60 230 248z" />
    <glyph glyph-name="k_y" horiz-adv-x="1540" 
d="M1508 836l-280 -774c-156 -432 -268 -504 -390 -504c-50 0 -86 16 -102 24c-8 4 -16 12 -16 18c0 8 6 14 14 14c6 0 12 -4 20 -8c20 -10 48 -20 84 -20c98 0 204 66 338 416c-10 2 -16 6 -22 14c-90 136 -246 548 -318 742c-18 46 -54 140 -144 140
c-38 0 -76 -18 -122 -60l-374 -342c56 -36 264 -198 488 -466c2 -2 8 -10 8 -16c0 -8 -6 -14 -14 -14s-12 8 -22 20c-268 316 -452 438 -488 462v-468c0 -8 -6 -14 -14 -14s-14 6 -14 14v1348c0 8 6 14 14 14s14 -6 14 -14v-856l382 352c52 48 94 68 142 68
c112 0 148 -100 176 -174c74 -202 220 -584 304 -714c4 -6 8 -10 14 -10c0 0 204 562 306 844c2 6 6 14 14 14s14 -4 14 -14c0 -4 -4 -14 -12 -36z" />
    <glyph glyph-name="r_t" horiz-adv-x="1234" 
d="M140 14v858c0 8 6 14 14 14s14 -6 14 -14v-244c54 208 202 258 358 258h252v282c0 8 6 14 14 14s14 -6 14 -14v-282h312c8 0 14 -6 14 -14s-6 -14 -14 -14h-312v-544c0 -268 130 -298 260 -298c48 0 92 16 112 24c10 4 18 8 22 8c8 0 14 -6 14 -12c0 -8 -4 -12 -8 -14
c-14 -8 -78 -34 -140 -34c-146 0 -288 40 -288 326v544h-252c-136 0 -358 -34 -358 -452v-392c0 -8 -6 -14 -14 -14s-14 6 -14 14z" />
    <glyph glyph-name="r_y" horiz-adv-x="1420" 
d="M1388 836l-280 -774c-156 -432 -268 -504 -390 -504c-50 0 -86 16 -102 24c-8 4 -16 12 -16 18c0 8 6 14 14 14c6 0 12 -4 20 -8c20 -10 48 -20 84 -20c98 0 204 66 338 416c-10 2 -16 6 -22 14c-90 138 -236 520 -308 714c-30 80 -70 154 -220 154
c-108 0 -338 -56 -338 -478v-392c0 -8 -6 -14 -14 -14s-14 6 -14 14v858c0 8 6 14 14 14s14 -6 14 -14v-244c40 160 160 284 338 284c172 0 214 -86 252 -188c74 -202 210 -550 294 -686c4 -6 8 -10 14 -10c0 0 204 562 306 844c2 6 6 14 14 14s14 -4 14 -14
c0 -4 -4 -14 -12 -36z" />
    <glyph glyph-name="s_h" horiz-adv-x="1716" 
d="M1548 14v546c0 240 -64 310 -298 310c-102 0 -218 -42 -284 -84v-772c0 -8 -6 -14 -14 -14s-14 6 -14 14v1316c0 12 -6 18 -16 18c-210 0 -276 -104 -276 -520c0 -10 -8 -18 -18 -18c-8 0 -22 8 -30 12c-42 22 -114 48 -196 48c-118 0 -248 -58 -248 -186
c0 -220 504 -208 504 -452c0 -140 -120 -244 -284 -244c-158 0 -272 74 -280 80c-10 6 -14 12 -14 16c0 8 6 14 14 14c6 0 12 -4 18 -8c8 -6 118 -74 262 -74c148 0 256 90 256 216c0 220 -504 208 -504 452c0 146 142 214 276 214c102 0 180 -36 216 -54
c0 410 76 532 304 532c28 0 44 -14 44 -42v-516c74 42 182 80 284 80c248 0 326 -84 326 -338v-546c0 -8 -6 -14 -14 -14s-14 6 -14 14z" />
    <glyph glyph-name="s_k" horiz-adv-x="1510" 
d="M938 14v1316c0 12 -6 18 -16 18c-210 0 -276 -104 -276 -520c0 -10 -8 -18 -18 -18c-8 0 -22 8 -30 12c-42 22 -114 48 -196 48c-118 0 -248 -58 -248 -186c0 -220 504 -208 504 -452c0 -140 -120 -244 -284 -244c-158 0 -272 74 -280 80c-10 6 -14 12 -14 16
c0 8 6 14 14 14c6 0 12 -4 18 -8c8 -6 118 -74 262 -74c148 0 256 90 256 216c0 220 -504 208 -504 452c0 146 142 214 276 214c102 0 180 -36 216 -54c0 410 76 532 304 532c28 0 44 -14 44 -42v-828l406 374c4 4 8 6 12 6c10 0 14 -8 14 -14s-2 -8 -6 -12l-398 -364
c56 -36 264 -198 488 -466c2 -2 8 -10 8 -16c0 -8 -6 -14 -14 -14s-12 8 -22 20c-268 316 -452 438 -488 462v-468c0 -8 -6 -14 -14 -14s-14 6 -14 14z" />
    <glyph glyph-name="s_l" horiz-adv-x="1168" 
d="M938 310v1020c0 12 -6 18 -16 18c-210 0 -276 -104 -276 -520c0 -10 -8 -18 -18 -18c-8 0 -22 8 -30 12c-42 22 -114 48 -196 48c-118 0 -248 -58 -248 -186c0 -220 504 -208 504 -452c0 -140 -120 -244 -284 -244c-158 0 -272 74 -280 80c-10 6 -14 12 -14 16
c0 8 6 14 14 14c6 0 12 -4 18 -8c8 -6 118 -74 262 -74c148 0 256 90 256 216c0 220 -504 208 -504 452c0 146 142 214 276 214c102 0 180 -36 216 -54c0 410 76 532 304 532c28 0 44 -14 44 -42v-1024c0 -222 36 -282 168 -282c8 0 14 -6 14 -14s-6 -14 -16 -14
c-144 0 -194 66 -194 310z" />
    <glyph glyph-name="s_t" horiz-adv-x="1368" 
d="M912 312v546h-512c-122 0 -246 -48 -246 -174c0 -220 504 -208 504 -452c0 -140 -120 -244 -284 -244c-158 0 -272 74 -280 80c-10 6 -14 12 -14 16c0 8 6 14 14 14c6 0 12 -4 18 -8c8 -6 118 -74 262 -74c148 0 256 90 256 216c0 220 -504 208 -504 452
c0 146 140 202 274 202h512v282c0 8 6 14 14 14s14 -6 14 -14v-282h312c8 0 14 -6 14 -14s-6 -14 -14 -14h-312v-544c0 -268 130 -298 260 -298c48 0 92 16 112 24c10 4 18 8 22 8c8 0 14 -6 14 -12c0 -8 -4 -12 -8 -14c-14 -8 -78 -34 -140 -34c-146 0 -288 40 -288 324z
" />
    <glyph glyph-name="t_t" horiz-adv-x="1208" 
d="M752 314v544h-570v-544c0 -268 130 -298 260 -298c48 0 92 16 112 24c10 4 18 8 22 8c8 0 14 -6 14 -12c0 -8 -4 -12 -8 -14c-14 -8 -78 -34 -140 -34c-146 0 -288 40 -288 326v544h-142c-8 0 -14 6 -14 14s6 14 14 14h142v282c0 8 6 14 14 14s14 -6 14 -14v-282h570v282
c0 8 6 14 14 14s14 -6 14 -14v-282h312c8 0 14 -6 14 -14s-6 -14 -14 -14h-312v-544c0 -268 130 -298 260 -298c48 0 92 16 112 24c10 4 18 8 22 8c8 0 14 -6 14 -12c0 -8 -4 -12 -8 -14c-14 -8 -78 -34 -140 -34c-146 0 -288 40 -288 326z" />
    <glyph glyph-name="grave.uc" horiz-adv-x="572" 
d="M100 1648c0 10 8 14 14 14c5 0 9 -2 14 -4l326 -138c12 -5 18 -8 18 -18s-8 -14 -14 -14c-5 0 -9 2 -14 4l-326 138c-12 5 -18 8 -18 18z" />
    <glyph glyph-name="dieresis.uc" horiz-adv-x="488" 
d="M100 1503v70c0 10 5 15 14 15s14 -5 14 -15v-70c0 -10 -5 -15 -14 -15s-14 5 -14 15zM360 1503v70c0 10 5 15 14 15s14 -5 14 -15v-70c0 -10 -5 -15 -14 -15s-14 5 -14 15z" />
    <glyph glyph-name="macron.uc" horiz-adv-x="712" 
d="M597 1488h-482c-10 0 -15 5 -15 15c0 8 5 13 15 13h482c10 0 15 -5 15 -15c0 -8 -5 -13 -15 -13z" />
    <glyph glyph-name="acute.uc" horiz-adv-x="574" 
d="M445 1658c5 2 9 4 14 4c6 0 14 -4 14 -14s-6 -13 -18 -18l-326 -138c-5 -2 -9 -4 -14 -4c-6 0 -14 4 -14 14s6 13 18 18z" />
    <glyph glyph-name="circumflex.uc" horiz-adv-x="750" 
d="M358 1637c8 4 12 5 17 5s9 -1 17 -5l241 -123c13 -7 18 -9 18 -18s-6 -15 -15 -15c-6 0 -8 2 -20 8l-241 125l-241 -125c-12 -6 -14 -8 -20 -8c-9 0 -15 6 -15 15s5 11 18 18z" />
    <glyph glyph-name="caron.uc" horiz-adv-x="750" 
d="M616 1642c12 6 14 8 20 8c9 0 15 -6 15 -15s-5 -11 -18 -18l-241 -123c-8 -4 -12 -5 -17 -5s-9 1 -17 5l-241 123c-13 7 -18 9 -18 18s6 15 15 15c6 0 8 -2 20 -8l241 -125z" />
    <glyph glyph-name="breve.uc" horiz-adv-x="640" 
d="M505 1644c1 10 6 14 14 14s14 -5 14 -14c0 -8 -2 -25 -9 -45c-29 -77 -108 -111 -204 -111c-100 0 -176 36 -204 111c-7 20 -9 37 -9 45c0 9 6 14 14 14s13 -4 14 -14c10 -89 88 -128 185 -128c101 0 175 41 185 128z" />
    <glyph glyph-name="dotaccent.uc" horiz-adv-x="268" 
d="M96 1526c0 22 16 38 38 38s38 -16 38 -38s-16 -38 -38 -38s-38 16 -38 38z" />
    <glyph glyph-name="ring.uc" horiz-adv-x="458" 
d="M99 1618c0 72 58 130 130 130s130 -58 130 -130s-58 -130 -130 -130s-130 58 -130 130zM331 1618c0 56 -46 102 -102 102s-102 -46 -102 -102s46 -102 102 -102s102 46 102 102z" />
    <glyph glyph-name="tilde.uc" horiz-adv-x="692" 
d="M120 1530c37 25 74 35 112 35c40 0 81 -11 122 -27c39 -14 73 -22 105 -22c34 0 66 9 99 30c9 6 15 10 22 10c8 0 12 -6 12 -12c0 -9 -10 -15 -20 -22c-36 -24 -75 -34 -115 -34c-36 0 -73 8 -117 25c-36 13 -73 24 -108 24c-33 0 -65 -10 -98 -31c-9 -6 -15 -10 -22 -10
c-8 0 -12 6 -12 12c0 9 10 15 20 22z" />
    <glyph glyph-name="hungarumlaut.uc" horiz-adv-x="566" 
d="M103 1516l70 180c5 13 8 18 17 18c10 0 15 -5 15 -13c0 -4 -1 -7 -4 -14l-70 -181c-5 -13 -8 -18 -17 -18c-10 0 -15 5 -15 13c0 4 1 7 4 15zM320 1516l70 180c5 13 8 18 17 18c10 0 15 -5 15 -13c0 -4 -1 -7 -4 -14l-70 -181c-5 -13 -8 -18 -17 -18c-10 0 -15 5 -15 13
c0 4 1 7 4 15z" />
    <glyph glyph-name="x_y" horiz-adv-x="1582" 
d="M30 30l324 452c-148 194 -266 330 -312 378c-4 4 -8 8 -8 14s6 12 14 12c4 0 8 -2 14 -8c24 -22 154 -168 310 -374l254 354c36 50 74 68 120 68c100 0 136 -100 164 -174c74 -202 220 -582 304 -714c4 -6 8 -10 14 -10c0 0 204 562 306 844c2 6 6 14 14 14s14 -4 14 -14
c0 -4 -4 -14 -12 -36l-280 -774c-156 -432 -268 -504 -390 -504c-50 0 -86 16 -102 24c-8 4 -16 12 -16 18c0 8 6 14 14 14c6 0 12 -4 20 -8c20 -10 48 -20 84 -20c98 0 204 66 338 416c-10 2 -16 6 -22 14c-92 138 -246 548 -318 742c-18 46 -54 140 -132 140
c-38 0 -64 -10 -100 -60l-256 -356c106 -136 206 -286 300 -450c4 -8 8 -14 8 -20s-6 -12 -14 -12c-6 0 -10 2 -20 20c-88 154 -188 306 -292 438l-320 -446c-4 -6 -10 -12 -16 -12c-8 0 -14 6 -14 14c0 4 2 8 8 16z" />
    <glyph glyph-name="onequarter" unicode="&#xbc;" horiz-adv-x="1262" 
d="M210 629v613l-96 -66c-6 -4 -12 -8 -18 -8s-12 6 -12 14c0 6 4 10 10 14l112 76c6 4 10 6 16 6c10 0 16 -8 16 -18v-631c0 -10 -5 -15 -14 -15s-14 5 -14 15zM64 26l862 1248c8 12 12 16 18 16c8 0 14 -4 14 -12c0 -4 -2 -8 -6 -14l-862 -1248c-8 -12 -12 -16 -18 -16
c-8 0 -14 4 -14 12c0 4 2 8 6 14zM1016 25v161h-308c-8 0 -16 6 -16 16c0 4 2 8 4 14c94 218 274 406 320 450c6 6 10 10 16 10c8 0 14 -4 14 -12s-6 -14 -10 -18c-32 -32 -200 -196 -310 -432h290v317c0 10 5 15 14 15s14 -5 14 -15v-317h75c10 0 15 -5 15 -14
s-5 -14 -15 -14h-75v-161c0 -10 -5 -15 -14 -15s-14 5 -14 15z" />
    <glyph glyph-name="onehalf" unicode="&#xbd;" horiz-adv-x="1262" 
d="M210 629v613l-96 -66c-6 -4 -12 -8 -18 -8s-12 6 -12 14c0 6 4 10 10 14l112 76c6 4 10 6 16 6c10 0 16 -8 16 -18v-631c0 -10 -5 -15 -14 -15s-14 5 -14 15zM64 26l862 1248c8 12 12 16 18 16c8 0 14 -4 14 -12c0 -4 -2 -8 -6 -14l-862 -1248c-8 -12 -12 -16 -18 -16
c-8 0 -14 4 -14 12c0 4 2 8 6 14zM751 28h323c10 0 15 -5 15 -14s-5 -14 -15 -14h-333c-10 0 -18 8 -18 16c0 148 334 326 334 484c0 88 -52 144 -150 144c-71 0 -116 -34 -133 -43c-7 -4 -10 -5 -13 -5c-8 0 -14 6 -14 14c0 4 2 9 10 14c11 7 74 48 150 48
c52 0 178 -18 178 -172c0 -170 -312 -334 -334 -472z" />
    <glyph glyph-name="threequarters" unicode="&#xbe;" horiz-adv-x="1508" 
d="M323 1284c104 0 186 -54 186 -172c0 -86 -52 -142 -126 -162c76 -24 138 -64 138 -170c0 -104 -96 -174 -198 -174c-100 0 -160 39 -174 48c-6 4 -8 8 -8 13c0 8 6 14 14 14c3 0 5 -1 10 -4c7 -4 70 -43 158 -43c78 0 170 54 170 146c0 134 -128 154 -216 154
c-9 0 -14 5 -14 14s5 14 14 14c86 0 204 23 204 150c0 98 -68 144 -158 144c-65 0 -116 -32 -134 -42c-6 -3 -9 -4 -12 -4c-8 0 -14 6 -14 14c0 5 3 10 13 16c15 8 82 44 147 44zM310 26l862 1248c8 12 12 16 18 16c8 0 14 -4 14 -12c0 -4 -2 -8 -6 -14l-862 -1248
c-8 -12 -12 -16 -18 -16c-8 0 -14 4 -14 12c0 4 2 8 6 14zM1262 25v161h-308c-8 0 -16 6 -16 16c0 4 2 8 4 14c94 218 274 406 320 450c6 6 10 10 16 10c8 0 14 -4 14 -12s-6 -14 -10 -18c-32 -32 -200 -196 -310 -432h290v317c0 10 5 15 14 15s14 -5 14 -15v-317h75
c10 0 15 -5 15 -14s-5 -14 -15 -14h-75v-161c0 -10 -5 -15 -14 -15s-14 5 -14 15z" />
    </font>
</defs>
</svg>
