<?xml version="1.0" encoding="utf-8"?>
<!-- Generator: Adobe Illustrator 18.1.0, SVG Export Plug-In . SVG Version: 6.00 Build 0)  -->
<!DOCTYPE svg PUBLIC "-//W3C//DTD SVG 1.1//EN" "http://www.w3.org/Graphics/SVG/1.1/DTD/svg11.dtd">
<svg version="1.1" id="Layer_2" xmlns="http://www.w3.org/2000/svg" xmlns:xlink="http://www.w3.org/1999/xlink" x="0px" y="0px"
	 viewBox="0 0 595.3 595.3" enable-background="new 0 0 595.3 595.3" xml:space="preserve">
<linearGradient id="SVGID_1_" gradientUnits="userSpaceOnUse" x1="297.3635" y1="556.3361" x2="297.3635" y2="39.7489">
	<stop  offset="0" style="stop-color:#6D676C"/>
	<stop  offset="1" style="stop-color:#929497"/>
</linearGradient>
<path fill="url(#SVGID_1_)" d="M535.2,139.4l-79.1-79.1c-13.3-13.3-30.5-20.6-48.4-20.6c-16.6,0-32.3,6.2-43.2,17L111.1,310.2
	c-8.4,8.4-14.8,18.9-18.5,30.3L40.9,501.9c-4.1,12.8-1.9,26.4,6,37.2c7.9,10.8,20.4,17.2,33.6,17.2c4.3,0,8.6-0.7,12.7-2l162.6-51.7
	c10.9-3.5,21-9.6,29.1-17.7l254-254C559.9,209.8,564.5,168.8,535.2,139.4z M253.1,453.2c-3.1,3.1-6.8,5.4-11,6.7l-73.6,23.4
	L112,426.8l23.3-72.7c1.5-4.6,4.1-8.8,7.5-12.3L347,137.7l110.9,110.9L253.1,453.2z M507.1,199.3l-20.4,20.4L375.8,108.8l20.4-20.4
	c2-1.9,6.3-3.9,11.5-3.9c4.2,0,10.5,1.3,16.7,7.4l79.1,79.1C515.4,183.1,510.2,196.2,507.1,199.3z"/>
</svg>
