<?xml version="1.0" encoding="utf-8"?>
<!-- Generator: Adobe Illustrator 18.1.0, SVG Export Plug-In . SVG Version: 6.00 Build 0)  -->
<!DOCTYPE svg PUBLIC "-//W3C//DTD SVG 1.1//EN" "http://www.w3.org/Graphics/SVG/1.1/DTD/svg11.dtd">
<svg version="1.1" id="Layer_2" xmlns="http://www.w3.org/2000/svg" xmlns:xlink="http://www.w3.org/1999/xlink" x="0px" y="0px"
	 viewBox="316.2 -9.8 327.8 578.9" enable-background="new 316.2 -9.8 327.8 578.9" xml:space="preserve">
<linearGradient id="SVGID_1_" gradientUnits="userSpaceOnUse" x1="208.479" y1="234.1653" x2="208.479" y2="234.1653">
	<stop  offset="0" style="stop-color:#3772B9"/>
	<stop  offset="1" style="stop-color:#02519D"/>
</linearGradient>
<path fill="url(#SVGID_1_)" d="M208.5,234.2"/>
<path fill="#00AADD" d="M632.4,279.7c0-31.2-12.4-61.2-34.5-83.3L417.7,16.2c-20.5-20.5-54-20.5-74.4,0l0,0
	c-20.5,20.5-20.5,54,0,74.4l169,169c11.1,11.1,11.1,29,0,40.1l-169,169c-20.5,20.5-20.5,54,0,74.4l0,0c20.5,20.5,54,20.5,74.4,0
	l180.2-180.2C619.9,340.9,632.4,310.9,632.4,279.7L632.4,279.7z"/>
</svg>
