<?xml version="1.0" encoding="utf-8"?>
<!-- Generator: Adobe Illustrator 18.1.0, SVG Export Plug-In . SVG Version: 6.00 Build 0)  -->
<!DOCTYPE svg PUBLIC "-//W3C//DTD SVG 1.1//EN" "http://www.w3.org/Graphics/SVG/1.1/DTD/svg11.dtd">
<svg version="1.1" id="Layer_2" xmlns="http://www.w3.org/2000/svg" xmlns:xlink="http://www.w3.org/1999/xlink" x="0px" y="0px"
	 viewBox="0 0 595.3 595.3" enable-background="new 0 0 595.3 595.3" xml:space="preserve">
<g>
	<g>
		<linearGradient id="SVGID_1_" gradientUnits="userSpaceOnUse" x1="298.3464" y1="560.9152" x2="298.3464" y2="34.9984">
			<stop  offset="0" style="stop-color:#6D676C"/>
			<stop  offset="1" style="stop-color:#929497"/>
		</linearGradient>
		<path fill="url(#SVGID_1_)" d="M496.6,208.8c-0.1,0-0.3,0-0.4,0c-28.6-82.4-101-146.5-193.1-160c-11.6-1.7-23.4-2.6-35.1-2.6
			c-25.5,0-50.6,4.1-74.5,11.9c-12.3-11.6-28.1-19.6-46.1-22.3c-46.8-6.8-90.2,25.6-97.1,72.3c-2.9,20,1.4,39.4,10.9,55.6
			c-16.1,27-27,57.2-31.6,88.9c-9.3,63.8,6.8,127.3,45.3,179c3.6,4.8,7.4,9.4,11.3,13.9c-2,5.5-3.5,11.2-4.4,17.3
			c-6.8,46.8,25.6,90.2,72.3,97.1c32.2,4.7,62.8-9.2,81-33.5c11.1,1.5,22.4,2.4,33.5,2.4c57.4,0,113.1-20.7,156.9-58.2
			c29.3-25.1,51.8-56.7,66.2-91.9c38.7-3.3,71.5-32.7,77.4-72.8C575.7,259.1,543.4,215.7,496.6,208.8z M399.5,281.2
			c-5.1,34.7,11.4,67.5,39.3,84.9c-30.2,65-96.2,109.6-170.4,109.6c-5.5,0-11.1-0.3-16.6-0.8c-0.2-41.6-30.7-78-73.1-84.2
			c-21.3-3.1-41.8,2-58.6,12.8c-0.9-1.1-1.8-2.3-2.7-3.4c-30-40.3-42.5-89.8-35.3-139.5c3.2-21.8,10.2-42.2,20.1-60.8
			c6.4,2.6,13.1,4.6,20.3,5.7c46.8,6.8,90.2-25.6,97.1-72.3c1.3-9.2,1.1-18.2-0.4-26.9c15.6-4.3,31.9-6.6,48.7-6.6
			c9.1,0,18.3,0.7,27.4,2C364.3,111.6,419,158.1,443,218.6C420.4,231.1,403.5,253.6,399.5,281.2z"/>
	</g>
</g>
</svg>
