<?xml version="1.0" encoding="utf-8"?>
<!-- Generator: Adobe Illustrator 18.1.0, SVG Export Plug-In . SVG Version: 6.00 Build 0)  -->
<!DOCTYPE svg PUBLIC "-//W3C//DTD SVG 1.1//EN" "http://www.w3.org/Graphics/SVG/1.1/DTD/svg11.dtd">
<svg version="1.1" id="Layer_2" xmlns="http://www.w3.org/2000/svg" xmlns:xlink="http://www.w3.org/1999/xlink" x="0px" y="0px"
	 viewBox="0 0 595.3 595.3" enable-background="new 0 0 595.3 595.3" xml:space="preserve">
<path fill="#CC0022" d="M274,79.8c10.5-18.2,36.7-18.2,47.2,0L439.1,284L557,488.2c10.5,18.2-2.6,40.9-23.6,40.9H297.6H61.8
	c-21,0-34.1-22.7-23.6-40.9L156.1,284L274,79.8z"/>
<g>
	<path fill="#FFFFFF" d="M278.3,363.2l-4.5-67c-0.8-13-1.3-22.4-1.3-28.1c0-7.7,2-13.8,6.1-18.1c4.1-4.3,9.4-6.5,16-6.5
		c8,0,13.4,2.8,16.1,8.3c2.7,5.5,4.1,13.5,4.1,24c0,6.2-0.3,12.4-1,18.7l-6,68.9c-0.7,8.2-2.1,14.5-4.2,18.9
		c-2.1,4.4-5.7,6.6-10.6,6.6c-5,0-8.5-2.1-10.5-6.4C280.6,378.3,279.2,371.8,278.3,363.2z M293.9,455.1c-5.7,0-10.6-1.8-14.9-5.5
		c-4.2-3.7-6.4-8.8-6.4-15.4c0-5.8,2-10.7,6.1-14.7c4.1-4.1,9-6.1,14.9-6.1c5.9,0,10.9,2,15,6.1c4.1,4.1,6.2,9,6.2,14.7
		c0,6.5-2.1,11.6-6.3,15.4C304.3,453.3,299.5,455.1,293.9,455.1z"/>
</g>
</svg>
