<?xml version="1.0" encoding="utf-8"?>
<!-- Generator: Adobe Illustrator 18.1.0, SVG Export Plug-In . SVG Version: 6.00 Build 0)  -->
<!DOCTYPE svg PUBLIC "-//W3C//DTD SVG 1.1//EN" "http://www.w3.org/Graphics/SVG/1.1/DTD/svg11.dtd">
<svg version="1.1" id="Layer_2" xmlns="http://www.w3.org/2000/svg" xmlns:xlink="http://www.w3.org/1999/xlink" x="0px" y="0px"
	 viewBox="0 0 85.9 86" style="enable-background:new 0 0 85.9 86;" xml:space="preserve">
<style type="text/css">
	.st0{fill:url(#SVGID_1_);}
</style>
<g>
	<g>
		<linearGradient id="SVGID_1_" gradientUnits="userSpaceOnUse" x1="42.965" y1="80.9695" x2="42.965" y2="5.0005">
			<stop  offset="0" style="stop-color:#6D676C"/>
			<stop  offset="1" style="stop-color:#939598"/>
		</linearGradient>
		<path class="st0" d="M79.4,27.9L47.7,6.5c-2.9-2-6.7-2-9.7,0L6.5,27.9c-1.6,1.1-2,3.2-0.9,4.8l2.1,2.9c1.1,1.6,3.2,2,4.8,0.9
			l0.8-0.5v32.5c0,3.1,1.3,6.2,3.6,8.5c2.3,2.4,5.7,3.9,9.9,3.9h32.1c4.2,0,7-1.6,9.4-3.9c2.3-2.4,4.1-5.5,4.1-8.5V35.8l1.1,0.7
			c1.6,1.1,3.4,0.7,4.8-0.9s2.2-2.9,2.2-2.9C81.4,31.1,81,28.9,79.4,27.9z M64.5,68.5c0,2.1-2,4.4-5.4,4.4H26.5
			c-3.4,0-5.4-2.3-5.4-4.4V30.8l19.8-13.2c1.2-0.8,2.7-0.8,3.9,0l19.8,13.1V68.5z"/>
	</g>
</g>
</svg>
