<?xml version="1.0" encoding="utf-8"?>
<!-- Generator: Adobe Illustrator 18.1.0, SVG Export Plug-In . SVG Version: 6.00 Build 0)  -->
<!DOCTYPE svg PUBLIC "-//W3C//DTD SVG 1.1//EN" "http://www.w3.org/Graphics/SVG/1.1/DTD/svg11.dtd">
<svg version="1.1" id="Isolation_Mode" xmlns="http://www.w3.org/2000/svg" xmlns:xlink="http://www.w3.org/1999/xlink" x="0px"
	 y="0px" viewBox="0 0 353.6 372.1" style="enable-background:new 0 0 353.6 372.1;" xml:space="preserve">
<style type="text/css">
	.st0{fill:#C6C6C5;}
</style>
<g>
	<path class="st0" d="M307.5,284.7c-2.3,3.2-6.4,5.4-10.6,5.4c-5.6,0-10.5-4.1-10.5-10.7c0-6.7,4.1-10.9,9.9-10.9
		c3,0,6.6,1.1,9.8,4.9l5.7-4.7c-3.5-5.1-9-7-14.6-7c-11.9,0-18.2,7.1-18.2,17.5c0,10.8,7.4,17.7,18.1,17.7c6.1,0,9.9-1.7,15.1-7
		L307.5,284.7z"/>
	<path class="st0" d="M260.7,261.6c-3.8,0-8,0.7-11.2,4.2v-3.8h-7.5v51.4h7.5v-20.1c3.6,3.3,7.2,3.5,10.9,3.5c8.3,0,15-7.6,15-17.8
		C275.4,268.6,269.3,261.6,260.7,261.6z M258.5,290.2c-5.7,0-9.5-4.3-9.5-11.1c0-6.4,4-10.7,9.6-10.7c5.4,0,9.2,4.1,9.2,10.4
		C267.9,285.6,264.7,290.2,258.5,290.2z"/>
	<path class="st0" d="M228.3,280.9c0,5.7-3.5,9-8.7,9c-4.4,0-6.7-2.3-6.7-7.3v-20.5h-7.5v22.6c0,7.6,5.1,12.1,12.5,12.1
		c2.9,0,7.1-0.5,10.9-5v4.2h7v-33.9h-7.5V280.9z"/>
	<path class="st0" d="M59.4,161.9c-0.4-5.2-0.5-10.5-0.3-15.7c0.2-4.2,0.6-8.3,1.3-12.5c0.7-4.2,1.8-8.3,3.5-12.4c0.9-2,2-4,3.4-5.9
		c1.4-1.9,3.2-3.6,5.3-5c0.5-0.3,1.1-0.6,1.7-0.9c0.5-0.3,1-0.5,1.6-0.7c-0.7-8.2-0.6-17.9-0.4-26c0.2-8.7,0.8-15.2-2.1-14.8
		C69.9,68.4,59,91.1,56.6,121c-0.9,10.8-0.1,22,1.5,31.8C58.5,155.9,58.9,158.9,59.4,161.9z"/>
	<path class="st0" d="M98.6,124.5c1.2,2.5,2.3,5.1,3.2,7.6c5.4,14.4,9.4,29,12.9,43.8c1.7-1.9,3.6-3.6,6-4.9c2.7-1.6,6-2.5,9.2-2.5
		c3.2,0,6.5,1,9.2,2.5c2.3,1.3,4.3,3,6,4.9c3.6-14.8,7.5-29.3,12.9-43.8c1-2.6,2-5.1,3.2-7.6c-0.6-4.6-2.6-15.9-3.5-20.1
		c-1.8-8.3-10.3-45.8-27.9-45.8c-17.6,0-26.1,37.5-27.9,45.8C101.2,108.6,99.2,119.9,98.6,124.5z"/>
	<path class="st0" d="M94.6,117.4c3-17.5,5.9-28.1,9.6-37.9c-7,1.2-15,17.4-17.5,30c0.4,0.2,0.8,0.5,1.2,0.7
		C90.8,112.3,92.9,114.8,94.6,117.4z"/>
	<path class="st0" d="M185.7,109.4c0.6,0.3,1.1,0.6,1.6,0.9c2.1,1.4,3.9,3.1,5.3,5c1.4,1.9,2.5,3.9,3.4,5.9
		c1.8,4.1,2.8,8.3,3.5,12.4c0.7,4.2,1.1,8.3,1.3,12.5c0.2,5.3,0.1,10.5-0.3,15.7c0.5-3,0.9-6.1,1.4-9c1.5-9.8,2.4-21,1.5-31.8
		C201,91.1,190.1,68.4,186.6,68c-2.9-0.4-2.3,6.1-2.1,14.8c0.2,8.1,0.3,17.8-0.4,26C184.7,109,185.2,109.2,185.7,109.4z"/>
	<path class="st0" d="M172.2,110.2c0.4-0.2,0.8-0.5,1.2-0.7c-2.6-12.6-10.6-28.8-17.5-30c3.7,9.8,6.6,20.3,9.6,37.9
		C167.1,114.8,169.2,112.3,172.2,110.2z"/>
	<path class="st0" d="M191.7,228.6c-3-0.4-14.6,4.1-18.2,5.1c0,0-1.1,0.3-1.1,0c0-0.3,1.7-0.9,1.7-0.9c24.9-9.1,40.4-27.2,39.2-31.5
		c-1.6-3.7-11.7,6.6-19.1,11.2c0,0-0.7,0.4-0.7,0.1c0-0.2,0.8-0.8,0.8-0.8c19.2-15.2,27-44,23.6-46.6c-1.8-0.6-4.9,6.4-9.5,14.9
		c-3.5,6.5-6.8,10.7-6.8,10.7s-0.3,0.4-0.5,0.3c-0.1,0,0.1-0.5,0.1-0.5c13.8-28.4,15.3-48.5,15.8-57.7c1.1-20.8-2.7-21.8-4.2-15
		c-1.8,7.8-3.8,17.9-5.3,27.9c-2.1,14-6.3,28-11,40.3c-0.9,3.1-1.9,6.1-3.1,9.1c-1.6,3.8-3.3,7.6-5.3,11.2c-2.5,4.7-3.8,6.8-5.4,9.2
		c-0.7,1-1.9,2.5-3.3,2.1c-0.7-0.2-1.1-0.9-0.4-2.3l0,0c3.7-7.1,7.1-14.4,9.8-21.9c1.4-3.7,2.5-7.5,3.4-11.4c1-3.8,1.7-7.8,2.3-11.7
		c0.6-3.9,0.9-7.9,1.1-11.9c0.1-4,0.1-8-0.2-11.9c-0.3-3.9-0.8-7.9-1.7-11.7c-0.9-3.8-2-7.5-3.7-10.8c-1.6-3.3-3.8-6.2-6.5-7.8
		c-0.3-0.2-0.7-0.4-1-0.5c-0.3-0.2-0.7-0.3-1-0.4c-0.1-0.1-0.4-0.1-0.7-0.2c0,0-0.3-0.1-0.4-0.1c-0.3-0.1-0.6-0.1-0.9-0.1
		c-1.2,0-2.4,0.3-3.7,1.2c-1.3,0.8-2.5,2-3.7,3.4c-1.2,1.4-2.3,2.9-3.3,4.5c-2,3.3-3.8,6.8-5.4,10.4c-1.6,3.6-3.1,7.4-4.4,11.2
		c-1.3,3.8-2.6,7.6-3.8,11.5c-2.4,7.7-4.6,15.5-6.5,23.4l0,0c0,0.1-0.1,0.2-0.1,0.3c2.6,4,4.4,8.3,6,12.6c2,5.6,3.6,11.2,4.7,17
		c0.5,2.9,1,5.8,1.3,8.7c0.3,2.9,0.5,5.1,0.5,8.1c0,1.7-0.9,2.7-2,2.8h0c0,0-0.1,0-0.1,0c-0.2,0-0.4,0-0.6-0.1
		c-1.1-0.2-1.6-1.1-1.6-2.4l0-0.1c-0.1-2.7-0.4-5.1-0.8-7.9c-0.4-2.8-0.9-5.5-1.5-8.3c-1.2-5.5-2.9-10.9-5-16
		c-2.1-5.1-4.7-10.1-8.1-14c-1.7-2-3.6-3.6-5.7-4.8c-1.9-1.1-4-1.6-6.2-1.6c-2.2,0-4.2,0.5-6.2,1.6c-2.1,1.1-4,2.8-5.7,4.8
		c-3.4,4-6,8.9-8.1,14c-2.1,5.1-3.7,10.5-5,16c-0.6,2.7-1.1,5.5-1.5,8.3c-0.4,2.8-0.7,5.2-0.8,7.9l0,0.1c-0.1,1.2-0.5,2.1-1.6,2.4
		c-0.2,0-0.4,0.1-0.6,0.1c0,0,0,0-0.1,0c0,0,0,0,0,0c-1.2,0-2.1-1.1-2-2.8c0-3.1,0.2-5.2,0.5-8.1c0.3-2.9,0.8-5.8,1.3-8.7
		c1.1-5.8,2.7-11.4,4.7-17c1.6-4.3,3.5-8.6,6-12.6c0-0.1-0.1-0.2-0.1-0.3l0,0c-1.9-7.8-4.1-15.7-6.4-23.4c-1.2-3.9-2.4-7.7-3.8-11.5
		c-1.4-3.8-2.8-7.5-4.4-11.2c-1.6-3.6-3.4-7.2-5.4-10.4c-1-1.6-2.1-3.2-3.3-4.5c-1.2-1.4-2.4-2.6-3.7-3.4c-1.3-0.8-2.5-1.2-3.7-1.2
		c-0.3,0-0.6,0-0.9,0.1c-0.1,0-0.4,0.1-0.4,0.1c-0.2,0.1-0.5,0.2-0.7,0.2c-0.3,0.1-0.7,0.2-1,0.4c-0.3,0.2-0.7,0.4-1,0.5
		c-2.7,1.6-4.8,4.5-6.5,7.8c-1.6,3.3-2.8,7-3.7,10.8c-0.9,3.8-1.4,7.7-1.7,11.7c-0.3,3.9-0.3,7.9-0.2,11.9c0.1,4,0.5,8,1.1,11.9
		c0.6,3.9,1.3,7.8,2.3,11.7c0.9,3.9,2.1,7.7,3.4,11.4c2.7,7.5,6.1,14.8,9.8,21.9l0,0c0.7,1.4,0.3,2.1-0.4,2.3
		c-1.4,0.4-2.6-1.1-3.3-2.1c-1.6-2.4-2.9-4.5-5.4-9.2c-2-3.6-3.7-7.4-5.3-11.2c-1.2-3-2.2-6-3.1-9.1c-4.7-12.3-8.9-26.3-11-40.3
		c-1.5-9.9-3.6-20-5.3-27.9c-1.5-6.8-5.2-5.8-4.2,15c0.5,9.2,2,29.3,15.8,57.7c0,0,0.2,0.4,0.1,0.5c-0.2,0.1-0.5-0.3-0.5-0.3
		s-3.4-4.2-6.8-10.7c-4.5-8.5-7.7-15.5-9.5-14.9c-3.3,2.6,4.4,31.4,23.6,46.6c0,0,0.9,0.7,0.8,0.8c0,0.3-0.7-0.1-0.7-0.1
		c-7.5-4.6-17.5-14.9-19.1-11.2c-1.2,4.3,14.3,22.4,39.2,31.5c0,0,1.7,0.6,1.7,0.9c0,0.3-1.1,0-1.1,0c-3.6-1.1-15.2-5.6-18.2-5.1
		c-3.2,0.4-1.4,2.7,1.7,5.4c3,2.7,17,11,36.3,12.4c0.1,1.7,6.8,7.8,23.7,7.8c16.9,0,23.6-6.1,23.7-7.8C173,245,187,236.6,190,234
		C193.1,231.3,195,229,191.7,228.6z"/>
</g>
</svg>
