<?xml version="1.0" encoding="utf-8"?>
<!-- Generator: Adobe Illustrator 18.1.0, SVG Export Plug-In . SVG Version: 6.00 Build 0)  -->
<!DOCTYPE svg PUBLIC "-//W3C//DTD SVG 1.1//EN" "http://www.w3.org/Graphics/SVG/1.1/DTD/svg11.dtd">
<svg version="1.1" id="Layer_3" xmlns="http://www.w3.org/2000/svg" xmlns:xlink="http://www.w3.org/1999/xlink" x="0px" y="0px"
	 viewBox="56.3 0 482.7 595.3" enable-background="new 56.3 0 482.7 595.3" xml:space="preserve">
<linearGradient id="SVGID_1_" gradientUnits="userSpaceOnUse" x1="236.6479" y1="11.0295" x2="236.6479" y2="584.2305" gradientTransform="matrix(1 0 0 -1 61 595.26)">
	<stop  offset="0" style="stop-color:#6D676C"/>
	<stop  offset="1" style="stop-color:#929497"/>
</linearGradient>
<path fill="url(#SVGID_1_)" d="M360.6,11H234.7c-27.8,0-50.4,22.6-50.4,50.4v472.3v50.4h176.3h50.4V61.5
	C411.1,33.6,388.5,11,360.6,11z M373.8,546.8H221.6V79.6c0-17.2,14-31.2,31.2-31.2h89.7c17.2,0,31.2,14,31.2,31.2v463.1L373.8,546.8
	z M437,582.9v-49.2v-90.1V306.9c0-4.6,6.7-5.1,7.3-0.6l34.1,216.6C483,551.3,464,577.3,437,582.9z M116.8,522.9L151,306.3
	c0.7-4.6,7.3-4,7.3,0.6v136.8v90.1V583C131.4,577.3,112.4,551.3,116.8,522.9z M332.2,426.7c0,11.6-9.3,20.9-20.9,20.9h-27.1
	c-11.6,0-20.9-9.3-20.9-20.9v-5.2c0-11.6,9.3-20.9,20.9-20.9h27.1c11.6,0,20.9,9.3,20.9,20.9V426.7z"/>
</svg>
