<?xml version="1.0" encoding="utf-8"?>
<!-- Generator: Adobe Illustrator 18.1.0, SVG Export Plug-In . SVG Version: 6.00 Build 0)  -->
<!DOCTYPE svg PUBLIC "-//W3C//DTD SVG 1.1//EN" "http://www.w3.org/Graphics/SVG/1.1/DTD/svg11.dtd">
<svg version="1.1" id="Layer_2" xmlns="http://www.w3.org/2000/svg" xmlns:xlink="http://www.w3.org/1999/xlink" x="0px" y="0px"
	 viewBox="0 0 595.3 595.3" enable-background="new 0 0 595.3 595.3" xml:space="preserve">
<g>
	<g>
		<linearGradient id="SVGID_1_" gradientUnits="userSpaceOnUse" x1="297.4179" y1="560.4508" x2="297.4179" y2="34.8225">
			<stop  offset="0" style="stop-color:#6D676C"/>
			<stop  offset="1" style="stop-color:#929497"/>
		</linearGradient>
		<path fill="url(#SVGID_1_)" d="M528.2,384c0,0-4.3-10.9-7.2-16c-3.4-6.5-7.2-12.6-11.4-18.1c-11.2-14.9-25.4-26.2-42-33.6
			c22-13.8,38-36.8,42-63.9c3.5-24.1-2.6-48-17.1-67.5c-14.5-19.5-35.8-32.2-59.8-35.7c-4.4-0.6-8.8-1-13.2-1
			c-44.8,0-83.5,33.5-90,77.9c-3.5,24.1,2.6,48,17.1,67.5c6.7,8.9,14.8,16.3,23.9,22.2c-8.2,3.5-15.7,7.9-22.6,13.3
			c-1.9-4.5-4.5-10.4-6.5-14c-4.3-8.3-9.1-16-14.5-23.1c-14.3-19-32.2-33.5-53.5-42.9c28-17.6,48.3-46.9,53.4-81.4
			c4.5-30.7-3.3-61.3-21.8-86.1c-18.5-24.9-45.6-41-76.3-45.5c-5.6-0.8-11.3-1.2-16.9-1.2c-57.1,0-106.5,42.7-114.7,99.3
			c-4.5,30.7,3.3,61.3,21.8,86.1c8.4,11.3,18.7,20.7,30.2,28.2c-21.9,9.4-40.3,24.2-54.9,43.6c-5.3,7.1-10.2,14.8-14.5,23.1
			c-3.6,6.5-9.1,20.4-9.1,20.4c-11.3,29.4-17.1,64.4-17.1,103.8v38.5c0,54.8,11.2,82.7,82.7,82.7l74.5,0l74.5,0
			c16.5,0,29.7-1.5,40.3-4.5c8.9,3,20.2,4.5,34.9,4.5l58.4,0l58.4,0c56.1,0,64.8-21.8,64.8-64.8v-30.2
			C541.6,434.5,537,407.1,528.2,384z M148.1,141.6c4.6-31.4,31.9-55.1,63.6-55.1c3.1,0,6.3,0.2,9.4,0.7c17,2.5,32,11.4,42.3,25.2
			c10.3,13.8,14.6,30.7,12.1,47.8c-4.6,31.4-31.9,55.1-63.6,55.1c-3.1,0-6.3-0.2-9.4-0.7c-17-2.5-32-11.4-42.3-25.2
			C149.9,175.6,145.6,158.6,148.1,141.6z M295.4,506.6H131.2c-12.3,0-22.4-10-22.4-22.4v-46.1c0-34.8,4.4-70.6,18.6-97.5
			c14.2-26.7,43.1-47.3,82.7-47.6c39.6,0.2,68.5,20.9,82.7,47.6c6,11.2,11.9,30.4,15.2,45.2c-8.4,22.7-12.8,49.5-12.8,79.6v30.2
			C295.2,499.5,295.3,503.1,295.4,506.6z M374.5,232.7c3.2-22.2,22.5-38.9,44.9-38.9c2.2,0,4.4,0.2,6.6,0.5
			c12,1.8,22.6,8.1,29.9,17.8c7.2,9.7,10.3,21.7,8.5,33.7c-3.2,22.2-22.5,38.9-44.9,38.9c-2.2,0-4.4-0.2-6.6-0.5
			c-12-1.8-22.6-8.1-29.9-17.8C375.8,256.7,372.8,244.7,374.5,232.7z M489.9,494c0,8.7-7.1,15.8-15.8,15.8H362.7
			c-8.7,0-15.8-7.1-15.8-15.8v-32.5c0-24.6,3.1-49.9,13.1-68.8c10-18.9,30.4-33.4,58.4-33.6c28,0.2,48.3,14.7,58.4,33.6
			c10,18.9,13.2,44.2,13.1,68.8V494z"/>
	</g>
</g>
</svg>
