<?xml version="1.0" encoding="utf-8"?>
<!-- Generator: Adobe Illustrator 18.1.0, SVG Export Plug-In . SVG Version: 6.00 Build 0)  -->
<!DOCTYPE svg PUBLIC "-//W3C//DTD SVG 1.1//EN" "http://www.w3.org/Graphics/SVG/1.1/DTD/svg11.dtd">
<svg version="1.1" id="settings-icon" xmlns="http://www.w3.org/2000/svg" xmlns:xlink="http://www.w3.org/1999/xlink" x="0px"
	 y="0px" viewBox="195 -5 568.5 568.5" style="enable-background:new 195 -5 568.5 568.5;" xml:space="preserve">
<style type="text/css">
	.st0{fill:url(#SVGID_1_);}
</style>
<g>
	<g>
		
			<linearGradient id="SVGID_1_" gradientUnits="userSpaceOnUse" x1="36.6538" y1="486.4873" x2="36.6538" y2="559.9999" gradientTransform="matrix(7.619 0 0 -7.619 200 4266.6665)">
			<stop  offset="0" style="stop-color:#6D676C"/>
			<stop  offset="1" style="stop-color:#939598"/>
		</linearGradient>
		<path class="st0" d="M480.4,148.6c-72.4,0-131.8,59.4-131.8,131.8S408,412.2,480.4,412.2s131-59.4,131-131.8
			C611.4,207.2,552.8,148.6,480.4,148.6z M480.4,367.2c-48,0-87.6-38.9-87.6-87.6s38.9-87.6,87.6-87.6s87.6,38.9,87.6,87.6
			S528.4,367.2,480.4,367.2z M695.2,194.3c-0.8-1.5-1.5-3.8-2.3-5.3c24.4-27.4,22.9-69.3-3-95.2L667,70.9
			c-13-13-30.5-20.6-49.5-20.6c-16.8,0-33.5,6.1-45.7,17.5c-1.5-0.8-3.8-1.5-5.3-2.3C563.4,29,533,0,496.4,0h-32
			c-36.6,0-67,29-69.3,65.5c-1.5,0.8-3.8,1.5-5.3,2.3c-13-11.4-29-17.5-45.7-17.5c-18.3,0-35.8,6.9-49.5,20.6l-22.9,22.9
			c-25.9,25.9-27.4,67.8-3,95.2c-0.8,1.5-1.5,3.8-2.3,5.3C229,196.6,200,227,200,263.6v32c0,36.6,29,67,64.8,69.3
			c0.8,2.3,1.5,3.8,2.3,5.3c-23.6,27.4-22.9,69.3,3,95.2l22.9,22.9c13,13,30.5,20.6,49.5,20.6c16.8,0,33.5-6.1,45.7-17.5
			c1.5,0.8,3.8,1.5,6.1,2.3c2.3,36.6,32.8,64.8,69.3,64.8h32c36.6,0,67-29,69.3-64.8c2.3-0.8,3.8-1.5,5.3-2.3
			c13,11.4,29,17.5,45.7,17.5c18.3,0,35.8-7.6,49.5-20.6l22.9-22.9c25.9-25.9,27.4-67.8,3-95.2c0.8-1.5,1.5-3.8,2.3-5.3
			c36.6-2.3,64.8-32.8,64.8-69.3v-32C760,227,731,196.6,695.2,194.3z M712.8,296.4c0,12.2-9.9,22.1-22.1,22.1h-19
			c-6.9,0-12.2,4.6-14.5,10.7c-3.8,14.5-9.9,28.2-16.8,41.1c-3,6.1-2.3,13,2.3,17.5l13.7,13.7c8.4,8.4,8.4,22.9,0,31.2l-22.9,22.9
			c-4.6,4.6-9.9,6.9-16,6.9c-5.3,0-11.4-2.3-16-6.9l-13-13c-3-3-6.9-4.6-9.9-4.6c-2.3,0-5.3,0.8-7.6,2.3c-13,7.6-26.7,13-41.1,16.8
			c-6.1,1.5-10.7,7.6-10.7,13.7v19c0,12.2-9.9,22.1-22.1,22.1h-32c-12.2,0-22.1-9.9-22.1-22.1v-19c0-6.9-4.6-12.2-10.7-14.5
			c-14.5-3.8-28.2-9.9-41.1-16.8c-2.3-1.5-4.6-2.3-7.6-2.3c-3.8,0-7.6,1.5-9.9,4.6L360,455.6c-4.6,4.6-9.9,6.9-16,6.9
			c-5.3,0-11.4-2.3-16-6.9l-22.9-22.9c-8.4-8.4-8.4-22.9,0-31.2l13.7-13.7c4.6-4.6,5.3-12.2,2.3-17.5c-7.6-13-13-26.7-16.8-41.1
			c-1.5-6.1-7.6-10.7-13.7-10.7h-21.3c-12.2,0-22.1-9.9-22.1-22.1v-32c0-12.2,9.9-22.1,22.1-22.1h19c6.9,0,12.2-4.6,14.5-10.7
			c3.8-14.5,9.9-28.2,16.8-41.1c3-6.1,2.3-13-2.3-17.5l-13.7-13.7c-8.4-8.4-8.4-22.9,0-31.2l22.9-22.9c4.6-4.6,9.9-6.9,16-6.9
			c5.3,0,11.4,2.3,16,6.9l13.7,13.7c3,3,6.9,4.6,9.9,4.6c2.3,0,5.3-0.8,7.6-2.3c13-7.6,26.7-13,41.1-16.8
			c6.1-1.5,10.7-7.6,10.7-13.7V70.1c0-12.2,9.9-22.1,22.1-22.1h32c12.2,0,22.1,9.9,22.1,22.1v19c0,6.9,4.6,12.2,10.7,14.5
			c14.5,3.8,28.2,9.9,41.1,16.8c2.3,1.5,4.6,1.5,6.9,1.5c3.8,0,7.6-1.5,10.7-4.6l13.7-13.7c4.6-4.6,9.9-6.9,16-6.9
			c5.3,0,11.4,2.3,16,6.9l22.9,22.9c8.4,8.4,8.4,22.9,0,31.2l-13.7,13.7c-4.6,4.6-5.3,11.4-2.3,17.5c7.6,13,13,26.7,17.5,41.1
			c1.5,6.1,7.6,10.7,14.5,10.7h19c12.2,0,22.1,9.9,22.1,22.1L712.8,296.4L712.8,296.4z"/>
	</g>
</g>
</svg>
