<?xml version="1.0" encoding="utf-8"?>
<!-- Generator: Adobe Illustrator 19.0.0, SVG Export Plug-In . SVG Version: 6.00 Build 0)  -->
<!DOCTYPE svg PUBLIC "-//W3C//DTD SVG 1.1//EN" "http://www.w3.org/Graphics/SVG/1.1/DTD/svg11.dtd">
<svg version="1.1" id="Layer_1" xmlns="http://www.w3.org/2000/svg" xmlns:xlink="http://www.w3.org/1999/xlink" x="0px" y="0px"
	 viewBox="0 0 451.2 188.2" enable-background="new 0 0 451.2 188.2" xml:space="preserve">
<g>
	<g>
		<g>
			<path fill="#79BDDD" d="M388.6,66c-10.6-31.6-37-55.2-73.3-54.8c-40.2-0.3-90.5,28.3-123.6,71.5c34.4-42.6,84.3-68.4,122-66
				c33.3,1.4,55.7,23.9,64.3,53.7L388.6,66z"/>
			<path fill="#009ED1" d="M338.2,66.6c-12.5-27.2-38.6-45.9-72.7-44.9c-37.6,0.5-81.1,25.5-107.1,60.8
				c27.1-34.7,70-57.3,105.4-56.4c31.7,0.3,54.8,18.4,65.6,44.1L338.2,66.6z"/>
			<path fill="#0071B0" d="M420.7,66.8c-13.6-29.2-42.5-48.1-80.8-46.4c-41.1,1.3-87.6,27.5-114.7,62.6
				c28.3-34.5,74.3-58.4,113.2-58.1c35.3-0.3,61.4,18.7,73.2,46L420.7,66.8z"/>
		</g>
		<g>
			<path fill="#009ED1" d="M50.6,76h16.8l-20,63.9h32.8l-3.8,11.9H26.9L50.6,76z"/>
			<path fill="#009ED1" d="M105,95.9h16.1l-17.6,55.9H87.5L105,95.9z M111.5,75.9h16.1l-4.4,13.9h-16.1L111.5,75.9z"/>
			<path fill="#009ED1" d="M138.4,76.1h16.4l-8.6,25.3l0,0.2l0.3-0.2h-0.1l0.2,0.2c4.3-4,10-7.1,17.1-7.1c15.3,0,21.9,9.4,20.9,22.7
				c-1.4,17.5-13.5,35.8-34.9,35.8c-8.7,0-12.6-1.4-17-9.2h-0.2l-2.5,7.9h-15.1L138.4,76.1z M167.7,117.8
				c0.5-6.8-2.9-11.9-10.3-11.9c-10.9,0-18,13-18.8,22.8c-0.6,7.2,1.7,13.1,9.5,13.1C161.5,141.8,167,126.6,167.7,117.8z"/>
			<path fill="#009ED1" d="M204.9,128.3c-0.8,10.3,5,14.1,16,14.1c6.6,0,13.1-1.5,19.2-4l-2.9,11.5c-6.4,1.7-13.3,3.2-19.9,3.2
				c-17.7,0-29.1-7.8-27.8-24.4c1.4-17.4,17.5-34.1,37.8-34.1c15.2,0,24.7,7.1,23.6,21.3c-0.3,4.2-1.3,8.4-2.5,12.5H204.9z
				 M235.1,118.3c0.3-1.3,0.6-2.5,0.7-3.8c0.5-6-2.7-9.3-9.5-9.3c-9.9,0-14.7,5.4-18.4,13.1H235.1z"/>
			<path fill="#009ED1" d="M266.3,103.4c0.7-2.4,1.3-4.9,2-7.5h15.3l-3,10.5h0.2c3.4-6.1,11.6-11.6,19-11.6c2,0,6.2,0.1,6.2,0.1
				l-4.5,13.4c0,0-6.2,0-8.3,0.2c-11.5,1.1-15.4,9.3-18.1,18.3l-7.7,25.1h-16.1L266.3,103.4z"/>
			<path fill="#009ED1" d="M313.9,94.9h11.6l3.5-11.7l18.4-7.3l-5.9,19H356l-4.6,13.4H337l-7,22.7c-0.5,1.3-1,3.3-1.1,5.4
				c-0.3,3.4,2.1,5.4,5.7,5.4c2.9,0,6.2-0.2,8.3-0.6l-3.9,11.4c-2.8,0.3-6.1,0.4-8.9,0.4c-10.9,0-18.3-3.9-17.4-14.7
				c0.3-4.3,1.6-8.6,3.1-13l5.3-17.2h-11.6L313.9,94.9z"/>
			<path fill="#009ED1" d="M376.1,95.4l2.5,41.6h0.2l27.8-41.6h17.6l-46.9,64.4c-5.5,7.6-10.9,15.1-24.5,16.9
				c-4.1,0.5-8,0.3-12.1-0.4l3.7-11.7c1.9,0.4,4.4,0.7,7.6,0.3c4.8-0.6,7.5-2.9,13.8-10.9l-6.3-58.6H376.1z"/>
		</g>
	</g>
</g>
</svg>
