<?xml version="1.0" encoding="utf-8"?>
<!-- Generator: Adobe Illustrator 19.0.1, SVG Export Plug-In . SVG Version: 6.00 Build 0)  -->
<svg version="1.1" id="Layer_1" xmlns="http://www.w3.org/2000/svg" xmlns:xlink="http://www.w3.org/1999/xlink" x="0px" y="0px"
	 viewBox="0 0 127.3 153.4" style="enable-background:new 0 0 127.3 153.4;" xml:space="preserve">
<style type="text/css">
	.st0{fill:#FFFFFF;}
	.st1{fill:#066C9B;}
	.st2{fill:#29519B;}
	.st3{fill:#169572;}
	.st4{fill:#6EB4B1;}
	.st5{fill:#2D3D8A;}
	.st6{fill:#8AB973;}
	.st7{fill:#6DB8E6;}
	.st8{fill:#3DA8D1;}
	.st9{fill:#293578;}
	.st10{fill:#60418C;}
	.st11{fill:#C31E61;}
	.st12{fill:#8E1E5E;}
</style>
<g>
	<g>
		<path class="st0" d="M23.5,143.4c1.8,0,2.3-1.3,2.4-1.6c0.1-0.2,5.1-13.8,5.1-13.8c0-0.1,0-0.1,0-0.2c0-0.3-0.3-0.4-0.5-0.4h-2.9
			c-0.3,0-0.5,0.1-0.6,0.3c-0.1,0.2-3.6,10.7-3.6,10.7s-3.6-10.6-3.7-10.7c-0.1-0.2-0.3-0.3-0.6-0.3h-2.9c-0.2,0-0.5,0.1-0.5,0.4
			c0,0.1,0,0.1,0,0.2c0,0,5.1,13.6,5.1,13.8C21.1,142,21.7,143.4,23.5,143.4z"/>
		<path class="st0" d="M46.2,133.2c0-0.7,0.2-1.1,0.6-1.4c0.3-0.3,0.9-0.5,1.3-0.5h4c0.2,0,0.4,0,0.5-0.2c0.2-0.1,0.2-0.4,0.2-0.5
			l0-2.5c0-0.1,0-0.3-0.2-0.5c-0.1-0.1-0.3-0.2-0.4-0.2v0h-3.7c-1.8,0-3.4,0.4-4.5,1.4c-1.1,1-1.7,2.6-1.7,4.8v9
			c0,0.2,0,0.4,0.2,0.5c0.1,0.2,0.4,0.2,0.5,0.2l2.5,0c0.1,0,0.3,0,0.5-0.2c0.1-0.1,0.2-0.3,0.2-0.5v0L46.2,133.2z"/>
		<path class="st0" d="M32.8,123.4c0-0.2,0-0.4,0.2-0.5c0.2-0.2,0.4-0.2,0.5-0.2l2.5,0c0.1,0,0.3,0,0.5,0.2c0.1,0.2,0.2,0.4,0.2,0.5
			v4.1h3.2c0.2,0,0.4,0,0.5,0.2c0.2,0.1,0.2,0.3,0.2,0.5v2.5c0,0.1,0,0.3-0.2,0.5c-0.2,0.1-0.4,0.2-0.5,0.2h-3.2v6.3
			c0,0.7,0.2,1.1,0.6,1.4c0.3,0.3,0.9,0.5,1.3,0.5l1.3,0c0.2,0,0.4,0,0.6,0.2c0.2,0.2,0.2,0.4,0.2,0.5l0,2.5c0,0.1,0,0.3-0.2,0.5
			c-0.1,0.1-0.3,0.2-0.4,0.2l-1.1,0c-1.8,0-3.4-0.4-4.5-1.4s-1.7-2.6-1.7-4.8L32.8,123.4z"/>
	</g>
	<g>
		<path class="st0" d="M63.8,128.9c2.5,0,4.6,1.4,5.6,3.8c0,0.1,0.1,0.1,0.2,0.1h1.2c0.1,0,0.1,0,0.1-0.1c0-0.1,0-0.1,0-0.2
			c-1.1-3.2-3.8-5.1-7.1-5.1c-4.2,0-7.6,3.6-7.6,8.1c0,4.4,3.4,8,7.6,8c3.3,0,6-2,7.1-5.1c0-0.1,0-0.1,0-0.2c0,0-0.1-0.1-0.1-0.1
			h-1.1c-0.1,0-0.1,0-0.2,0.1c-0.9,2.4-3,3.8-5.6,3.8c-3.4,0-6.2-2.9-6.2-6.5C57.6,131.8,60.4,128.9,63.8,128.9z"/>
		<path class="st0" d="M105.4,127.4c-2.3,0-4.1,1.1-5,3c-1-1.9-2.9-3-5.2-3c-1.8,0-3.4,0.7-4.4,2V128c0-0.1-0.1-0.2-0.2-0.2h-1.1
			c-0.1,0-0.2,0.1-0.2,0.2v14.9c0,0.1,0.1,0.2,0.2,0.2h1.1c0.1,0,0.2-0.1,0.2-0.2v-9.6c0-2.5,1.8-4.4,4.4-4.4c2.6,0,4.4,1.8,4.4,4.4
			v9.6c0,0.1,0.1,0.2,0.2,0.2h1.1c0.1,0,0.2-0.1,0.2-0.2v-9.6c0-2.5,1.8-4.4,4.4-4.4c2.6,0,4.4,1.8,4.4,4.4v9.6
			c0,0.1,0.1,0.2,0.2,0.2h1.1c0.1,0,0.2-0.1,0.2-0.2v-9.6C111.3,129.9,108.8,127.4,105.4,127.4z"/>
		<path class="st0" d="M79.9,127.4c-4.4,0-8,3.6-8,8c0,4.4,3.6,8,8,8c4.4,0,8-3.6,8-8C87.9,131,84.3,127.4,79.9,127.4z M79.9,142
			c-3.7,0-6.6-2.9-6.6-6.6c0-3.6,2.9-6.6,6.6-6.6c3.6,0,6.6,3,6.6,6.6C86.5,139.1,83.5,142,79.9,142z"/>
	</g>
	<path class="st0" d="M54.7,141.5c0-1.1-0.9-1.9-1.9-1.9c-1.1,0-1.9,0.9-1.9,1.9c0,1.1,0.9,1.9,1.9,1.9
		C53.9,143.4,54.7,142.6,54.7,141.5z"/>
</g>
<g>
	<path class="st1" d="M52.1,53.4c1.2-1.6,2.4-3.3,3.6-4.9c3.2-4.1,5.9-8.1,8.6-11.8C66.5,28,67.6,21,68,15.6c-2.1,1.7-4,3.7-5.4,6.2
		l0,0l-5.6,9.8c0,0,0,0,0,0c-1.1,2.5-2.2,5.1-3.4,8C53.3,44.4,52.8,49.1,52.1,53.4"/>
	<path class="st2" d="M72.2,27.4c2.4-6.2,4.8-11.9,6.8-16.5c-4,0.6-7.8,2.3-11,4.8C67.6,21,66.5,28,64.4,36.7
		C66.9,33.3,69.3,30.1,72.2,27.4"/>
	<path class="st3" d="M49.3,49.4c1.5-3.5,2.9-6.8,4.2-9.8c0.1-1.9,0.1-3.9,0.1-5.9L41.1,56.1c0.7-0.2,1.4-0.5,2.1-0.8L38,64.2l0,0
		c-0.3,0.4-0.5,0.9-0.8,1.3c0.4,2.2,0.9,4.2,1.6,6.2C42.2,65.2,45.7,57.8,49.3,49.4"/>
	<path class="st2" d="M53.5,39.5c-1.3,3.1-2.7,6.3-4.2,9.8c-3.6,8.4-7.1,15.8-10.4,22.3c0.3,0.8,0.5,1.7,0.8,2.5
		c3.4-6.7,7.5-13.8,12.5-20.8C52.8,49.1,53.3,44.5,53.5,39.5"/>
	<path class="st1" d="M39.7,74.2c1.1,3,2.4,5.6,3.9,8.1c3.6-7.6,6.8-17.2,8.6-28.9C47.2,60.4,43.1,67.4,39.7,74.2"/>
	<path class="st4" d="M37.3,65.5c0,0.1-0.1,0.1-0.1,0.2c-2.2,4.3-2.9,9-2.4,13.5c1.3-2.4,2.6-4.9,4-7.5
		C38.2,69.8,37.7,67.7,37.3,65.5"/>
	<path class="st1" d="M38.8,71.7c-1.4,2.7-2.7,5.2-4,7.5c0.2,1.3,0.4,2.5,0.8,3.7c1.2-2.8,2.6-5.7,4.1-8.7
		C39.4,73.4,39.1,72.6,38.8,71.7"/>
	<path class="st5" d="M39.7,74.2c-1.5,3-2.8,5.9-4.1,8.7c0.8,2.6,2,5.1,3.7,7.4c1.4-2.4,2.8-5.1,4.2-8
		C42.1,79.8,40.8,77.1,39.7,74.2"/>
	<path class="st6" d="M33.5,42.7c-0.6-2-1.2-3.9-1.9-5.7c-0.1-0.3-0.2-0.6-0.3-0.9c-0.1-0.3-0.2-0.5-0.3-0.7c-1-2.7-2.2-5.1-3.3-7.4
		c-2.1-4.1-4.3-7.6-6.3-10.4c-0.6-0.8-1.2-1.6-1.7-2.3c-2.8,2.1-5.2,4.8-6.9,8.2c-3.3,6.5-3.3,13.8-0.6,20.1
		c0.5,1.2,1.1,2.3,1.9,3.4c0.8,1.3,1.8,2.5,2.9,3.6c1.1,1.1,2.3,2.1,3.6,3c0.8,0.5,1.6,1,2.4,1.4c0.5,0.3,1,0.5,1.6,0.7
		c3.8,1.6,7.8,2.1,11.6,1.7C35.7,52,34.7,47.2,33.5,42.7"/>
	<path class="st7" d="M55.1,24.8l-1.7,1.4L33.5,42.7c1.3,4.5,2.2,9.3,2.7,14.5c1.7-0.2,3.3-0.6,4.9-1.1l12.5-22.5l2.8-5
		C56.1,27.3,55.6,26,55.1,24.8"/>
	<path class="st6" d="M53.5,39.5c1.2-2.9,2.3-5.5,3.4-8c-0.1-1-0.3-2-0.5-2.9l-2.8,5C53.6,35.6,53.5,37.6,53.5,39.5"/>
	<path class="st5" d="M49.7,85.4c2.4-1.9,4.7-3.9,7.1-5.9c0-3.7,0.7-7.6,1.5-11.2c2.2-10.4,8.2-26.8,13.9-40.9
		c-2.8,2.7-5.3,5.9-7.8,9.3c-1.8,7.4-4.5,16.2-8.2,26.5C52.9,71.9,50.9,79.2,49.7,85.4"/>
	<path class="st2" d="M56.1,63.2c3.8-10.3,6.4-19,8.2-26.5c-2.7,3.7-5.4,7.7-8.6,11.8c-1.3,1.6-2.5,3.3-3.6,4.9
		c-1.8,11.7-5,21.2-8.6,28.9c1.1,1.9,2.3,3.6,3.6,5.2c0.9-0.7,1.7-1.4,2.6-2.1C50.9,79.2,52.9,71.9,56.1,63.2"/>
	<path class="st8" d="M53,20.9c-0.5-0.7-1-1.4-1.6-2.1c-1.9-2.3-4.3-4.2-7.2-5.7c-1.1-0.6-2.3-1.1-3.5-1.4c-0.3-0.1-0.6-0.2-0.9-0.3
		c-0.1,0-0.2,0-0.2-0.1c-5.7-1.5-11.6-0.8-16.7,1.8c-1.1,0.6-2.2,1.3-3.2,2c0.5,0.7,1.1,1.5,1.7,2.3c2,2.8,4.2,6.3,6.3,10.4
		c1.2,2.3,2.3,4.8,3.3,7.4c0.1,0.2,0.2,0.5,0.3,0.7c0.1,0.3,0.2,0.6,0.3,0.9c0.7,1.8,1.3,3.7,1.9,5.7l19.9-16.5l1.7-1.4
		C54.5,23.4,53.8,22.1,53,20.9"/>
	<path class="st9" d="M43.5,82.3c-1.4,3-2.8,5.7-4.2,8c0.5,0.7,1.1,1.3,1.6,2c2.1-1.6,4.2-3.2,6.2-4.8
		C45.9,85.9,44.6,84.1,43.5,82.3"/>
	<path class="st10" d="M80,58.2C80,58.2,80,58.2,80,58.2c4.3-4.2,8.6-8.4,12.6-12.5c1.1-1.1,2.1-2.2,3.2-3.3
		c3.5-3.6,6.9-7.2,10-10.6c-0.3-3-1.1-6-2.5-8.6c-0.7-1.4-1.6-2.8-2.6-4c-0.5-0.7-1.1-1.3-1.7-1.9c-0.1-0.1-0.1-0.1-0.2-0.2
		c-1.6-1.6-3.5-2.9-5.6-4c-1.3-0.7-2.7-1.2-4-1.6c-3.4-1-6.8-1.2-10.1-0.7c-2,4.7-4.3,10.4-6.8,16.5c-5.6,14.1-11.6,30.5-13.9,40.9
		c-0.8,3.6-1.5,7.5-1.5,11.2C64.7,72.8,72.6,65.5,80,58.2C80,58.3,80,58.3,80,58.2C80,58.2,80,58.2,80,58.2L80,58.2
		C80,58.2,80,58.2,80,58.2"/>
	<path class="st11" d="M105.8,32.3c0-0.2,0-0.3,0-0.4c-3.2,3.4-6.5,6.9-10,10.6c-1,1.1-2.1,2.2-3.2,3.3c-4,4.1-8.3,8.3-12.6,12.5
		c0,0,0,0,0,0c-7.4,7.2-15.3,14.5-23.2,21.2c0,2.6,0.3,5,1.2,7c1.3,2.9,3.8,5.1,8.2,5.8c2,0.3,3.9,0.1,5.9-0.5
		c1.8-0.6,3.6-1.5,5.5-2.6c0.1-0.2,0.3-0.4,0.4-0.7l0,0l3.5-6l3.1-5.3l10.9-18.9l7.2-12.4l0,0c0.3-0.4,0.5-0.9,0.8-1.3
		C105.3,40.7,106.1,36.4,105.8,32.3"/>
	<path class="st11" d="M80,58.2L80,58.2C80,58.2,80,58.2,80,58.2C80,58.2,80,58.2,80,58.2"/>
	<path class="st11" d="M80,58.3C80,58.3,80,58.3,80,58.3L80,58.3C80,58.3,80,58.3,80,58.3"/>
	<path class="st12" d="M72.1,91.8c-1.9,0.6-3.9,0.8-5.9,0.5c-4.4-0.7-6.9-2.9-8.2-5.8c-0.9-2-1.3-4.4-1.2-7c-2.3,2-4.7,4-7.1,5.9
		c-0.9,0.7-1.7,1.4-2.6,2.1c-2.1,1.7-4.2,3.3-6.2,4.8c1.6,1.7,3.6,3.3,5.8,4.5c0.2,0.1,0.5,0.3,0.7,0.4c0.3,0.2,0.6,0.3,1,0.5
		c4.5,2.1,9.4,2.5,14,1.7c2.4-0.5,4.7-1.3,6.8-2.4c3.3-1.8,6.2-4.4,8.4-7.7C75.7,90.3,73.9,91.2,72.1,91.8"/>
	<path class="st11" d="M105.8,77.5c-6.1,0-11.1,5-11.1,11.1c0,6.1,5,11.1,11.1,11.1c6.1,0,11.1-5,11.1-11.1
		C117,82.4,112,77.5,105.8,77.5"/>
</g>
</svg>
